<svg xmlns="http://www.w3.org/2000/svg" viewBox="0 0 33.75 33.75"><defs><style>.cls-1{fill:#fff;}.cls-2{fill:#4a4e51;}</style></defs><g id="Layer_2" data-name="Layer 2"><g id="Layer_1-2" data-name="Layer 1"><ellipse class="cls-1" cx="16.88" cy="16.88" rx="16.46" ry="16.46"/><path class="cls-2" d="M28.23,30.35a12.6,12.6,0,0,0,.92-5.28,15.36,15.36,0,0,0,3.54-5.69,4.85,4.85,0,0,1,1.12.32,4.76,4.76,0,0,1,.1,1.54c-.43,2.83-1.92,7.08-4.54,9A2.51,2.51,0,0,1,28.23,30.35Zm-8.68,4.71a6.23,6.23,0,0,0,1.51-1.2,15.59,15.59,0,0,0,6.69-2.72,6.16,6.16,0,0,0,.84,0C26.89,32.84,22.75,34.7,19.55,35.06Zm-9.17-1.93-.21.33.17-.36a8.25,8.25,0,0,1-2.86-2.84,25.73,25.73,0,0,1,2.3-1.91,27.14,27.14,0,0,0,7.08,1.59,21,21,0,0,0,3.39,3.58,7.32,7.32,0,0,1-2.76,1.55A13.82,13.82,0,0,1,10.38,33.13Zm-8.32-16a11.06,11.06,0,0,0,.36,2.21A6.52,6.52,0,0,0,2,20.82,18.23,18.23,0,0,1,2.06,17.12Zm26.5,7.37a33.58,33.58,0,0,1-6-.82c-.53-1.86-2.29-6.44-2.69-7.48,1.72-2.46,3.42-4.79,3.89-5.43a14,14,0,0,1,5.88,1.59A16.76,16.76,0,0,1,32,18.88,14.52,14.52,0,0,1,28.56,24.49ZM17.82,3.07a7.71,7.71,0,0,1,1.5.25,13.91,13.91,0,0,0-1.08,1.85,19.62,19.62,0,0,0-6.87,2.5,11.34,11.34,0,0,0-3.65-.39A5,5,0,0,1,8.72,6a17,17,0,0,1,9.1-2.9ZM6.62,20.21a10.16,10.16,0,0,1-3.41-1.13,13.37,13.37,0,0,1,0-5.8C3.87,12,5.88,8.79,7.21,8.18A9.65,9.65,0,0,1,11,8.42a30.89,30.89,0,0,0,.19,6.11C9.66,15.76,7.25,19.28,6.62,20.21ZM30.27,9.28a6.28,6.28,0,0,1-.49,2.19,15,15,0,0,0-6-1.53,16.07,16.07,0,0,0-4.77-4.55,8.58,8.58,0,0,1,1.16-1.84,1.7,1.7,0,0,1,.47,0,15.48,15.48,0,0,1,4.09,1C25,4.63,29.41,7,30.27,9.28ZM10,27.55a27.09,27.09,0,0,1-2.73-6.81c.51-.76,3-4.48,4.47-5.59l7.4,1.35c.4,1,2.17,5.64,2.67,7.41a65,65,0,0,1-4.89,5.21A27.15,27.15,0,0,1,10,27.55Zm24.85-8.47c0-.41.11-6.14-3.28-9.87a9.15,9.15,0,0,0-3.17-3.32,24.38,24.38,0,0,0-3.25-2.12h0a14.85,14.85,0,0,0-6.38-1.56c-.25,0-.51,0-.76,0h0a16.34,16.34,0,0,0-6.7,1.4h0A16.77,16.77,0,0,0,8.22,5.3C6.3,6.37,2.67,10.67,2.39,13c-1.17,1.48-2.14,8.15,0,12.2,1.49,5.64,7.12,8.47,7.57,8.68a14.36,14.36,0,0,0,7.11,2.07h.47a7.79,7.79,0,0,0,1,.07c4.07,0,10.11-2.88,11.37-5.12C33.36,28.3,35.16,21.75,34.84,19.08Z" transform="translate(-1.13 -2.21)"/></g></g></svg>