<svg xmlns="http://www.w3.org/2000/svg" viewBox="0 0 29.25 33.75"><defs><style>.cls-1{fill:#3e4347;}.cls-2{fill:#d0cfd0;}</style></defs><g id="Layer_2" data-name="Layer 2"><g id="Layer_1-2" data-name="Layer 1"><rect class="cls-1" x="0.62" y="2.75" width="28" height="28.24"/><path class="cls-1" d="M18,30.45c8.08,0,14.62,1.23,14.62,2.75S26.08,36,18,36,3.38,34.72,3.38,33.2,9.92,30.45,18,30.45Z" transform="translate(-3.38 -2.21)"/><ellipse class="cls-1" cx="14.63" cy="12.13" rx="14.63" ry="2.75"/><ellipse class="cls-1" cx="14.63" cy="21.62" rx="14.63" ry="2.75"/><ellipse class="cls-2" cx="14.63" cy="2.75" rx="14.63" ry="2.75"/><path class="cls-2" d="M4.17,13.71c2,1.08,7.42,2.36,13.83,2.36s11.86-1.28,13.83-2.36A92,92,0,0,1,18,15.05,92,92,0,0,1,4.17,13.71Z" transform="translate(-3.38 -2.21)"/><path class="cls-2" d="M4.17,23.19c2,1.08,7.42,2.37,13.83,2.37s11.86-1.29,13.83-2.37A90.5,90.5,0,0,1,18,24.54,90.5,90.5,0,0,1,4.17,23.19Z" transform="translate(-3.38 -2.21)"/><path class="cls-2" d="M4.17,32.36c2,1.08,7.42,2.37,13.83,2.37s11.86-1.29,13.83-2.37A90.5,90.5,0,0,1,18,33.71,90.5,90.5,0,0,1,4.17,32.36Z" transform="translate(-3.38 -2.21)"/><path class="cls-1" d="M8.81,4.41C10,4.41,11,4.65,11,5s-1,.55-2.19.55S6.63,5.26,6.63,5,7.61,4.41,8.81,4.41Z" transform="translate(-3.38 -2.21)"/></g></g></svg>