<svg xmlns="http://www.w3.org/2000/svg" viewBox="0 0 33.75 31.5"><defs><style>.cls-1{fill:#8a674d;}.cls-2{fill:#2a2118;}.cls-3{fill:#fff;}.cls-4{fill:#5c4534;}.cls-5{fill:#f195b1;}.cls-6{fill:#7a495b;}</style></defs><g id="Layer_2" data-name="Layer 2"><g id="Layer_1-2" data-name="Layer 1"><path class="cls-1" d="M11.58,9.4C10.24,6.89,1.34,7.64,1.34,7.64s-1,9,1.53,10.44C4.86,19.15,12.67,11.44,11.58,9.4Z" transform="translate(-1.13 -3.33)"/><path class="cls-2" d="M9.91,10.78C9.08,9.22,3.56,9.69,3.56,9.69s-.65,5.6.95,6.47C5.74,16.82,10.58,12,9.91,10.78Z" transform="translate(-1.13 -3.33)"/><path class="cls-1" d="M33,18c2.52-1.33,1.77-10.2,1.77-10.2s-9.08-1-10.48,1.53C23.2,11.31,31,19.09,33,18Z" transform="translate(-1.13 -3.33)"/><path class="cls-2" d="M31.62,16.35c1.56-.83,1.09-6.33,1.09-6.33s-5.62-.65-6.5,1C25.54,12.19,30.35,17,31.62,16.35Z" transform="translate(-1.13 -3.33)"/><path class="cls-1" d="M33.08,23.22C33.08,33,26.33,34.83,18,34.83S2.92,33,2.92,23.22,12.19,6.42,18,6.42,33.08,13.44,33.08,23.22Z" transform="translate(-1.13 -3.33)"/><path class="cls-3" d="M11.06,27.67C4.38,30.93,6.16,17,6.16,17,1,30.37,7.18,32.52,11.58,31.87Z" transform="translate(-1.13 -3.33)"/><path class="cls-3" d="M24.94,27.67C31.62,30.93,29.84,17,29.84,17c5.18,13.36-1,15.51-5.42,14.86Z" transform="translate(-1.13 -3.33)"/><path class="cls-4" d="M18,13.8s-1.67-5.65-5.44-6.7a4.15,4.15,0,0,1,2.93-.51,2.08,2.08,0,0,0-1-1.77S16.88,4.3,18.09,6a6.84,6.84,0,0,0-.27-2.7s4,1,5.06,4.37A7.57,7.57,0,0,0,18,13.8Z" transform="translate(-1.13 -3.33)"/><path class="cls-2" d="M10.48,17.37c1,0,1.74,1.41,1.74,3.15s-.78,3.15-1.74,3.15-1.74-1.41-1.74-3.15S9.52,17.37,10.48,17.37Z" transform="translate(-1.13 -3.33)"/><path class="cls-2" d="M25.52,17.28c1,0,1.74,1.41,1.74,3.15s-.78,3.15-1.74,3.15-1.74-1.41-1.74-3.15S24.56,17.28,25.52,17.28Z" transform="translate(-1.13 -3.33)"/><path class="cls-5" d="M25.9,29.07c0,4.54-3.54,4-7.9,4s-7.9.52-7.9-4,3.54-6.83,7.9-6.83S25.9,24.52,25.9,29.07Z" transform="translate(-1.13 -3.33)"/><path class="cls-6" d="M14.48,24.58c1.06,0,1.93,1.58,1.93,3.52s-.87,3.52-1.93,3.52-1.94-1.57-1.94-3.52S13.41,24.58,14.48,24.58Z" transform="translate(-1.13 -3.33)"/><path class="cls-6" d="M21.52,24.58c1.07,0,1.94,1.58,1.94,3.52s-.87,3.52-1.94,3.52-1.93-1.57-1.93-3.52S20.46,24.58,21.52,24.58Z" transform="translate(-1.13 -3.33)"/></g></g></svg>