<svg xmlns="http://www.w3.org/2000/svg" viewBox="0 0 33.75 33.75"><defs><style>.cls-1{fill:#f2b5b5;}.cls-2{fill:#fce5e8;}.cls-3{fill:#e62051;}</style></defs><g id="Layer_2" data-name="Layer 2"><g id="Layer_1-2" data-name="Layer 1"><path class="cls-1" d="M12.83,24.25c3.05,3.05,1.86,9.18-.19,11.24s-1.81-3.14-4.86-6.19-8.24-2.8-6.19-4.86S9.78,21.2,12.83,24.25Z" transform="translate(-1.12 -2.21)"/><path class="cls-2" d="M1.59,24.44s3.43.18,4,2.89c.29,1.3-.42,2.53.59,3.55s2.25.3,3.55.59c2.71.59,2.89,4,2.89,4,2-2.06,3.24-8.19.19-11.24S3.65,22.39,1.59,24.44Z" transform="translate(-1.12 -2.21)"/><path class="cls-1" d="M23.17,13.91c-3.05-3.05-1.87-9.18.19-11.24s1.81,3.14,4.86,6.19,8.24,2.8,6.19,4.86S26.22,17,23.17,13.91Z" transform="translate(-1.12 -2.21)"/><path class="cls-2" d="M34.41,13.72s-3.43-.18-4-2.88c-.29-1.31.42-2.54-.59-3.56s-2.25-.3-3.56-.59c-2.7-.59-2.88-4-2.88-4-2.06,2.06-3.24,8.19-.19,11.24S32.35,15.77,34.41,13.72Z" transform="translate(-1.12 -2.21)"/><path class="cls-3" d="M18,19.09h0a4.09,4.09,0,0,1-6.09-5,7.91,7.91,0,0,0-1,8.44C15.78,23.72,17.12,20.13,18,19.09Z" transform="translate(-1.12 -2.21)"/><path class="cls-3" d="M18,19.06h0A4.1,4.1,0,0,1,23,13a7.85,7.85,0,0,0-8.41-1C13.34,16.86,16.93,18.19,18,19.06Z" transform="translate(-1.12 -2.21)"/><path class="cls-3" d="M18,19.06v0h0A4.09,4.09,0,0,1,24.14,24a7.88,7.88,0,0,0,.94-8.37C20.24,14.45,18.88,18,18,19.06Z" transform="translate(-1.12 -2.21)"/><path class="cls-3" d="M18.07,19.17a4.1,4.1,0,0,1-5,6,7.88,7.88,0,0,0,8.39.95C22.61,21.41,19.18,20,18.07,19.17Z" transform="translate(-1.12 -2.21)"/><path class="cls-2" d="M23.46,13.41,23,13a4.1,4.1,0,0,0-5,6.08h0c-1-.87-4.63-2.2-3.42-7.06a5.76,5.76,0,0,0-.6.33,8.07,8.07,0,0,0-1.52,1.18l-.1.11a6.42,6.42,0,0,0-.43.48,4.08,4.08,0,0,0,6.08,5h0c-.86,1-2.2,4.63-7,3.45a6.47,6.47,0,0,0,.34.63,8.48,8.48,0,0,0,1.16,1.48l.12.11c.16.16.33.31.5.45a4.1,4.1,0,0,0,5-6c1.11.86,4.54,2.24,3.37,7,.2-.1.41-.2.61-.32a8.13,8.13,0,0,0,1.52-1.19l.11-.12c.16-.17.31-.34.46-.52A4.09,4.09,0,0,0,18,19.09h0v0c.87-1.06,2.23-4.61,7.07-3.42q-.13-.29-.3-.57a8.08,8.08,0,0,0-1.21-1.56Z" transform="translate(-1.12 -2.21)"/></g></g></svg>