<svg xmlns="http://www.w3.org/2000/svg" viewBox="0 0 23.63 33.75"><defs><style>.cls-1{fill:#a29b95;}.cls-2{fill:#dddad5;}.cls-3{fill:#dfcea3;}.cls-4{fill:#fff6d7;}.cls-5{fill:#efd8b1;}.cls-6{fill:#e94d5c;}.cls-7{fill:#8f9496;}.cls-8{fill:#ffce35;}.cls-9{fill:#3e4347;}</style></defs><g id="Layer_2" data-name="Layer 2"><g id="Layer_1-2" data-name="Layer 1"><ellipse class="cls-1" cx="11.81" cy="29.89" rx="10.06" ry="3.86"/><ellipse class="cls-2" cx="11.81" cy="29" rx="9.28" ry="2.97"/><ellipse class="cls-1" cx="11.81" cy="27.68" rx="5.91" ry="2.37"/><ellipse class="cls-2" cx="11.81" cy="27.34" rx="5.54" ry="1.69"/><ellipse class="cls-1" cx="11.81" cy="22.8" rx="5.91" ry="4.85"/><ellipse class="cls-2" cx="11.81" cy="21.84" rx="5.02" ry="3.9"/><ellipse class="cls-1" cx="11.81" cy="19.28" rx="6.44" ry="2.49"/><ellipse class="cls-2" cx="11.81" cy="18.78" rx="5.72" ry="1.96"/><ellipse class="cls-1" cx="11.81" cy="15.43" rx="11.81" ry="3.86"/><ellipse class="cls-2" cx="11.81" cy="14.54" rx="10.9" ry="2.97"/><ellipse class="cls-3" cx="11.81" cy="13.89" rx="6.98" ry="1.95"/><rect class="cls-3" x="4.83" y="5.7" width="13.96" height="8.18"/><ellipse class="cls-4" cx="11.81" cy="5.7" rx="6.98" ry="1.95"/><ellipse class="cls-5" cx="11.81" cy="6.15" rx="5.3" ry="1.48"/><path class="cls-6" d="M17.74,8.11c-1.13,0-2.18-.56-1-2.7s1.59-2.6,1.59-3.21C18.35,2.2,21.92,8.11,17.74,8.11Z" transform="translate(-6.19 -2.2)"/><path class="cls-7" d="M18,7.16c.09.35.13.71.21,1.06a.88.88,0,0,1,0,.53c0,.08-.12.31-.24.29s-.18-.3-.21-.36a1.26,1.26,0,0,1,0-.58C17.82,8,17.91,7.14,18,7.16Z" transform="translate(-6.19 -2.2)"/><path class="cls-8" d="M17.83,8.1c-.72,0-1.39-.36-.62-1.72s1-1.67,1-2.06C18.22,4.32,20.51,8.1,17.83,8.1Z" transform="translate(-6.19 -2.2)"/><path class="cls-9" d="M17.8,8.1s.08-.95.2-.95.21.92.21.92A3,3,0,0,1,17.8,8.1Z" transform="translate(-6.19 -2.2)"/></g></g></svg>