<svg xmlns="http://www.w3.org/2000/svg" viewBox="0 0 33.75 33.75"><defs><style>.cls-1{fill:#43ade2;}.cls-2{fill:#fbd0ad;}.cls-3{fill:#f5f4f5;}.cls-4{fill:#574137;}.cls-5{fill:#fff;}.cls-6{fill:#ed6f7f;}.cls-7{fill:#d04351;}.cls-8{fill:#ea5365;}.cls-9{fill:#3e4347;}.cls-10{fill:#0884a6;}.cls-11{fill:#221f20;}</style></defs><g id="Layer_2" data-name="Layer 2"><g id="Layer_1-2" data-name="Layer 1"><path class="cls-1" d="M34.88,16.39a4.74,4.74,0,0,0-2.18-4A4.91,4.91,0,0,0,33,10.75a4.79,4.79,0,0,0-4.65-4.87,4.34,4.34,0,0,0-3.86-2.41,4.29,4.29,0,0,0-2.29.67A5.27,5.27,0,0,0,18,2.2a5.27,5.27,0,0,0-4.18,1.94,4.29,4.29,0,0,0-2.29-.67A4.34,4.34,0,0,0,7.67,5.88,4.79,4.79,0,0,0,3,10.75a4.91,4.91,0,0,0,.28,1.64,4.74,4.74,0,0,0-2.18,4,4.81,4.81,0,0,0,1.07,3,4.14,4.14,0,0,0-.43,1.83,4,4,0,0,0,2.07,3.54,3.55,3.55,0,0,0,0,.46,3.94,3.94,0,0,0,3.87,4H28.33a3.94,3.94,0,0,0,3.87-4,3.55,3.55,0,0,0,0-.46,4,4,0,0,0,2.07-3.54,4.14,4.14,0,0,0-.43-1.83A4.81,4.81,0,0,0,34.88,16.39Z" transform="translate(-1.13 -2.2)"/><path class="cls-2" d="M29.11,20.75A4.38,4.38,0,0,1,28.79,22a2.2,2.2,0,0,1-.8.77,6.89,6.89,0,0,0,.09-1.91C27.33,9.68,26,14.69,18,14.69s-9.32-5-10.08,6.17A7.07,7.07,0,0,0,8,22.79a2.2,2.2,0,0,1-.8-.77,4.39,4.39,0,0,1-.32-1.26c-.86-.23-2,0-2,2.42,0,1.53.56,2.79,2.46,2.92.8,6.21,3.21,7.22,8,9.42a7.81,7.81,0,0,0,5.14,0c4.83-2.2,7.24-3.21,8-9.42,1.9-.13,2.46-1.39,2.46-2.92C31.07,20.72,30,20.53,29.11,20.75Z" transform="translate(-1.13 -2.2)"/><path class="cls-3" d="M27.61,21.05c-.73-10.82-2-5.58-9.61-5.58S9.12,10.24,8.39,21a35.53,35.53,0,0,0,.38,5,11.61,11.61,0,0,0,6.78,9,7.48,7.48,0,0,0,4.9,0,11.61,11.61,0,0,0,6.78-9A35.36,35.36,0,0,0,27.61,21.05Z" transform="translate(-1.13 -2.2)"/><path class="cls-4" d="M23.16,28.79c-2.15,2.22-1.85,5-5.16,5s-3-2.75-5.16-5,2.86.29,5.16.29S25.25,26.63,23.16,28.79Z" transform="translate(-1.13 -2.2)"/><path class="cls-5" d="M21.9,28.2l-3.9.92-3.9-.92s-.12.92.27,1.3c.58.56,2.68.86,3.63.86s3.05-.3,3.63-.86C22,29.12,21.9,28.2,21.9,28.2Z" transform="translate(-1.13 -2.2)"/><path class="cls-6" d="M18,32.09a2.29,2.29,0,0,0-2.1,1.11l2.1.34,2.1-.34A2.29,2.29,0,0,0,18,32.09Z" transform="translate(-1.13 -2.2)"/><path class="cls-7" d="M22.45,29.24c-1.85,1.85-1.59,4.13-4.45,4.15s-2.6-2.3-4.45-4.15,2.46.24,4.45.24S24.26,27.43,22.45,29.24ZM18,28.67c-1.28,0-8.86-2.82-5.58.31,1.79,1.71,1.82,5.62,5.58,5.62s3.78-3.91,5.58-5.62C26.86,25.85,19.28,28.67,18,28.67Z" transform="translate(-1.13 -2.2)"/><circle class="cls-8" cx="16.88" cy="23.26" r="3.72"/><path class="cls-3" d="M15.19,21.21c0,1.66-4.5,1.66-4.5,0C10.69,15.67,15.19,15.67,15.19,21.21Z" transform="translate(-1.13 -2.2)"/><path class="cls-9" d="M15.58,21.46c0,2.07-5.63,2.07-5.63,0C10,14.53,15.58,14.53,15.58,21.46Z" transform="translate(-1.13 -2.2)"/><path class="cls-3" d="M15.39,21.49c0,1.66-4.5,1.66-4.5,0C10.89,16,15.39,16,15.39,21.49Z" transform="translate(-1.13 -2.2)"/><ellipse class="cls-10" cx="12.19" cy="18.28" rx="1.41" ry="1.97"/><circle class="cls-11" cx="12.19" cy="18.28" r="0.42"/><path class="cls-9" d="M20.42,21.46c0,2.07,5.62,2.07,5.62,0C26,14.53,20.42,14.53,20.42,21.46Z" transform="translate(-1.13 -2.2)"/><path class="cls-3" d="M20.61,21.49c0,1.66,4.5,1.66,4.5,0C25.11,16,20.61,16,20.61,21.49Z" transform="translate(-1.13 -2.2)"/><ellipse class="cls-10" cx="21.54" cy="18.28" rx="1.41" ry="1.97"/><circle class="cls-11" cx="21.54" cy="18.28" r="0.42"/></g></g></svg>