<svg xmlns="http://www.w3.org/2000/svg" viewBox="0 0 33.75 33.75"><defs><style>.cls-1{fill:#728389;}.cls-2{fill:#8e9ba3;}.cls-3{fill:#7ecef5;}.cls-4{fill:#fdfdfb;}.cls-5{fill:#29251c;}</style></defs><g id="Layer_2" data-name="Layer 2"><g id="Layer_1-2" data-name="Layer 1"><path class="cls-1" d="M33,24.4c0-2,2.78-6.42,1.47-7.78s-4.67,4.81-6.31,4.81c-2,0-3.15-2.43-4.13-3.45-.78-.81,1.44-3.92.46-4.15-4.23-1-4.8,1.44-7.08.83a21.81,21.81,0,0,0-5.49-.75c-6.73,0-8,4.85-9.2,9.33-.19.74,6.59,6.53,6.59,6.53s-5.2-2.93-5-2.26c.83,3.69,4.35,6.08,8.27,7a15.57,15.57,0,0,0,3.46.4c7.2,0,8.32-5.55,12.21-6.23,2.34-.41,4.92,4.15,6.27,2.75S33,26.7,33,24.4Z" transform="translate(-1.13 -2.2)"/><path class="cls-2" d="M27.06,35.12a2.24,2.24,0,0,1-3.5,0c-1.47-1.52-3-4.23-2.38-4.9s3.27.94,4.73,2.46S27.71,34.44,27.06,35.12Z" transform="translate(-1.13 -2.2)"/><ellipse class="cls-2" cx="17.67" cy="18.71" rx="1.25" ry="1.83"/><ellipse class="cls-2" cx="20.02" cy="20.91" rx="0.7" ry="1.43"/><path class="cls-2" d="M22.43,20.36c.2,0,.35.43.35.95s-.15,1-.35,1-.35-.42-.35-1S22.24,20.36,22.43,20.36Z" transform="translate(-1.13 -2.2)"/><path class="cls-3" d="M3,24.83a1,1,0,1,1-1,1A1,1,0,0,1,3,24.83Z" transform="translate(-1.13 -2.2)"/><ellipse class="cls-3" cx="2.43" cy="12.04" rx="2.43" ry="2.51"/><ellipse class="cls-3" cx="6.1" cy="4.65" rx="4.49" ry="4.65"/><ellipse class="cls-4" cx="9.41" cy="20.54" rx="4.01" ry="4.15"/><ellipse class="cls-5" cx="9.41" cy="20.54" rx="2.76" ry="2.85"/></g></g></svg>