<svg xmlns="http://www.w3.org/2000/svg" viewBox="0 0 33.75 28.12"><defs><style>.cls-1{fill:#ffdd67;}.cls-2{fill:#eba353;}</style></defs><g id="Layer_2" data-name="Layer 2"><g id="Layer_1-2" data-name="Layer 1"><path class="cls-1" d="M33.46,9.8a4.3,4.3,0,0,0-3.68-3.91c-2-.33-4,.34-4.46,2C25.07,5.72,23.14,5,20.78,5s-4.21,1.11-4.44,3.23C15.76,7,14.27,6.59,12.5,6.64h-.07c-1.72,0-3.2.65-3.77,2a2.84,2.84,0,0,0-2.35.06C5,9.12,2.57,11.14,1.58,15.32.81,18.54,1.86,23,1.86,23a3.62,3.62,0,0,0,3.43,3.81,3.71,3.71,0,0,0,3.52-2v.65a4.07,4.07,0,0,0,4.17,4h.07a4.07,4.07,0,0,0,3.77-2.83,4.53,4.53,0,0,0,9-.84A4.2,4.2,0,0,0,30,29.35h.07c2.33-.05,4.81-2.32,4.77-4.64A94.92,94.92,0,0,1,33.46,9.8Z" transform="translate(-1.13 -5.02)"/><path class="cls-2" d="M34.78,25.56a4.22,4.22,0,0,1-3.15,1.58h-.07a5.53,5.53,0,0,1-.69,0l-.34,0a7,7,0,0,1-4-2,25,25,0,0,0,.21-3.85c0-1.39-.11-2.75-.17-4.11s-.11-2.71,0-4.11a10,10,0,0,0-.64,2,16.28,16.28,0,0,0-.3,2.08,36,36,0,0,0-.1,4.15c0,1.37.08,2.72,0,4.05a7.28,7.28,0,0,1-.27,2.14c-.45.95-1.8,1.15-2.94,1.18a5.52,5.52,0,0,1-4.9-2.86v-.06c.07-.59.15-1.19.22-1.8a33.87,33.87,0,0,0,.2-3.64,26.51,26.51,0,0,0-.24-3.67c-.09-.6-.2-1.21-.34-1.81A13.83,13.83,0,0,0,16.7,13c-.05.62-.06,1.23-.08,1.84s0,1.2,0,1.81c0,1.2,0,2.4,0,3.6s0,2.4.07,3.61c0,.51.06,2,.11,2.63a4.11,4.11,0,0,1-2.79,1.2h-.07a4.9,4.9,0,0,1-4.4-3.23,1,1,0,0,0,0-.17c.08-1,.15-2.09.2-3.14a26.46,26.46,0,0,0,0-3.21,11.38,11.38,0,0,0-.2-1.62,7.27,7.27,0,0,0-.22-.8,3.39,3.39,0,0,0-.18-.39,1,1,0,0,0-.25-.33,1.78,1.78,0,0,1,.07.39c0,.13,0,.26,0,.39s0,.52-.05.78c0,.52-.11,1-.17,1.56-.11,1.05-.21,2.1-.26,3.17a21.68,21.68,0,0,0,.08,3.22s0,.06,0,.09A4.13,4.13,0,0,1,6.17,25C.48,25,1.69,16.69,2.46,13.47A13.53,13.53,0,0,1,2.89,12a10.39,10.39,0,0,0-1.31,3.31C.81,18.54.46,26.85,5.29,26.85a3.88,3.88,0,0,0,3.35-1.67c0,.24.16,4.32,4.35,4.32h.07a4,4,0,0,0,3.16-1.64A10.06,10.06,0,0,0,16,29c-.28,3.06,2.14,4.57,3.63,4A26.05,26.05,0,0,1,29.75,31.5c1.8.07,3-1.2,3.23-3.26A4.74,4.74,0,0,0,34.78,25.56Z" transform="translate(-1.13 -5.02)"/></g></g></svg>