<svg xmlns="http://www.w3.org/2000/svg" viewBox="0 0 25.87 33.75"><defs><style>.cls-1{fill:#95989b;}.cls-2{fill:#333;}.cls-3{fill:#d0cfd0;}.cls-4{fill:#2babe2;}</style></defs><g id="Layer_2" data-name="Layer 2"><g id="Layer_1-2" data-name="Layer 1"><path class="cls-1" d="M13.86,31.63c-.59-.58-1.44-1.44-2.69-2.69C7.74,25.52,10,23.12,10,23.12L7.37,20.54s-4.28,4.94.6,9.81l3.59,3.59Z" transform="translate(-5.06 -2.21)"/><path class="cls-1" d="M18.94,25.82h4c2.72-6.14-.89-13.83-1-14l-3.24,1.64S21.42,21.16,18.94,25.82Z" transform="translate(-5.06 -2.21)"/><path class="cls-2" d="M25.08,27.5h0a6.52,6.52,0,0,0-12.44,0h0L9.69,36H28Z" transform="translate(-5.06 -2.21)"/><polygon class="cls-2" points="5.72 14.09 19.55 2.35 23.11 6.49 9.29 18.23 5.72 14.09"/><polygon class="cls-1" points="8.63 17.47 6.38 14.85 5.3 16.24 7.08 18.31 8.63 17.47"/><polygon class="cls-1" points="23.84 4.55 21.58 1.93 20.2 3.11 22.46 5.73 23.84 4.55"/><polygon class="cls-2" points="24.49 5.31 20.93 1.17 22.31 0 25.88 4.13 24.49 5.31"/><path class="cls-3" d="M24.38,15.6A3.65,3.65,0,1,1,22.15,11,3.65,3.65,0,0,1,24.38,15.6Z" transform="translate(-5.06 -2.21)"/><ellipse class="cls-3" cx="13.79" cy="27.24" rx="3.65" ry="3.62"/><path class="cls-2" d="M20.34,16.09a1.81,1.81,0,1,0-1.12-2.31A1.82,1.82,0,0,0,20.34,16.09Z" transform="translate(-5.06 -2.21)"/><ellipse class="cls-2" cx="13.79" cy="27.24" rx="1.82" ry="1.81"/><rect class="cls-2" x="8.17" y="17.24" width="0.91" height="9.16" transform="translate(-17.97 10.3) rotate(-45.04)"/><rect class="cls-4" x="8.81" y="16.6" width="0.91" height="9.16" transform="translate(-17.33 10.56) rotate(-45.04)"/></g></g></svg>