<svg xmlns="http://www.w3.org/2000/svg" viewBox="0 0 25.88 33.75"><defs><style>.cls-1{fill:#f39a2d;}.cls-2{fill:#999a9c;}.cls-3{fill:#f7c3d2;}.cls-4{fill:#3e4347;}.cls-5{fill:#fff;}</style></defs><g id="Layer_2" data-name="Layer 2"><g id="Layer_1-2" data-name="Layer 1"><path class="cls-1" d="M10.65,27a6.28,6.28,0,0,0-1.22.55,6.62,6.62,0,0,0-1.1.78,4.49,4.49,0,0,0-.86,1,2.51,2.51,0,0,0-.43,1,1.84,1.84,0,0,0,.17,1,3.5,3.5,0,0,0,.78,1c.17.16.35.3.54.45s.4.27.6.39a7.89,7.89,0,0,0,1.31.63,14.75,14.75,0,0,0,3,.68c1,.15,2.07.26,3.12.39s2.09.28,3.13.46,2.06.38,3.09.62c-1-.14-2.09-.25-3.13-.32s-2.09-.13-3.14-.16-2.09,0-3.16-.08A15.84,15.84,0,0,1,10.07,35a10.46,10.46,0,0,1-1.59-.58c-.25-.12-.5-.26-.75-.4A6.43,6.43,0,0,1,7,33.5a5.14,5.14,0,0,1-1.27-1.35,4.31,4.31,0,0,1-.41-.93,3.65,3.65,0,0,1-.12-1,4.18,4.18,0,0,1,.16-1,4.48,4.48,0,0,1,.37-.9,6.81,6.81,0,0,1,1.09-1.49,9.22,9.22,0,0,1,1.34-1.16,9,9,0,0,1,1.57-.9Z" transform="translate(-5.06 -2.2)"/><ellipse class="cls-2" cx="20" cy="5.83" rx="5.87" ry="5.83"/><path class="cls-3" d="M25,4.41a4.33,4.33,0,1,1-4.35,4.32A4.33,4.33,0,0,1,25,4.41Z" transform="translate(-5.06 -2.2)"/><ellipse class="cls-2" cx="5.87" cy="5.83" rx="5.87" ry="5.83"/><ellipse class="cls-3" cx="5.91" cy="6.53" rx="4.35" ry="4.32"/><path class="cls-2" d="M28.29,26.92a31.71,31.71,0,0,0-3-12.56c-.06-.15-.12-.29-.19-.44-1-2.15-3.23-6.86-7.11-6.86s-6.15,4.71-7.11,6.86c-.07.14-.13.29-.2.44a31.88,31.88,0,0,0-3,12.56c0,4.74,1.52,6,3.88,6.17A1.23,1.23,0,0,0,12.8,34h.87a1.23,1.23,0,0,0,1.23-1c1-.08,2-.17,3.1-.17s2,.08,3,.16a1.22,1.22,0,0,0,1.23,1h.86a1.23,1.23,0,0,0,1.21-.9C26.72,32.94,28.29,31.74,28.29,26.92Z" transform="translate(-5.06 -2.2)"/><ellipse class="cls-3" cx="18.4" cy="17.87" rx="1.81" ry="1.25"/><ellipse class="cls-3" cx="7.48" cy="17.87" rx="1.81" ry="1.25"/><path class="cls-4" d="M19.62,20.07c-.32-.34-1.32-.37-1.62-.37s-1.3,0-1.62.37-.06.85.56,1.38a1.52,1.52,0,0,0,2.12,0C19.67,20.92,19.85,20.32,19.62,20.07Z" transform="translate(-5.06 -2.2)"/><path class="cls-5" d="M14.15,13.58a2.53,2.53,0,1,1-2.59,2.53A2.56,2.56,0,0,1,14.15,13.58Z" transform="translate(-5.06 -2.2)"/><path class="cls-4" d="M14.15,14.36a1.75,1.75,0,1,1-1.8,1.75A1.77,1.77,0,0,1,14.15,14.36Z" transform="translate(-5.06 -2.2)"/><path class="cls-5" d="M21.85,13.58a2.53,2.53,0,1,1-2.59,2.53A2.56,2.56,0,0,1,21.85,13.58Z" transform="translate(-5.06 -2.2)"/><path class="cls-4" d="M21.85,14.36a1.75,1.75,0,1,1-1.8,1.75A1.77,1.77,0,0,1,21.85,14.36Z" transform="translate(-5.06 -2.2)"/><path class="cls-4" d="M17.44,23.18a.7.7,0,0,1,.27-.41,1.28,1.28,0,0,1,.4-.25,1.15,1.15,0,0,1,.46-.11.55.55,0,0,1,.48.15,1.59,1.59,0,0,0-.4.16c-.12.07-.25.13-.38.19l-.4.14C17.74,23.1,17.59,23.12,17.44,23.18Z" transform="translate(-5.06 -2.2)"/></g></g></svg>