<svg xmlns="http://www.w3.org/2000/svg" viewBox="0 0 33.75 19.69"><defs><style>.cls-1{fill:#e94d5c;}.cls-2{fill:#61452b;}.cls-3{fill:#fff;}</style></defs><g id="Layer_2" data-name="Layer 2"><g id="Layer_1-2" data-name="Layer 1"><path class="cls-1" d="M18,13.75c-3.55,0-16.88,5.72-16.88,5.72C4.29,23.35,3.18,28.92,18,28.92c13.32,0,13-4.75,16.88-9.45C34.88,19.47,21.55,13.75,18,13.75Z" transform="translate(-1.13 -9.24)"/><path class="cls-2" d="M18,12.68,3.29,18.62c3.83,4.67,8.16,2.87,14.71,2.87s10.81,1.77,14.71-2.87Z" transform="translate(-1.13 -9.24)"/><path class="cls-3" d="M32.89,18.49c0-1-6.3-5.58-14.89-5.58S3.11,17.53,3.11,18.49Z" transform="translate(-1.13 -9.24)"/><path class="cls-1" d="M25,9.44c-1.42-.43-3.5-.22-6.24.91-.24.08-.48.18-.72.28-.24-.1-.48-.2-.71-.28C14.54,9.22,12.46,9,11,9.44c-4.18,1.24-9.92,10-9.92,10,3.53.43,8.17-4.79,16.88-4.79s13.35,5.22,16.88,4.79C34.88,19.47,29.14,10.68,25,9.44Z" transform="translate(-1.13 -9.24)"/></g></g></svg>