<svg xmlns="http://www.w3.org/2000/svg" viewBox="0 0 26.34 33.75"><defs><style>.cls-1{fill:#ced74d;}.cls-2{fill:#947151;}.cls-3{fill:#8dc043;fill-rule:evenodd;}.cls-4{fill:#7eb53a;}</style></defs><g id="Layer_2" data-name="Layer 2"><g id="Layer_1-2" data-name="Layer 1"><path class="cls-1" d="M26.76,16.69c-2.12-3.46-2-9.38-7.53-9.39s-5,5.93-7.1,9.39c-1.54,2.53-4.63,6-4.63,9.69,0,12.77,23.92,12.77,23.91,0C31.4,22.66,28.31,19.23,26.76,16.69Z" transform="translate(-5.06 -2.21)"/><path class="cls-2" d="M19.78,2.25c-.07-.15-.64.14-.59.29a5.44,5.44,0,0,1-.48,5c-.39.39.5.76.9.2A6.66,6.66,0,0,0,19.78,2.25Z" transform="translate(-5.06 -2.21)"/><path class="cls-3" d="M11.91,4A16.47,16.47,0,0,1,5.06,8.44s8.7,2.15,13.3-2.3a4.57,4.57,0,0,0,1.08-3.39S14.51.9,11.91,4Z" transform="translate(-5.06 -2.21)"/><path class="cls-4" d="M19.44,2.75a9.43,9.43,0,0,0-1.86.2,10.73,10.73,0,0,0-1.92.62,26.48,26.48,0,0,0-3.46,2A19.74,19.74,0,0,1,8.78,7.41a19.06,19.06,0,0,1-3.72,1,15.49,15.49,0,0,0,1.87-.25,15.32,15.32,0,0,0,1.92-.54,17.62,17.62,0,0,0,3.59-1.84,31.66,31.66,0,0,1,3.33-2A11.49,11.49,0,0,1,19.44,2.75Z" transform="translate(-5.06 -2.21)"/></g></g></svg>