<svg xmlns="http://www.w3.org/2000/svg" viewBox="0 0 36 28.12"><defs><style>.cls-1{fill:#689635;}.cls-2{fill:#85be4f;}.cls-3{fill:#ffdd7e;}.cls-4{fill:#676766;}.cls-5{fill:#fff;}</style></defs><g id="Layer_2" data-name="Layer 2"><g id="Layer_1-2" data-name="Layer 1"><path class="cls-1" d="M0,12.55A9.24,9.24,0,0,1,2.61,9.43c3.61-2.37,2.71,5.09,8.15,1.86,2.13-1.27,2.65,1.61,3.87,1.92a26.89,26.89,0,0,0,6.93.34s6.33-1.33,8.33-2.94c1.71-1.38,2.82.12,4.54-.64A2.22,2.22,0,0,1,36,10v8.86H0Z" transform="translate(0 -8.96)"/><path class="cls-2" d="M15.19,12.9a11.51,11.51,0,0,1-6.83-2.11c-2.06-1.57-3.11,3.05-5,3.05S0,11.23,0,11.23V31Z" transform="translate(0 -8.96)"/><path class="cls-2" d="M20.81,12.9s1.39.29,5.29-1.49c1.81-.82,2.32,3.2,3.34,3.23s2.39-2.11,3.72-2.18a4,4,0,0,1,2.84.91V31Z" transform="translate(0 -8.96)"/><polygon class="cls-3" points="21.46 3.94 14.54 3.94 0 18.07 0 28.13 36 28.13 36 18.07 21.46 3.94"/><polygon class="cls-4" points="20.81 3.94 15.19 3.94 0 21.46 0 28.13 36 28.13 36 21.46 20.81 3.94"/><polygon class="cls-5" points="36 24.77 36 22.7 20.59 3.94 20.35 3.94 36 24.77"/><polygon class="cls-5" points="0 24.77 0 22.7 15.41 3.94 15.65 3.94 0 24.77"/><polygon class="cls-5" points="19.02 28.13 16.98 28.13 17.22 21.45 18.78 21.45 19.02 28.13"/><polygon class="cls-5" points="18.64 17.6 17.36 17.6 17.55 11.96 18.45 11.96 18.64 17.6"/><polygon class="cls-5" points="18.4 10.59 17.6 10.59 17.69 8.15 18.31 8.15 18.4 10.59"/><polygon class="cls-5" points="18.29 7.46 17.71 7.46 17.76 6.1 18.24 6.1 18.29 7.46"/><polygon class="cls-5" points="18.23 5.68 17.77 5.68 17.8 4.82 18.2 4.82 18.23 5.68"/><polygon class="cls-5" points="18.19 4.54 17.81 4.54 17.84 3.94 18.16 3.94 18.19 4.54"/></g></g></svg>