<svg xmlns="http://www.w3.org/2000/svg" viewBox="0 0 36 36"><defs><style>.cls-1{fill:#b64153;}.cls-2{fill:#d39761;}.cls-3{fill:#e94d5c;}.cls-4{fill:#eaac6d;}.cls-5{fill:#fbc68a;}</style></defs><g id="Layer_2" data-name="Layer 2"><g id="Layer_1-2" data-name="Layer 1"><polygon class="cls-1" points="12.32 1.25 22.73 1.25 18.03 6.56 12.32 1.25"/><polygon class="cls-2" points="23.18 1.86 12.4 1.86 12.4 0 23.4 0 23.18 1.86"/><path class="cls-3" d="M6.2,3.68,11.9,2l6,4.42L24,2l5.71,1.66A29.43,29.43,0,0,0,35.25,18a17.61,17.61,0,0,1-5.62,8.14A75.75,75.75,0,0,1,26.16,10,23.49,23.49,0,0,1,24,17.2c-1.37,2.87,5,10.33,4.55,18.53A46.8,46.8,0,0,1,18,37.08a46.8,46.8,0,0,1-10.6-1.35c-.44-8.21,5.92-15.66,4.55-18.53A23.49,23.49,0,0,1,9.74,10,76,76,0,0,1,6.28,26.17,53.54,53.54,0,0,1,.65,18,29.39,29.39,0,0,0,6.2,3.68Z" transform="translate(0 -1.08)"/><polygon class="cls-4" points="16.64 6.43 18.03 5.24 12.4 0 11.02 1.2 16.64 6.43"/><path class="cls-5" d="M12.61,13.63l-1.95-.37c.17-.3.36-.62.57-.94A33.2,33.2,0,0,1,16,7,62.29,62.29,0,0,1,23.4,1.08l1.21,1.1a82.08,82.08,0,0,0-7.24,6,31.43,31.43,0,0,0-4.48,5C12.79,13.35,12.7,13.5,12.61,13.63Z" transform="translate(0 -1.08)"/><path class="cls-5" d="M24.77,21.71a48.39,48.39,0,0,0-7.44-.51,50.72,50.72,0,0,0-6.12.32c.53-1.57,1.2-2.68.58-4a25.46,25.46,0,0,1-1.63-4.43,61,61,0,0,0,7.79.49,61.15,61.15,0,0,0,7.8-.49,26.89,26.89,0,0,1-1.63,4.43C23.47,18.89,24.19,20,24.77,21.71Z" transform="translate(0 -1.08)"/><polygon class="cls-4" points="24.14 16.8 10.86 15.16 10.38 12.73 25.2 14.56 24.14 16.8"/><rect class="cls-5" x="11.85" y="20.4" width="2.29" height="15.6"/><polygon class="cls-4" points="24.55 19.61 10.91 20.75 11.65 18.35 23.98 17.3 24.55 19.61"/><polygon class="cls-5" points="6.82 23.37 6.21 25.68 0 17.68 1.2 16.18 6.82 23.37"/><polygon class="cls-5" points="29.14 23.55 29.79 25.83 36 17.83 34.81 16.33 29.14 23.55"/><rect class="cls-5" x="23.08" y="13.28" width="0.99" height="15.6"/><rect class="cls-5" x="21.73" y="15.16" width="0.99" height="15.6"/><rect class="cls-4" x="22.23" y="13.88" width="0.99" height="15.6"/><path class="cls-4" d="M24.28,14.69c0,1-1.2,1.72-1.2,1.72s-1.21-.77-1.21-1.72.54-.41,1.21-.41S24.28,13.74,24.28,14.69Z" transform="translate(0 -1.08)"/><path class="cls-2" d="M22.64,14.78a2.45,2.45,0,0,1,.3,2,2.78,2.78,0,0,1-2.06-.52c-.65-.7.11-.63.6-1S22,14.09,22.64,14.78Z" transform="translate(0 -1.08)"/><path class="cls-5" d="M24.67,16.28a2.36,2.36,0,0,1-1.76.35A2,2,0,0,1,23.25,15c.57-.56.56,0,.95.42S25.24,15.72,24.67,16.28Z" transform="translate(0 -1.08)"/></g></g></svg>