<svg xmlns="http://www.w3.org/2000/svg" viewBox="0 0 33.75 33.75"><defs><style>.cls-1{fill:#8e9ba3;}.cls-2{fill:#3e4347;}.cls-3{fill:#dae4ee;}.cls-4{fill:#f4a19a;}.cls-5{fill:#fff;}</style></defs><g id="Layer_2" data-name="Layer 2"><g id="Layer_1-2" data-name="Layer 1"><path class="cls-1" d="M25.73,21.81A1.74,1.74,0,0,0,24.26,21a1.87,1.87,0,0,0-1.78,1.94v6.94a1.79,1.79,0,1,0,3.57,0V22.91A2,2,0,0,0,25.73,21.81Z" transform="translate(-1.12 -2.2)"/><path class="cls-2" d="M24.26,31.78a1.87,1.87,0,0,0,1.79-1.93H22.48A1.87,1.87,0,0,0,24.26,31.78Z" transform="translate(-1.12 -2.2)"/><path class="cls-1" d="M20.47,22.71a2.28,2.28,0,0,0-2-1.21,2.62,2.62,0,0,0-2.38,2.8v8.85A2.62,2.62,0,0,0,18.51,36a2.61,2.61,0,0,0,2.38-2.8V24.3A3.09,3.09,0,0,0,20.47,22.71Z" transform="translate(-1.12 -2.2)"/><path class="cls-2" d="M18.51,36a2.61,2.61,0,0,0,2.38-2.8H16.13A2.62,2.62,0,0,0,18.51,36Z" transform="translate(-1.12 -2.2)"/><path class="cls-1" d="M13.15,22.71a2.28,2.28,0,0,0-2-1.21,2.62,2.62,0,0,0-2.38,2.8v8.85A2.62,2.62,0,0,0,11.19,36a2.61,2.61,0,0,0,2.38-2.8V24.3A3.09,3.09,0,0,0,13.15,22.71Z" transform="translate(-1.12 -2.2)"/><path class="cls-2" d="M11.19,36a2.61,2.61,0,0,0,2.38-2.8H8.81A2.62,2.62,0,0,0,11.19,36Z" transform="translate(-1.12 -2.2)"/><path class="cls-1" d="M30.44,20a2,2,0,0,0-1.71-1.1,2.35,2.35,0,0,0-2.08,2.56v9.17a2.36,2.36,0,0,0,2.08,2.56,2.36,2.36,0,0,0,2.08-2.56V21.45A2.9,2.9,0,0,0,30.44,20Z" transform="translate(-1.12 -2.2)"/><path class="cls-2" d="M28.73,33.18a2.36,2.36,0,0,0,2.08-2.56H26.65A2.36,2.36,0,0,0,28.73,33.18Z" transform="translate(-1.12 -2.2)"/><ellipse class="cls-3" cx="17.39" cy="18.36" rx="8.16" ry="7.83"/><ellipse class="cls-3" cx="8.16" cy="17.71" rx="8.16" ry="7.83"/><ellipse class="cls-3" cx="27.28" cy="14.76" rx="5.21" ry="4.99"/><ellipse class="cls-3" cx="28.54" cy="19.86" rx="5.21" ry="4.99"/><ellipse class="cls-3" cx="24.9" cy="21.2" rx="5.21" ry="4.99"/><ellipse class="cls-3" cx="8.44" cy="23.3" rx="5.21" ry="4.99"/><ellipse class="cls-3" cx="19.02" cy="23.3" rx="5.21" ry="4.99"/><ellipse class="cls-3" cx="13.73" cy="25.41" rx="5.21" ry="4.99"/><path class="cls-4" d="M26,20.07a8.26,8.26,0,0,0-1-4.83,10.82,10.82,0,0,0-5.32-.92,8.14,8.14,0,0,0,1,4.82A10.69,10.69,0,0,0,26,20.07Z" transform="translate(-1.12 -2.2)"/><path class="cls-2" d="M24.64,18.8a4.55,4.55,0,0,0-.56-2.7,6.07,6.07,0,0,0-3-.52,4.62,4.62,0,0,0,.55,2.7A6,6,0,0,0,24.64,18.8Z" transform="translate(-1.12 -2.2)"/><path class="cls-4" d="M10,14.32a10.87,10.87,0,0,0-5.34.89,8.2,8.2,0,0,0-1,4.81A10.76,10.76,0,0,0,9,19.12,8.24,8.24,0,0,0,10,14.32Z" transform="translate(-1.12 -2.2)"/><path class="cls-2" d="M8.65,15.56a6.13,6.13,0,0,0-3,.51,4.59,4.59,0,0,0-.58,2.7,6,6,0,0,0,3-.5A4.57,4.57,0,0,0,8.65,15.56Z" transform="translate(-1.12 -2.2)"/><path class="cls-4" d="M23.16,15.71c0,6-3.72,10.88-8.31,10.88s-8.3-4.87-8.3-10.88c0-3.49,3.72-3.62,8.3-3.62S23.16,12.22,23.16,15.71Z" transform="translate(-1.12 -2.2)"/><ellipse class="cls-5" cx="9.23" cy="14.76" rx="2.81" ry="2.65"/><path class="cls-2" d="M10.35,15.13a1.84,1.84,0,1,1,0,3.67,1.84,1.84,0,1,1,0-3.67Z" transform="translate(-1.12 -2.2)"/><ellipse class="cls-5" cx="18.23" cy="14.76" rx="2.81" ry="2.65"/><ellipse class="cls-2" cx="18.23" cy="14.76" rx="1.95" ry="1.84"/><path class="cls-2" d="M10.67,22.06c2,.34,2.13.34,3.08,2.27" transform="translate(-1.12 -2.2)"/><path class="cls-2" d="M19,22.06c-2,.34-2.13.34-3.08,2.27" transform="translate(-1.12 -2.2)"/><ellipse class="cls-3" cx="5.12" cy="8.33" rx="4.94" ry="4.74"/><ellipse class="cls-3" cx="22.33" cy="8.33" rx="4.94" ry="4.74"/><ellipse class="cls-3" cx="13.73" cy="6.46" rx="6.74" ry="6.46"/></g></g></svg>