<svg xmlns="http://www.w3.org/2000/svg" viewBox="0 0 33.75 33.75"><defs><style>.cls-1{fill:#e8e8e8;}.cls-2{fill:#fff;}.cls-3{fill:#e94d5c;}.cls-4{fill:#95989b;}.cls-5{fill:#3e4347;}.cls-6{fill:#d0cfd0;}.cls-7{fill:#7ecef5;}</style></defs><g id="Layer_2" data-name="Layer 2"><g id="Layer_1-2" data-name="Layer 1"><path class="cls-1" d="M23.27,2.21a2.09,2.09,0,0,0-1.05.29,2.1,2.1,0,0,0-1.06-.29A1.93,1.93,0,0,0,19.05,3.7a1.58,1.58,0,1,0,1.26,2.53,2,2,0,0,0,.85.19,2.11,2.11,0,0,0,1.06-.3,2.1,2.1,0,1,0,1.05-3.91Z" transform="translate(-1.12 -2.21)"/><path class="cls-1" d="M29.07,7.77a2.1,2.1,0,0,0-1.05.3A2.11,2.11,0,0,0,27,7.77a1.92,1.92,0,0,0-2.1,1.5,1.58,1.58,0,1,0,1.25,2.53A2,2,0,0,0,27,12,2.1,2.1,0,0,0,28,11.69a2.1,2.1,0,1,0,1.05-3.92Z" transform="translate(-1.12 -2.21)"/><path class="cls-2" d="M22.75,11.47v17H27v-17A3,3,0,0,0,22.75,11.47Z" transform="translate(-1.12 -2.21)"/><path class="cls-2" d="M16.42,5.68V22.73h4.22v-17A3.06,3.06,0,0,0,16.42,5.68Z" transform="translate(-1.12 -2.21)"/><path class="cls-3" d="M16.42,6.74v17h4.22v-17A3,3,0,0,0,16.42,6.74Z" transform="translate(-1.12 -2.21)"/><path class="cls-2" d="M16.42,7.79v17h4.22v-17A3.06,3.06,0,0,0,16.42,7.79Z" transform="translate(-1.12 -2.21)"/><path class="cls-3" d="M22.75,12.52V29.57H27v-17A3,3,0,0,0,22.75,12.52Z" transform="translate(-1.12 -2.21)"/><path class="cls-2" d="M22.75,13.58v17H27v-17A3,3,0,0,0,22.75,13.58Z" transform="translate(-1.12 -2.21)"/><polygon class="cls-4" points="31.9 25.78 5.01 25.78 5.01 12.1 6.06 11.05 6.06 9.53 7.12 8.95 7.12 7.79 11.34 5.9 19.77 7.37 31.9 18.67 31.9 25.78"/><polygon class="cls-4" points="18.69 7.37 18.69 9.47 17.67 9.66 17.67 11.58 16.61 11.48 16.61 13.67 15.56 13.68 15.56 16.14 31.9 24.65 31.9 18.67 19.77 7.37 18.69 7.37"/><path class="cls-2" d="M4.82,14.83a6.43,6.43,0,0,0-3.7,3.69,28.23,28.23,0,0,0,3.43,7.1,37.19,37.19,0,0,1,4,9.21V18.93Z" transform="translate(-1.12 -2.21)"/><polygon class="cls-5" points="14.77 14.21 14.77 15.35 12 14.2 14.77 14.21"/><polygon class="cls-5" points="15.82 12.1 15.82 13.06 8.17 12.1 15.82 12.1"/><polygon class="cls-5" points="16.88 10 16.88 10.95 9.23 10 16.88 10"/><polygon class="cls-5" points="17.93 7.89 17.93 8.85 10.28 7.89 17.93 7.89"/><polygon class="cls-2" points="7.12 6.84 7.12 7.89 11.34 6.84 11.34 5.79 7.12 6.84"/><polygon class="cls-1" points="11.34 5.79 11.34 6.84 19.77 7.89 19.77 6.84 11.34 5.79"/><polygon class="cls-6" points="19.77 7.89 19.77 6.84 31.9 18.67 31.9 18.94 19.77 7.89"/><polygon class="cls-2" points="6.06 8.95 6.06 10 10.28 8.95 10.28 7.89 6.06 8.95"/><polygon class="cls-1" points="10.28 7.89 10.28 8.95 18.72 10 18.72 8.95 10.28 7.89"/><polygon class="cls-6" points="18.72 10 18.72 8.95 31.9 20.25 31.9 20.52 18.72 10"/><polygon class="cls-2" points="5.01 11.05 5.01 12.1 9.23 11.05 9.23 10 5.01 11.05"/><polygon class="cls-1" points="9.23 10 9.23 11.05 17.67 12.1 17.67 11.05 9.23 10"/><polygon class="cls-6" points="17.67 12.1 17.67 11.05 31.9 21.83 31.9 22.1 17.67 12.1"/><polygon class="cls-2" points="3.96 13.15 3.96 14.21 8.17 13.15 8.17 12.1 3.96 13.15"/><polygon class="cls-1" points="8.17 12.1 8.17 13.15 16.61 14.21 16.61 13.15 8.17 12.1"/><polygon class="cls-6" points="16.61 14.21 16.61 13.15 31.9 23.41 31.9 23.68 16.61 14.21"/><polygon class="cls-5" points="31.38 19.64 31.38 19.11 19.25 8.39 19.25 9.21 31.38 19.64"/><polygon class="cls-5" points="31.35 21.17 31.35 20.66 18.19 10.43 18.19 11.21 31.35 21.17"/><polygon class="cls-5" points="31.37 22.85 31.37 22.36 17.14 12.45 17.14 13.2 31.37 22.85"/><polygon class="cls-5" points="16.08 14.79 16.08 15.48 31.38 24.25 31.38 23.8 16.08 14.79"/><path class="cls-6" d="M4.82,14.83A22.34,22.34,0,0,0,6,24.41C8.51,31.5,8.38,34.83,8.38,34.83H31.84a8.08,8.08,0,0,1,1.58-3.61A6.38,6.38,0,0,0,34.87,28S11.87,13.13,4.82,14.83Z" transform="translate(-1.12 -2.21)"/><polygon class="cls-5" points="31.67 25.17 14.26 16.68 14.27 18.24 31.67 26.1 31.67 25.17"/><rect class="cls-1" x="30.72" y="23.94" width="0.26" height="1.4"/><rect class="cls-1" x="27.03" y="21.79" width="0.26" height="1.73"/><rect class="cls-1" x="23.07" y="19.45" width="0.26" height="2.49"/><rect class="cls-1" x="18.54" y="17.24" width="0.26" height="3.02"/><path class="cls-3" d="M32.18,27.57c.21.32-.27.41-1.08.21a3.84,3.84,0,0,1-1.86-1c-.22-.31.26-.41,1.07-.21A3.92,3.92,0,0,1,32.18,27.57Z" transform="translate(-1.12 -2.21)"/><path class="cls-3" d="M28.51,25.89c.23.39-.29.53-1.17.32a3.83,3.83,0,0,1-2-1.1c-.24-.38.29-.52,1.17-.31A3.94,3.94,0,0,1,28.51,25.89Z" transform="translate(-1.12 -2.21)"/><path class="cls-3" d="M24.51,24.06c.27.38-.28.53-1.24.34a4.28,4.28,0,0,1-2.22-1c-.27-.38.29-.54,1.24-.34A4.21,4.21,0,0,1,24.51,24.06Z" transform="translate(-1.12 -2.21)"/><path class="cls-3" d="M20.12,22.22c.32.45-.31.66-1.41.47a4.89,4.89,0,0,1-2.58-1.14c-.32-.45.31-.66,1.41-.47A4.82,4.82,0,0,1,20.12,22.22Z" transform="translate(-1.12 -2.21)"/><rect class="cls-1" x="15.16" y="15.51" width="0.26" height="3.63"/><rect class="cls-1" x="19.94" y="17.98" width="0.26" height="2.96"/><rect class="cls-1" x="24.35" y="20.22" width="0.26" height="2.5"/><rect class="cls-1" x="28.26" y="22.5" width="0.26" height="1.93"/><path class="cls-4" d="M3,10S3,9.27,4,9A1.49,1.49,0,0,1,5.6,8.16s-1.3.48-1.2,1.29A1.28,1.28,0,0,0,3,10Z" transform="translate(-1.12 -2.21)"/><path class="cls-4" d="M3.23,4.94s.36-.64,1.38-.28a1.49,1.49,0,0,1,1.79.16s-1.35-.31-1.71.41A1.3,1.3,0,0,0,3.23,4.94Z" transform="translate(-1.12 -2.21)"/><rect class="cls-7" y="30.38" width="33.75" height="3.38"/></g></g></svg>