<svg xmlns="http://www.w3.org/2000/svg" viewBox="0 0 33.75 29.25"><defs><style>.cls-1{fill:#a7c821;}.cls-2{fill:#5b646c;}.cls-3{fill:#333;}.cls-4{fill:#69727a;}.cls-5{fill:#d0cfd0;}</style></defs><g id="Layer_2" data-name="Layer 2"><g id="Layer_1-2" data-name="Layer 1"><path class="cls-1" d="M4.25,8.48s1-1.25,5.2.7C12.76,10.69,3.59,15,2.7,13.26,2.15,12.16,4.25,8.48,4.25,8.48Z" transform="translate(-1.12 -6.71)"/><path class="cls-2" d="M29.26,22.51C24.09,18.88,18.67,8.23,18,8.23A6.69,6.69,0,0,0,14.85,9l12.34,17.9S29.94,23,29.26,22.51Z" transform="translate(-1.12 -6.71)"/><path class="cls-3" d="M31.8,24.19c-.78-.65-3.05-1.13-3.63-1.76-2.36-2.59-7.32-7.16-11.5-14.85C15.12,4.74,8.14,9.72,8.14,9.72L20.41,29.25S34.72,26.62,31.8,24.19Z" transform="translate(-1.12 -6.71)"/><path class="cls-2" d="M20.77,28c.71-.6.66-4,.05-4.83C17,17.72,10.71,9.38,8.22,9.38s-3,3.49-4.48,3.49c-1.26,0,.51-4.39.51-4.39C1.87,11.1,1.5,19.54,1.5,19.54S11.48,36,20.77,28Z" transform="translate(-1.12 -6.71)"/><path class="cls-4" d="M1.5,18.78a14.42,14.42,0,0,1,.72-5.12c.08,3.32,2.15,4.1,1.6,8.51Z" transform="translate(-1.12 -6.71)"/><path class="cls-4" d="M12.5,29c2.57-6,13.69.06,19.3-4.79.9.1,2.72,3.22,2.72,3.22S32.44,35.51,12.5,29Z" transform="translate(-1.12 -6.71)"/><path class="cls-5" d="M1.52,18.51c-.58,0-.47,3.88,0,4.48,3,3.73,6.06,4.66,10.18,9.62,4.94,6,23.17,3.12,23.17-2,0-4.19-.52-3.76-.52-3.76-1.29,3.39-12.85,4.1-17,3.22C8.05,28.18,2.14,18.51,1.52,18.51Z" transform="translate(-1.12 -6.71)"/><path class="cls-3" d="M8.3,10.33a.89.89,0,0,1,.8,1,.89.89,0,0,1-.8,1,.89.89,0,0,1-.8-1A.89.89,0,0,1,8.3,10.33Z" transform="translate(-1.12 -6.71)"/><path class="cls-3" d="M10.6,12.94a.89.89,0,0,1,.79,1,.89.89,0,0,1-.79,1,.89.89,0,0,1-.8-1A.9.9,0,0,1,10.6,12.94Z" transform="translate(-1.12 -6.71)"/><path class="cls-3" d="M12.6,15.4a1,1,0,0,1,0,1.92,1,1,0,0,1,0-1.92Z" transform="translate(-1.12 -6.71)"/><path class="cls-3" d="M14.69,18.51a.9.9,0,0,1,.79,1,.89.89,0,0,1-.79,1,.89.89,0,0,1-.8-1A.9.9,0,0,1,14.69,18.51Z" transform="translate(-1.12 -6.71)"/><path class="cls-3" d="M16.67,20.88a1,1,0,0,1,0,1.93,1,1,0,0,1,0-1.93Z" transform="translate(-1.12 -6.71)"/><path class="cls-3" d="M18.71,23.62a.9.9,0,0,1,.8,1,.81.81,0,1,1-1.59,0A.9.9,0,0,1,18.71,23.62Z" transform="translate(-1.12 -6.71)"/><path class="cls-1" d="M18.75,25.25a.52.52,0,0,1-.39-.2.77.77,0,0,1,0-.93,11.9,11.9,0,0,1,8.92-3.72.61.61,0,0,1,.54.66.6.6,0,0,1-.54.66,11,11,0,0,0-8.15,3.34A.49.49,0,0,1,18.75,25.25Z" transform="translate(-1.12 -6.71)"/><path class="cls-1" d="M22.41,22.23" transform="translate(-1.12 -6.71)"/><path class="cls-1" d="M16.7,22.51a.48.48,0,0,1-.34-.15.76.76,0,0,1-.09-.92c.1-.15,2.49-3.73,9.11-3.73a.61.61,0,0,1,.55.66.62.62,0,0,1-.55.66c-6,0-8.23,3.2-8.25,3.23A.53.53,0,0,1,16.7,22.51Z" transform="translate(-1.12 -6.71)"/><path class="cls-1" d="M14.72,20.14a.49.49,0,0,1-.36-.17.77.77,0,0,1,0-.94c2.71-3.62,9.08-3.66,9.35-3.66a.61.61,0,0,1,.55.66.62.62,0,0,1-.55.66c-.06,0-6.16,0-8.54,3.23A.5.5,0,0,1,14.72,20.14Z" transform="translate(-1.12 -6.71)"/><path class="cls-1" d="M12.63,17a.5.5,0,0,1-.43-.27.75.75,0,0,1,.1-.92c.14-.12,3.39-3,9.45-3a.62.62,0,0,1,.55.66.61.61,0,0,1-.55.66A13.78,13.78,0,0,0,13,16.89.48.48,0,0,1,12.63,17Z" transform="translate(-1.12 -6.71)"/><path class="cls-1" d="M10.63,14.57a.53.53,0,0,1-.43-.25.78.78,0,0,1,.09-.93c.13-.12,3.23-3.05,9.82-3.05a.61.61,0,0,1,.55.66.61.61,0,0,1-.55.67c-6.22,0-9.11,2.73-9.14,2.75A.48.48,0,0,1,10.63,14.57Z" transform="translate(-1.12 -6.71)"/></g></g></svg>