<svg xmlns="http://www.w3.org/2000/svg" viewBox="0 0 30.37 33.75"><defs><style>.cls-1{fill:#d0cfd0;}.cls-2{fill:#cf344a;}.cls-3{fill:#ec6769;}.cls-4{fill:#e94d5c;}.cls-5{fill:#a8213c;}</style></defs><g id="Layer_2" data-name="Layer 2"><g id="Layer_1-2" data-name="Layer 1"><path class="cls-1" d="M7.37,29.62S4.49,32,3.61,32.82C2.28,34.13,1.38,36,11.53,36H33.19V34.33H31s-1.24-3.73-1.51-4.71c-.11-.4-1.78.13-1.59.5.39.77-.24,4.21-.24,4.21H15c-1.32,0-.51-1-.19-2.13l-2.16-.12S13,34.33,9,34.33c-2.5,0-4.48-.39-3.66-1.19s3.15-2.66,3.15-2.66Z" transform="translate(-2.81 -2.21)"/><path class="cls-2" d="M11.36,25a15,15,0,0,0,7.18-7.38c2.27-5.68-.33-13.23-.33-13.23a2.82,2.82,0,0,1,2.57-1.82A2.33,2.33,0,0,1,22.68,4s1.1,12.35-.7,16.11A8.65,8.65,0,0,1,11.36,25Z" transform="translate(-2.81 -2.21)"/><path class="cls-3" d="M30.62,4.15S25.8,1.82,22.91,2.26c-1.94.29-2.53,2.26-2.59,3.2-.19,3.11,1.24,9,.4,12.05-.75,2.66-5.06,7.79-7.93,7.81-.46,0-1.24-.77-1.65-.56-1.38.68-5.75,1.19-5.33,4.06C6.19,31.41,10.34,33,15,33.13c2.32.08,7.07-.84,8.11-4.44.39-1.35,2.13-1.16,2.13-1.16L26.16,31h5.62a37.66,37.66,0,0,0,1.16-8.68c0-4.7-2.43-5.41-3.21-8.34C29.05,11.47,30.62,4.15,30.62,4.15Z" transform="translate(-2.81 -2.21)"/><path class="cls-4" d="M28.39,5.18S26,2.32,23.14,2.75C21.21,3,20.61,5,20.55,6,20.36,9.07,21.79,15,21,18c-.75,2.66-5.06,7.79-7.93,7.81-.46,0-1.24-.76-1.65-.56C10,25.93,5.9,26.7,7.18,29.31c1.42,2.87,12.62,2.95,16.06-3.39,1.25-2.29,3,1.11,4.71.22,2.76-1.42-1.32-6.08-1.61-10.28C26.16,13.22,28.39,5.18,28.39,5.18Z" transform="translate(-2.81 -2.21)"/><ellipse class="cls-5" cx="11.62" cy="24.16" rx="0.75" ry="0.73"/><path class="cls-5" d="M16.9,24.16a.74.74,0,1,1-.74.74A.74.74,0,0,1,16.9,24.16Z" transform="translate(-2.81 -2.21)"/><ellipse class="cls-5" cx="16.36" cy="21.22" rx="0.75" ry="0.73"/><path class="cls-5" d="M21,20.26a.74.74,0,1,1,0,1.47.74.74,0,1,1,0-1.47Z" transform="translate(-2.81 -2.21)"/><ellipse class="cls-5" cx="18.92" cy="15.93" rx="0.75" ry="0.73"/><ellipse class="cls-5" cx="19.78" cy="12.95" rx="0.75" ry="0.73"/><ellipse class="cls-5" cx="19.91" cy="10.43" rx="0.75" ry="0.73"/><path class="cls-5" d="M22.48,9.09a.74.74,0,1,1-.75.73A.74.74,0,0,1,22.48,9.09Z" transform="translate(-2.81 -2.21)"/><path class="cls-5" d="M22.48,5.68a.74.74,0,1,1-.75.74A.75.75,0,0,1,22.48,5.68Z" transform="translate(-2.81 -2.21)"/><path class="cls-1" d="M14.3,26.54a.48.48,0,0,1-.41-.23c-.06-.1-1.4-2.38,0-3.51a.49.49,0,0,1,.68.06.48.48,0,0,1-.06.67c-.62.51,0,1.86.23,2.3a.46.46,0,0,1-.17.64A.47.47,0,0,1,14.3,26.54Z" transform="translate(-2.81 -2.21)"/><path class="cls-1" d="M16.66,25a.52.52,0,0,1-.38-.17c-.07-.1-1.87-2.31-.72-3.7a.5.5,0,0,1,.68-.07.47.47,0,0,1,.07.67c-.55.66.36,2.06.72,2.5a.47.47,0,0,1-.07.67A.49.49,0,0,1,16.66,25Z" transform="translate(-2.81 -2.21)"/><path class="cls-1" d="M18.91,23.64a.48.48,0,0,1-.3-.11c-.22-.17-2.11-1.73-2.16-3.18A1.57,1.57,0,0,1,17,19.11a.49.49,0,0,1,.68,0,.47.47,0,0,1,0,.67.64.64,0,0,0-.23.51c0,.87,1.35,2.11,1.8,2.48a.47.47,0,0,1-.3.84Z" transform="translate(-2.81 -2.21)"/><path class="cls-1" d="M20.78,21.25a.57.57,0,0,1-.18,0c-.26-.1-2.54-1-3-2.39a1.58,1.58,0,0,1,.13-1.34.49.49,0,0,1,.66-.18.48.48,0,0,1,.18.65.62.62,0,0,0-.06.56c.26.72,1.66,1.5,2.48,1.81a.47.47,0,0,1-.17.92Z" transform="translate(-2.81 -2.21)"/><path class="cls-1" d="M21.54,18.52h-.06c-.26,0-2.58-.37-3.28-1.54a1.47,1.47,0,0,1-.08-1.31.48.48,0,0,1,.63-.27A.48.48,0,0,1,19,16a.49.49,0,0,0,0,.49c.34.58,1.76,1,2.57,1.08a.47.47,0,0,1-.07.94Z" transform="translate(-2.81 -2.21)"/><path class="cls-1" d="M20.89,15.72a3.28,3.28,0,0,1-2-.53A1.49,1.49,0,0,1,18.33,14a.49.49,0,0,1,1,0,.49.49,0,0,0,.18.45c.52.44,2,.34,2.79.18a.47.47,0,1,1,.2.92A8.36,8.36,0,0,1,20.89,15.72Z" transform="translate(-2.81 -2.21)"/><path class="cls-1" d="M21,13.26a3.23,3.23,0,0,1-2-.54,1.42,1.42,0,0,1-.53-1.21.48.48,0,0,1,.5-.46.47.47,0,0,1,.46.49.53.53,0,0,0,.19.46c.52.43,2,.33,2.79.17a.49.49,0,0,1,.57.37.48.48,0,0,1-.38.56A8.14,8.14,0,0,1,21,13.26Z" transform="translate(-2.81 -2.21)"/><path class="cls-1" d="M20.76,10.56a3.23,3.23,0,0,1-2-.54,1.42,1.42,0,0,1-.53-1.21.48.48,0,0,1,1,0,.53.53,0,0,0,.19.46c.52.43,2,.34,2.79.17a.49.49,0,0,1,.57.37.48.48,0,0,1-.38.56A8.14,8.14,0,0,1,20.76,10.56Z" transform="translate(-2.81 -2.21)"/></g></g></svg>