<svg xmlns="http://www.w3.org/2000/svg" viewBox="0 0 33.75 33.75"><defs><style>.cls-1{fill:#d0cfd0;}.cls-2{fill:#fff;}.cls-3{fill:#95989b;}</style></defs><g id="Layer_2" data-name="Layer 2"><g id="Layer_1-2" data-name="Layer 1"><path class="cls-1" d="M23.58,22.68c-1.86-1.87-3.14-3.14-5.86-5.86C16,15.05,17.48,10.63,12.89,6,9.63,2.77,4.28,1,2.09,3.17S1.69,10.71,5,14c4.6,4.59,9,3.07,10.79,4.83,2.72,2.72,4,4,5.86,5.86C24,27.1,24.19,27.9,28,33c1.86,2.52,3.64,4.12,5.87,1.9s.62-4-1.9-5.87C26.83,25.27,26,25.12,23.58,22.68Z" transform="translate(-1.12 -2.2)"/><path class="cls-2" d="M8.79,4.4c3,3.9,4,8.39,2.46,11.3l.31.08a3.66,3.66,0,0,0,2.69-1,3.23,3.23,0,0,0,1-2.71,9.08,9.08,0,0,0-2.92-5.24A12.23,12.23,0,0,0,8.79,4.4Z" transform="translate(-1.12 -2.2)"/><path class="cls-3" d="M7.4,14.43C3.52,10.55,2.23,5.52,4.35,2.93a2.81,2.81,0,0,0-1.77.73c-1.75,1.75-.33,6.61,2.87,9.81A11.45,11.45,0,0,0,9.22,16a.16.16,0,0,0,0-.07A16.9,16.9,0,0,1,7.4,14.43Z" transform="translate(-1.12 -2.2)"/></g></g></svg>