<svg xmlns="http://www.w3.org/2000/svg" viewBox="0 0 33.75 33.75"><defs><style>.cls-1{fill:#3e4347;}.cls-2{fill:#b2c1c0;}.cls-3{fill:#e2e9ee;}.cls-4{fill:#fff;}.cls-5,.cls-9{fill:#62727b;}.cls-6{fill:#c94847;}.cls-7{fill:#eb5846;}.cls-10,.cls-8{fill:#fbd0ad;}.cls-10,.cls-9{fill-rule:evenodd;}</style></defs><g id="Layer_2" data-name="Layer 2"><g id="Layer_1-2" data-name="Layer 1"><path class="cls-1" d="M1.65,20.92c.15,0,.27.53.27,1.2s-.12,1.19-.27,1.19-.27-.53-.27-1.19S1.5,20.92,1.65,20.92Z" transform="translate(-1.12 -2.21)"/><rect class="cls-1" x="0.52" y="18.71" width="0.81" height="2.4"/><path class="cls-2" d="M1.65,21.52c.07,0,.13.27.13.6s-.06.59-.13.59-.14-.26-.14-.59S1.57,21.52,1.65,21.52Z" transform="translate(-1.12 -2.21)"/><ellipse class="cls-1" cx="1.54" cy="20.84" rx="0.35" ry="1.53"/><ellipse class="cls-1" cx="2.58" cy="20.84" rx="0.35" ry="1.53"/><rect class="cls-1" x="1.54" y="19.31" width="1.04" height="3.06"/><path class="cls-2" d="M2.67,22.28c.09,0,.17.35.17.77s-.08.76-.17.76-.18-.34-.18-.76S2.57,22.28,2.67,22.28Z" transform="translate(-1.12 -2.21)"/><polygon class="cls-2" points="5.67 23.84 0 18.84 0 13.18 5.67 8.2 5.67 23.84"/><polygon class="cls-3" points="4.24 23.84 1.9 21.61 1.9 19.1 4.24 19.77 4.24 23.84"/><polygon class="cls-4" points="4.24 19.77 1.9 19.1 2.84 19.1 5.67 19.77 4.24 19.77"/><rect class="cls-5" x="5.67" y="8.2" width="7.52" height="15.64"/><rect class="cls-5" x="4.24" y="19.77" width="2.74" height="4.06"/><rect class="cls-6" x="10.85" y="19.77" width="6.92" height="6.64"/><path class="cls-1" d="M16.7,35a1,1,0,0,1-.95,1H13.84a1,1,0,0,1-1-1V26.41a1,1,0,0,1,1-1h1.91a1,1,0,0,1,.95,1Z" transform="translate(-1.12 -2.21)"/><ellipse class="cls-1" cx="30.39" cy="27.42" rx="1.91" ry="4.75"/><ellipse class="cls-1" cx="28.48" cy="27.42" rx="1.91" ry="4.75"/><rect class="cls-1" x="28.24" y="27.42" width="2.39" height="4.75"/><rect class="cls-1" x="5.07" y="20.57" width="1.43" height="5.27"/><path class="cls-1" d="M7.63,22.77c.26,0,.47,1.18.47,2.64S7.89,28,7.63,28s-.48-1.18-.48-2.63S7.36,22.77,7.63,22.77Z" transform="translate(-1.12 -2.21)"/><path class="cls-1" d="M6.19,22.77c.27,0,.48,1.18.48,2.64S6.46,28,6.19,28s-.48-1.18-.48-2.63S5.93,22.77,6.19,22.77Z" transform="translate(-1.12 -2.21)"/><ellipse class="cls-2" cx="5.07" cy="23.2" rx="0.24" ry="1.58"/><path class="cls-2" d="M22.44,2.21a.87.87,0,0,0-.32.06A1.74,1.74,0,0,0,22,3a1.6,1.6,0,0,0,.09.53c.2,0,.39.05.39.26v5.8h.95V3.26A1,1,0,0,0,22.44,2.21Z" transform="translate(-1.12 -2.21)"/><path class="cls-7" d="M33.3,22.62a7.12,7.12,0,0,0-1.32-.8s-.3-2.81-.77-3.41-4.07-1.27-4.79-3a21.94,21.94,0,0,1-1-3s.84,0,.54-.67a5,5,0,0,0-3.05-2.27A3.76,3.76,0,0,0,21,8c-1.17-.34-11-1.88-11.46-.4-1,3.05-1.08,5.95-1.5,14.64,0,0-.89.27-.89,1v3.34L12,29.15c.15-2.74.72-4.78,1.39-4.78s1.43,2.81,1.43,6.28a11.56,11.56,0,0,0,4.74.53c4.07-.2,15.32-1.67,15.32-1.67S35.16,24.64,33.3,22.62Z" transform="translate(-1.12 -2.21)"/><path class="cls-2" d="M31.51,25.39a.49.49,0,0,1-.42.56l-8,.51a.52.52,0,0,1-.53-.49L22,19.61a.46.46,0,0,1,.43-.53h8a.58.58,0,0,1,.54.53Z" transform="translate(-1.12 -2.21)"/><path class="cls-1" d="M10.73,17a.52.52,0,0,0,.48.55h1.43a.52.52,0,0,0,.48-.55V12.59c0-.3-.2-.44-.44-.32L11.17,13a.94.94,0,0,0-.44.77V17Z" transform="translate(-1.12 -2.21)"/><path class="cls-8" d="M29.21,18.4c.53,0,.53,0,0-.09l-7.73-.67a13.36,13.36,0,0,1-1.89-.34l-3-.79c-.51-.14-.54-.06-.06.18L19.16,18a2.47,2.47,0,0,1,1.12,1.43l1.51,6.12c.13.55.18.54.11,0l-.77-6.07a.86.86,0,0,1,.84-1Z" transform="translate(-1.12 -2.21)"/><path class="cls-2" d="M9.54,20.26a1.35,1.35,0,0,1-1.91,0V9.46a1.35,1.35,0,0,1,1.91,0Z" transform="translate(-1.12 -2.21)"/><path class="cls-2" d="M8.1,2.21a.81.81,0,0,0-.31.06A1.6,1.6,0,0,0,7.62,3a1.9,1.9,0,0,0,.09.53c.2,0,.39.05.39.26v5.8h1V3.26A1,1,0,0,0,8.1,2.21Z" transform="translate(-1.12 -2.21)"/><path class="cls-1" d="M23.06,20.62a.59.59,0,0,0,.58.5l2,0a.46.46,0,0,0,.45-.52.59.59,0,0,0-.57-.51l-2,0A.46.46,0,0,0,23.06,20.62Z" transform="translate(-1.12 -2.21)"/><path class="cls-1" d="M23.32,22.68a.59.59,0,0,0,.57.51l2,0a.45.45,0,0,0,.44-.53.57.57,0,0,0-.57-.5l-2,0A.46.46,0,0,0,23.32,22.68Z" transform="translate(-1.12 -2.21)"/><path class="cls-1" d="M23.57,24.74a.58.58,0,0,0,.57.51l2,0a.46.46,0,0,0,.45-.52.59.59,0,0,0-.58-.51l-2,0A.45.45,0,0,0,23.57,24.74Z" transform="translate(-1.12 -2.21)"/><path class="cls-1" d="M27.58,20a.46.46,0,0,0-.44.53.59.59,0,0,0,.57.51l2,0a.45.45,0,0,0,.44-.53.57.57,0,0,0-.57-.5Z" transform="translate(-1.12 -2.21)"/><path class="cls-1" d="M27.39,22.6a.58.58,0,0,0,.57.51l2,0a.46.46,0,0,0,.45-.52.59.59,0,0,0-.58-.51l-2,0A.46.46,0,0,0,27.39,22.6Z" transform="translate(-1.12 -2.21)"/><path class="cls-1" d="M27.64,24.67a.59.59,0,0,0,.58.5l2,0a.46.46,0,0,0,.45-.53.59.59,0,0,0-.57-.51l-2,0A.46.46,0,0,0,27.64,24.67Z" transform="translate(-1.12 -2.21)"/><path class="cls-1" d="M19.61,12l-4.85-.32a.46.46,0,0,0-.45.51v2.71a.53.53,0,0,0,.45.56l5.06.2Z" transform="translate(-1.12 -2.21)"/><path class="cls-1" d="M25.75,15.44l-.93-2.6a.81.81,0,0,0-.62-.52l-3.91-.26.2,3.65,5,.2C25.73,15.93,25.85,15.71,25.75,15.44Z" transform="translate(-1.12 -2.21)"/><path class="cls-4" d="M22.44,29.4A.55.55,0,0,1,22,30l-2.87.18a.48.48,0,0,1-.48-.51V28.8a.55.55,0,0,1,.48-.57L22,28.05a.48.48,0,0,1,.48.51Z" transform="translate(-1.12 -2.21)"/><path class="cls-4" d="M33.91,28.23a.61.61,0,0,1-.48.61l-1.92.26a.45.45,0,0,1-.47-.5v-.74a.62.62,0,0,1,.47-.62L33.43,27a.46.46,0,0,1,.48.5Z" transform="translate(-1.12 -2.21)"/><polygon class="cls-9" points="11 29 6.02 24.79 6.02 22.97 11 26.13 11 29"/><path class="cls-2" d="M12.4,28a.5.5,0,0,0-.47.53v4.22a.5.5,0,0,0,.47.53h.48V28.05H12.4Z" transform="translate(-1.12 -2.21)"/><path class="cls-10" d="M12.4,21.54s4.23-2.46,6,2.75S16.1,21.44,12.4,21.54Z" transform="translate(-1.12 -2.21)"/><path class="cls-10" d="M12,8.55a1.84,1.84,0,0,1,2.78,1.28C15.57,12.24,13.68,8.51,12,8.55Z" transform="translate(-1.12 -2.21)"/></g></g></svg>