<svg viewBox="0 0 22.5 33.75" xmlns="http://www.w3.org/2000/svg"><g transform="translate(-6.75 -2.21)"><path d="m29.25 13.76c0 6.39-5 13.71-11.11 13.71s-11.14-7.32-11.14-13.71a11.33 11.33 0 0 1 11.14-11.55 11.33 11.33 0 0 1 11.11 11.55z" fill="#e94d5c"/><path d="m17.74 28.72a.25.25 0 0 0 0-.08s0 .05 0 .08z" fill="#95989b"/><path d="m18.58 28.74h-.83a3.72 3.72 0 0 1 -1.05 2.91c-1.2 1-2.75.4-4.15.36a6 6 0 0 0 -4.35 1.8 18.78 18.78 0 0 0 -1.29 1.39c-.44.49.14 1.08.59.54a8.79 8.79 0 0 1 2.61-2.41c1.45-.83 2.79-.42 4.37-.33a3.62 3.62 0 0 0 3.94-2.62 7.6 7.6 0 0 0 .16-1.64z" fill="#b2c1c0"/><path d="m17.73 28.64s0-.02 0 0z" fill="#95989b"/><path d="m17.33 28.1h1.67a.36.36 0 1 0 0-.71h-1.67a.36.36 0 1 0 0 .71z" fill="#b2c1c0"/><path d="m16.91 29.18h2.44a.54.54 0 1 0 0-1.08h-2.44a.54.54 0 1 0 0 1.08z" fill="#e94d5c"/></g></svg>