<svg viewBox="0 0 33.75 29.25" xmlns="http://www.w3.org/2000/svg"><g transform="translate(-1.13 -4.46)"><path d="m26.21 24.81c-3.65 5.26-9.45.66-5.8-4.6 6.62-6.37 6.45-15.44 9-15.74 3.12-.38 5.46 9-3.2 20.34z" fill="#f2eacc"/><path d="m3.07 24-1.95 1.65a17.17 17.17 0 0 0 1.62 2.14 16 16 0 0 0 2.77-2.79 13.74 13.74 0 0 1 -2.44-1z" fill="#9c6525"/><path d="m19.25 12.4a7.1 7.1 0 0 0 -6.69 1.82c3.82-2.05 9.48 2.6 8.65 4.08a13.62 13.62 0 0 1 -14.45 7 10.91 10.91 0 0 1 -1.25-.3 16 16 0 0 1 -2.77 2.8c7.92 3.95 17.41 1.62 21.42-6.34 1.64-3.25-1.48-8.18-4.91-9.06z" fill="#fee906"/><path d="m34.87 25.38a7.49 7.49 0 0 0 -4.6-4.75 5.8 5.8 0 0 0 -6.11.82 14.29 14.29 0 0 1 -15.16 7.36 13.83 13.83 0 0 1 -5.05-2.07c-.4.38-.81.73-1.2 1.05a15 15 0 0 0 8.35 4.81 14.76 14.76 0 0 0 13.73-4.66c5.28-6.68 10.04-2.56 10.04-2.56z" fill="#e5c900"/><path d="m19.43 24.21c1.65-1 2.49-2.77 1.88-3.87a1.63 1.63 0 0 0 -.93-.73l-.3.42a1.32 1.32 0 0 1 .68.57c.5.89-.18 2.3-1.52 3.14s-2.73.79-3.27 0l-.63.35c.66 1.09 2.45 1.15 4.09.12z" fill="#f5f4f5"/><path d="m16 23.7c.54.83 2 .86 3.27 0s2-2.25 1.52-3.14a1.32 1.32 0 0 0 -.68-.57 14.36 14.36 0 0 1 -4.11 3.71z" fill="#43ade2"/><path d="m34.87 25.38c.12 3-2.07 7.68-5.81 8.3s4.75-11.15-.91-13.53c0 0 6.5-.01 6.72 5.23z" fill="#fee906"/><path d="m20.2 12.75c-8.35-3.43-11.17 7.11-7 5.86 1.51-.45 2.37-3.56 7-5.86z" fill="#e5c900"/></g></svg>