<svg viewBox="0 0 33.75 25.88" xmlns="http://www.w3.org/2000/svg"><g transform="translate(-1.12 -2.2)"><path d="m15.87 11.35c-3.14 1.39-4.67-3.56-4.67-3.56l-1 .1c-2.38 1.91-3.59-1.41-3.59-1.41l-.94.24c-1.57 3-3.57.12-3.57.12.95 5.72 6.41 11.41 6.41 11.41.94-2.21 4.08 0 6.64-1.48z" fill="#8a8e91"/><path d="m20.13 11.35c3.14 1.39 4.67-3.56 4.67-3.56l1 .1c2.42 1.91 3.63-1.41 3.63-1.41l.94.24c1.57 3 3.57.12 3.57.12-.95 5.72-6.41 11.41-6.41 11.41-.94-2.21-4.08 0-6.64-1.48z" fill="#8a8e91"/><path d="m33.9 6.83a24.9 24.9 0 0 1 -6.12 10.17 1.72 1.72 0 0 0 -1.24-.37 28.58 28.58 0 0 0 3.79-9.91c.2-1.08-.71-1.48-.94-.24a26.35 26.35 0 0 1 -3.95 10.19c-.53 0-1.11.07-1.71.06a29.67 29.67 0 0 0 2-8.84c.07-1.09-.87-1.37-1-.1a28.18 28.18 0 0 1 -2 8.88 6 6 0 0 1 -1.11-.25 8.93 8.93 0 0 0 1-3 1.54 1.54 0 0 1 -.45.45 7.15 7.15 0 0 0 .11-2.11 5.09 5.09 0 0 1 -.35.46 8.12 8.12 0 0 0 -.07-1.7l-.36.63a20.69 20.69 0 0 0 -.78-2.27v1.64a22.69 22.69 0 0 1 -.31-7 .92.92 0 0 0 1.26-.92c0-.78-1.64-.32-1.64-.32a17.2 17.2 0 0 0 -.71 4.17c-1.22-2.77-1.68-2.77-2.9 0a17.2 17.2 0 0 0 -.71-4.17s-1.64-.46-1.64.32a.92.92 0 0 0 1.26.92 22.69 22.69 0 0 1 -.31 7v-1.61a23 23 0 0 0 -.78 2.27l-.24-.63a8.12 8.12 0 0 0 -.07 1.7 5.09 5.09 0 0 1 -.35-.46 7.15 7.15 0 0 0 .11 2.11 1.54 1.54 0 0 1 -.45-.45 8.71 8.71 0 0 0 1 3 5.25 5.25 0 0 1 -1.11.25 28.18 28.18 0 0 1 -2-8.88c-.09-1.27-1-1-1 .1a29.67 29.67 0 0 0 2 8.84c-.6 0-1.18 0-1.71-.06a26.35 26.35 0 0 1 -3.81-10.22c-.23-1.24-1.14-.84-.94.24a28.58 28.58 0 0 0 3.79 9.91 1.72 1.72 0 0 0 -1.24.37 24.93 24.93 0 0 1 -6.12-10.16c-.39-1.19-1.24-.64-.89.39a26.55 26.55 0 0 0 6.71 10.77 1.58 1.58 0 0 0 .88 1.23s-1.53-2.08 3.76-1.59a4.41 4.41 0 0 0 2.25-.35l.06.1a4 4 0 0 0 .42 4c-3.56 2.1-2.61 6.69-2.61 6.69 2.88-.54 4.07-3 4.57-5a2.1 2.1 0 0 0 1.5 0c.5 2 1.69 4.47 4.57 5 0 0 .95-4.59-2.61-6.69a4 4 0 0 0 .42-4l.06-.1a4.41 4.41 0 0 0 2.25.35c5.29-.49 3.76 1.58 3.76 1.58a1.54 1.54 0 0 0 .87-1.22 26.54 26.54 0 0 0 6.72-10.77c.35-1.03-.5-1.58-.89-.4z" fill="#3e4347"/><path d="m19.62 19.4a1.43 1.43 0 0 0 -.13-1.52 1.91 1.91 0 0 1 -.22 1.33z" fill="#fff"/><path d="m16.38 19.4a1.43 1.43 0 0 1 .13-1.52 1.91 1.91 0 0 0 .22 1.33z" fill="#fff"/><g fill="#b2c1c0"><path d="m16.58 19.4a2.5 2.5 0 0 1 1.42-.63 2.5 2.5 0 0 1 1.42.63c.52.4 1.31.07.75.07-1 0-1-1.31-2.17-1.31s-1.21 1.31-2.17 1.31c-.56 0 .23.33.75-.07z"/><path d="m18.57 19.91c.1-.12 0-.49-.17-.58a.18.18 0 0 0 -.16 0 .55.55 0 0 0 0 .58.32.32 0 0 0 .33 0z"/><path d="m17.43 19.91a.32.32 0 0 0 .33 0 .53.53 0 0 0 0-.58.18.18 0 0 0 -.16 0c-.13.09-.27.46-.17.58z"/></g><path d="m19.44 20.48c-.06.64-.68.64-.74 0-.16 0-.27 0-.27.2a.64.64 0 1 0 1.28 0c0-.22-.11-.23-.27-.2z" fill="#fff"/><path d="m17.31 20.48c-.06.64-.69.64-.75 0-.16 0-.26 0-.26.2a.65.65 0 0 0 .63.68.66.66 0 0 0 .64-.68c0-.22-.11-.23-.26-.2z" fill="#fff"/><path d="m15.6 21.83a5.94 5.94 0 0 0 -2 4.65 6.06 6.06 0 0 0 2.88-3.82 4 4 0 0 1 -.88-.83z" fill="#f8c5ce"/><path d="m20.4 21.83a4 4 0 0 1 -.86.84 6 6 0 0 0 2.88 3.81 6 6 0 0 0 -2.02-4.65z" fill="#f8c5ce"/><path d="m15.88 14a.67.67 0 0 0 .19.53 2.5 2.5 0 0 1 .93-1.09.85.85 0 0 0 0 .69 5 5 0 0 1 1-.9 4.7 4.7 0 0 1 1 .9.85.85 0 0 0 0-.69 2.5 2.5 0 0 1 .92 1.11.67.67 0 0 0 .19-.53l.73.89a2.57 2.57 0 0 0 -1.28-1.85 4.21 4.21 0 0 1 .22.67 4.35 4.35 0 0 0 -1.37-1 2.56 2.56 0 0 1 .24.71l-.65-.71-.66.71a2.56 2.56 0 0 1 .24-.71 4.35 4.35 0 0 0 -1.37 1 5.66 5.66 0 0 1 .22-.67 2.57 2.57 0 0 0 -1.28 1.85z" fill="#8a8e91"/></g></svg>