<svg viewBox="0 0 36 24.73" xmlns="http://www.w3.org/2000/svg"><g transform="translate(0 -11.78)"><g fill="#62727b"><path d="m16 29.77a2.46 2.46 0 0 0 2.25 2.53 1.1 1.1 0 0 0 .25 0l10.68-1.11a1.51 1.51 0 0 0 1.45-1.4 1.5 1.5 0 0 0 -1.44-1.4l-10.7-1.12h-.24a2.47 2.47 0 0 0 -2.25 2.5zm-.56 0a3 3 0 0 1 2.81-3.1h.31l10.7 1.12a2 2 0 0 1 0 3.91l-10.66 1.14h-.32a3 3 0 0 1 -2.81-3.07z"/><path d="m23.62 29.77a5.63 5.63 0 1 0 5.63-5.63 5.63 5.63 0 0 0 -5.63 5.63zm-1.12 0a6.75 6.75 0 1 1 6.75 6.75 6.75 6.75 0 0 1 -6.75-6.75z"/><path d="m1.12 29.77a5.63 5.63 0 1 0 5.63-5.63 5.63 5.63 0 0 0 -5.63 5.63zm-1.12 0a6.75 6.75 0 1 1 6.75 6.75 6.75 6.75 0 0 1 -6.75-6.75z"/></g><path d="m24.75 29.77a4.5 4.5 0 1 0 4.5-4.5 4.51 4.51 0 0 0 -4.5 4.5zm-1.13 0a5.63 5.63 0 1 1 5.63 5.62 5.64 5.64 0 0 1 -5.63-5.62z" fill="#43ade2"/><path d="m2.25 29.77a4.5 4.5 0 1 0 4.5-4.5 4.51 4.51 0 0 0 -4.5 4.5zm-1.13 0a5.63 5.63 0 1 1 5.63 5.62 5.64 5.64 0 0 1 -5.63-5.62z" fill="#43ade2"/><path d="m34.47 24.54a7.4 7.4 0 0 0 -12.53 5.24.57.57 0 0 1 -1.13 0 8.53 8.53 0 0 1 14.45-6c.53.46-.26 1.27-.79.76z" fill="#f59b2f"/><path d="m1.53 24.54a7.4 7.4 0 0 1 12.53 5.24.57.57 0 0 0 1.13 0 8.53 8.53 0 0 0 -14.45-6c-.53.46.26 1.27.79.76z" fill="#f59b2f"/><path d="m28.69 29.23a9.45 9.45 0 0 0 -5.34-7.43c-.65-.31-.08-1.28.57-1a10.58 10.58 0 0 1 5.89 8.4c.09.8-1.03.74-1.12.03z" fill="#43ade2"/><path d="m8.72 13.53a8.15 8.15 0 0 1 4.4-1.13.56.56 0 0 1 0 1.12 8.1 8.1 0 0 0 -3.2.62l1.17 1.17a.54.54 0 0 1 .14.54l-.84 2.25c-.26.68-1.34.39-1.09-.29s.49-1.31.74-2l-1.44-1.4a.57.57 0 0 1 .12-.88z" fill="#b2c1c0"/></g><path d="m16.6 24.14h10.67v1.13h-10.67z" fill="#43ade2" transform="matrix(.31614582 -.94871061 .94871061 .31614582 -8.44 25.92)"/><path d="m7.11 30.2c2.68-2.2 1.95-6.31 1.76-7.2l1.37-4.45c1.71.23 8 1.45 11 7l1-.55c-3.85-6.93-12-7.57-12.36-7.6h-.44l-1.74 5.6v.15s1 4.2-1.35 6.2z" fill="#43ade2" transform="translate(0 -11.78)"/><path d="m15.75 12.4h-2.53v1.12h2.53a.28.28 0 0 0 .28-.28v-.56a.29.29 0 0 0 -.28-.28z" fill="#62727b" transform="translate(0 -11.78)"/><circle cx="6.75" cy="17.98" fill="#62727b" r=".56"/><path d="m9.28 18.59a10.42 10.42 0 0 1 3.83 3.83c1.62 2.48 2.87 6.29 6.34 6.69h9.82a.56.56 0 0 1 0 1.11h-9.73c-5.71 0-6.17-8-10.26-10.46z" fill="#43ade2" transform="translate(0 -11.78)"/><circle cx="29.25" cy="17.98" fill="#62727b" r="1.13"/><path d="m22.41 17.39h3.56v1.13h-3.56z" fill="#b2c1c0" transform="matrix(.31614582 -.94871061 .94871061 .31614582 -.49 23.44)"/><path d="m22.86 15.75c2.14 0 2.13-1.17 4-1.17a1.7 1.7 0 0 1 1.25 1c.15.45-.43 1.37-.72 1.74s-.94.81-1.46.51c-.74-.43-1.45-.95-3.41 0-.45.21-1.16-.32-1.13-1.63 0-.41.55-.45 1.47-.45z" fill="#62727b" transform="translate(0 -11.78)"/><path d="m20.24 30.2h1.44a.56.56 0 1 1 0 1.12h-1.44a.56.56 0 0 1 0-1.12z" fill="#62727b" transform="translate(0 -11.78)"/><circle cx="18.56" cy="17.98" fill="#b2c1c0" r="2.25"/><g transform="translate(0 -11.78)"><path d="m18.41 30.31-2.81-1.13c-.66-.26-.37-1.35.3-1.08l2.81 1.12c.67.27.38 1.36-.3 1.09z" fill="#e8e8e8"/><g fill="#62727b"><path d="m15.07 28.06h1.43a.56.56 0 1 1 0 1.12h-1.43a.56.56 0 0 1 0-1.12z"/><path d="m13.78 13.75a.28.28 0 0 1 -.56 0v-1.68a.28.28 0 1 1 .56 0z"/></g></g></svg>