<svg viewBox="0 0 33.75 31.5" xmlns="http://www.w3.org/2000/svg"><g transform="translate(-1.13 -3.33)"><path d="m11.58 9.4c-1.34-2.51-10.24-1.76-10.24-1.76s-1 9 1.53 10.44c1.99 1.07 9.8-6.64 8.71-8.68z" fill="#8a674d"/><path d="m9.91 10.78c-.83-1.56-6.35-1.09-6.35-1.09s-.65 5.6.95 6.47c1.23.66 6.07-4.16 5.4-5.38z" fill="#2a2118"/><path d="m33 18c2.52-1.33 1.77-10.2 1.77-10.2s-9.08-1-10.48 1.53c-1.09 1.98 6.71 9.76 8.71 8.67z" fill="#8a674d"/><path d="m31.62 16.35c1.56-.83 1.09-6.33 1.09-6.33s-5.62-.65-6.5 1c-.67 1.17 4.14 5.98 5.41 5.33z" fill="#2a2118"/><path d="m33.08 23.22c0 9.78-6.75 11.61-15.08 11.61s-15.08-1.83-15.08-11.61 9.27-16.8 15.08-16.8 15.08 7.02 15.08 16.8z" fill="#8a674d"/><path d="m11.06 27.67c-6.68 3.26-4.9-10.67-4.9-10.67-5.16 13.37 1.02 15.52 5.42 14.87z" fill="#fff"/><path d="m24.94 27.67c6.68 3.26 4.9-10.67 4.9-10.67 5.18 13.36-1 15.51-5.42 14.86z" fill="#fff"/><path d="m18 13.8s-1.67-5.65-5.44-6.7a4.15 4.15 0 0 1 2.93-.51 2.08 2.08 0 0 0 -1-1.77s2.39-.52 3.6 1.18a6.84 6.84 0 0 0 -.27-2.7s4 1 5.06 4.37a7.57 7.57 0 0 0 -4.88 6.13z" fill="#5c4534"/><path d="m10.48 17.37c1 0 1.74 1.41 1.74 3.15s-.78 3.15-1.74 3.15-1.74-1.41-1.74-3.15.78-3.15 1.74-3.15z" fill="#2a2118"/><path d="m25.52 17.28c1 0 1.74 1.41 1.74 3.15s-.78 3.15-1.74 3.15-1.74-1.41-1.74-3.15.78-3.15 1.74-3.15z" fill="#2a2118"/><path d="m25.9 29.07c0 4.54-3.54 4-7.9 4s-7.9.52-7.9-4 3.54-6.83 7.9-6.83 7.9 2.28 7.9 6.83z" fill="#f195b1"/><g fill="#7a495b"><path d="m14.48 24.58c1.06 0 1.93 1.58 1.93 3.52s-.87 3.52-1.93 3.52-1.94-1.57-1.94-3.52.87-3.52 1.94-3.52z"/><path d="m21.52 24.58c1.07 0 1.94 1.58 1.94 3.52s-.87 3.52-1.94 3.52-1.93-1.57-1.93-3.52.87-3.52 1.93-3.52z"/></g></g></svg>