<svg viewBox="0 0 36 30.38" xmlns="http://www.w3.org/2000/svg"><path d="m30.92 20.85 4.24 4.15-18.73 8.92s-2.48 1.13-3.64-.68c-4.62-7.16 18.13-12.39 18.13-12.39z" fill="#962c2d" transform="translate(0 -3.89)"/><path d="m16 28.71s-3.63 1.29-3 3.64 3.53 1 3.53 1l17.82-8.35s-1-2.63.81-4.41z" fill="#d9e3e8" transform="translate(0 -3.89)"/><path d="m18.97 0 17.03 16.61-20.13 7.87-12.93-20.17z" fill="#e94d5c"/><path d="m19.47 3.79 3.28 3.48-12.23 4.36-2.89-4.43z" fill="#fff"/><g fill="#95989b"><path d="m34.34 18.57-11.91 4.84 11.69-5.35z"/><path d="m34.16 20-12.66 5.23 12.43-5.74z"/><path d="m34.27 20.84-16.15 6.98 15.92-7.5z"/></g><path d="m12.79 33.24c-2-4.12 3.08-4.86 3.08-4.86l-12.93-20.18a2.82 2.82 0 0 0 -2.94 3 4.65 4.65 0 0 0 .57 2.2z" fill="#c94847" transform="translate(0 -3.89)"/></svg>