<svg viewBox="0 0 33.75 33.75" xmlns="http://www.w3.org/2000/svg"><g transform="translate(-1.12 -2.2)"><path d="m18.9 24s.83-2.36 8 1.77 2.22 5.2.49 7.88-9.39 5.18-9.39-6.53v-3.12z" fill="#e84d88"/><path d="m31.83 6.87c5.33 0 2.43 6.08.54 10.13s.88 7.2-.84 8.73c-2.47 2.22-8.43-3.47-12.48-2v-9.21s5.53-7.65 12.78-7.65z" fill="#71549f"/><path d="m4.17 6.87c-5.33 0-2.43 6.13-.54 10.13s-.88 7.2.84 8.73c2.47 2.22 8.43-3.47 12.47-2v-9.21s-5.52-7.65-12.77-7.65z" fill="#71549f"/><path d="m17.09 24s-.82-2.36-8 1.77-2.21 5.23-.47 7.9 9.38 5.16 9.38-6.55v-3.12z" fill="#e84d88"/><path d="m18 16.57s-6-7.76-10.26-7.76 2.93 3.36 1 5.29c-2.2 2.17-.27 3.1 1 4.33 1.56 1.54-5.77 7.14 4.78 4 2.43-.74 2.06.33 3.53.33z" fill="#ffce35"/><path d="m18 16.57s6-7.76 10.25-7.76-2.94 3.36-1 5.29c2.2 2.17.27 3.1-1 4.33-1.57 1.54 5.77 7.14-4.78 4-2.44-.74-2.06.33-3.53.33z" fill="#ffce35"/><path d="m5 10a.75.75 0 0 1 -.81.67.73.73 0 0 1 -.69-.67.75.75 0 0 1 .81-.67.73.73 0 0 1 .69.67z" fill="#79c6bb"/><path d="m7.31 12.74a1.09 1.09 0 0 1 -1.17 1 1.06 1.06 0 0 1 -1-1.08 1.09 1.09 0 0 1 1.17-1 1.06 1.06 0 0 1 1 1.08z" fill="#ffce35"/><path d="m6.53 15.77a.7.7 0 0 1 -.75.62.68.68 0 0 1 -.68-.69.7.7 0 0 1 .75-.63.68.68 0 0 1 .68.7z" fill="#79c6bb"/><path d="m8.24 18.7a1.22 1.22 0 0 1 -1.24 1.22 1.18 1.18 0 1 1 -.09-2.35 1.23 1.23 0 0 1 1.33 1.13z" fill="#ffce35"/><path d="m7.54 22.13a.74.74 0 0 1 -.74.73.71.71 0 1 1 .74-.73z" fill="#79c6bb"/><path d="m31 10a.74.74 0 0 0 .8.67.73.73 0 0 0 .7-.67.75.75 0 0 0 -.81-.67.73.73 0 0 0 -.69.67z" fill="#79c6bb"/><path d="m28.69 12.74a1.08 1.08 0 0 0 1.17 1 1 1 0 0 0 1-1.08 1.07 1.07 0 0 0 -1.16-1 1.06 1.06 0 0 0 -1.01 1.08z" fill="#ffce35"/><path d="m29.47 15.77a.7.7 0 0 0 .75.62.68.68 0 0 0 .68-.69.7.7 0 0 0 -.75-.63.68.68 0 0 0 -.68.7z" fill="#79c6bb"/><path d="m27.76 18.7a1.28 1.28 0 1 0 1.32-1.13 1.23 1.23 0 0 0 -1.32 1.13z" fill="#ffce35"/><path d="m28.46 22.13a.74.74 0 0 0 .74.73.71.71 0 1 0 -.74-.73z" fill="#79c6bb"/><g fill="#e84d88"><path d="m18.33 17.46s-4.18-4.16-8.33-4.18c0 0 4.52.38 8.37 5.09z"/><path d="m18.57 19.2s-5.51-.39-8.85 2.52a12.52 12.52 0 0 1 9.33-1.79z"/><path d="m18.64 18.29s-5.1-2.43-9.08-.94a12.39 12.39 0 0 1 9.33 1.82z"/><path d="m17.67 17.46s4.18-4.16 8.33-4.18c0 0-4.51.38-8.36 5.09z"/><path d="m17.43 19.2s5.51-.39 8.85 2.52a12.56 12.56 0 0 0 -9.34-1.79z"/><path d="m17.36 18.29s5.1-2.43 9.08-.94a12.39 12.39 0 0 0 -9.33 1.82z"/></g><g fill="#ffce35"><path d="m17.12 23.35s-8.18 2-8.18 4.85c0 2.57 2.27 1.79 2.79 3.53s6.27 4.19 6.27-7.73z"/><path d="m7.53 29.09a.54.54 0 1 1 -.61.54.58.58 0 0 1 .61-.54z"/></g></g><ellipse cx="8.58" cy="29.9" fill="#79c6bb" rx="1.24" ry="1.09"/><g fill="#ffce35" transform="translate(-1.12 -2.2)"><path d="m12.23 33.64a.68.68 0 1 1 -.77.67.72.72 0 0 1 .77-.67z"/><path d="m18.88 23.35s8.18 2 8.18 4.85c0 2.57-2.27 1.79-2.8 3.53s-6.26 4.19-6.26-7.73z"/><path d="m28.47 29.09a.54.54 0 1 1 -.61.54.57.57 0 0 1 .61-.54z"/></g><ellipse cx="25.17" cy="29.9" fill="#79c6bb" rx="1.24" ry="1.09"/><g transform="translate(-1.12 -2.2)"><path d="m23.77 33.64a.68.68 0 1 1 0 1.34.68.68 0 1 1 0-1.34z" fill="#ffce35"/><g fill="#e84d88"><path d="m18.79 24.32c-2.32.64-6.16 2-8.44 4.28a20.08 20.08 0 0 1 8.44-3.83z"/><path d="m18.79 25.73c-1.9 1.26-4.22 3.15-5.29 5.38a16.16 16.16 0 0 1 5.29-4.93z"/><path d="m17.21 24.32c2.32.64 6.16 2 8.44 4.28a20.08 20.08 0 0 0 -8.44-3.83z"/><path d="m17.21 25.73c1.9 1.26 4.22 3.15 5.29 5.38a16.16 16.16 0 0 0 -5.29-4.93z"/></g><g fill="#594640"><path d="m20.11 21.41c0 4-.95 7.27-2.11 7.27s-2.11-3.25-2.11-7.27 0-7.27 2.11-7.27 2.11 3.25 2.11 7.27z"/><path d="m20.11 14.43c0 1.29-.95.35-2.11.35s-2.11.94-2.11-.35a2.11 2.11 0 1 1 4.22 0z"/><path d="m17.92 12.91a17.12 17.12 0 0 1 -.83-2.12c-.07-.2-.1-.41-.16-.63s-.08-.45-.11-.68 0-.47 0-.7.05-.49.08-.75a15.9 15.9 0 0 0 .32-3.4 2.59 2.59 0 0 0 -.68-1.75 2.1 2.1 0 0 0 -.83-.5 3.11 3.11 0 0 0 -.9-.17 3.72 3.72 0 0 0 -1.7.29 2.18 2.18 0 0 0 -1.2 1.09 2.35 2.35 0 0 0 .39 2.57 1.47 1.47 0 0 0 .94.46 1.66 1.66 0 0 0 .76-.17 1.91 1.91 0 0 0 .42-.27l.14-.1-.14.09a1.87 1.87 0 0 1 -.44.24 1.51 1.51 0 0 1 -.74.13 1.38 1.38 0 0 1 -.84-.47 2.14 2.14 0 0 1 -.24-2.35 1.86 1.86 0 0 1 1.08-.87 3.38 3.38 0 0 1 1.52-.18 2.21 2.21 0 0 1 1.37.59 2.13 2.13 0 0 1 .43 1.4 17.13 17.13 0 0 1 -.48 3.24 7 7 0 0 0 -.12.82v.82s.05.53.09.78.09.5.15.72a17.61 17.61 0 0 0 .8 2.27.66.66 0 0 0 .76.47.64.64 0 0 0 .16-.87z"/><path d="m18.08 12.91a18.86 18.86 0 0 0 .83-2.12c.06-.2.1-.41.16-.63s.07-.45.11-.68 0-.47 0-.7a6.85 6.85 0 0 0 -.07-.78 17.3 17.3 0 0 1 -.32-3.4 2.65 2.65 0 0 1 .69-1.75 2.1 2.1 0 0 1 .83-.5 3.11 3.11 0 0 1 .9-.17 3.75 3.75 0 0 1 1.7.29 2.18 2.18 0 0 1 1.2 1.09 2.35 2.35 0 0 1 -.39 2.57 1.47 1.47 0 0 1 -.94.46 1.66 1.66 0 0 1 -.78-.14 1.91 1.91 0 0 1 -.42-.27l-.14-.1.14.09a1.64 1.64 0 0 0 .43.24 1.55 1.55 0 0 0 .75.13 1.41 1.41 0 0 0 .84-.47 2.14 2.14 0 0 0 .24-2.35 1.86 1.86 0 0 0 -1.08-.87 3.42 3.42 0 0 0 -1.53-.18 2.21 2.21 0 0 0 -1.36.59 2.07 2.07 0 0 0 -.43 1.4 16.34 16.34 0 0 0 .47 3.24c0 .27.1.53.13.82s0 .55 0 .82-.05.53-.09.78-.09.5-.15.72a17.61 17.61 0 0 1 -.8 2.27.67.67 0 0 1 -.77.47.65.65 0 0 1 -.15-.87z"/></g></g></svg>