<svg viewBox="0 0 28.13 35.44" xmlns="http://www.w3.org/2000/svg"><g transform="translate(-3.94 -1.64)"><path d="m8.54 18.73a1.7 1.7 0 0 1 -1.71 1.7h-1.19a1.7 1.7 0 0 1 -1.7-1.7v-7.49a2.31 2.31 0 1 1 4.6 0z" fill="#85be4f"/><path d="m13.17 15.86a1.71 1.71 0 0 1 1.71 1.69v1.18a1.71 1.71 0 0 1 -1.71 1.7h-7.53a1.7 1.7 0 0 1 -1.7-1.7v-1.18a1.7 1.7 0 0 1 1.7-1.69z" fill="#85be4f"/><g fill="#689635"><path d="m15.14 17.11v-.66h-6.21a.92.92 0 0 1 -1-1v-4c.07-2.34-1.69-2.69-1.69-2.69s1 .43 1 2.74v4.36a1.13 1.13 0 0 0 1.25 1.25z"/><path d="m7.55 17.81c-.14 0-1-.11-1-1.58v-4.73a8.53 8.53 0 0 0 -.33-2.74 8.53 8.53 0 0 0 -.33 2.74v5.13c0 1.84 1 1.84 1.24 1.84h8v-.66z"/><path d="m5.18 17.6v-6.1c0-2.31 1.06-2.74 1.06-2.74s-1.72.35-1.72 2.74v6.5a1.7 1.7 0 0 0 1.84 1.85h8.82v-.66h-8.44a1.6 1.6 0 0 1 -1.56-1.59z"/></g><path d="m26.12 27.62a2.19 2.19 0 0 0 2.2 2.19h1.54a2.19 2.19 0 0 0 2.2-2.19v-9.69a3 3 0 1 0 -5.94 0z" fill="#85be4f"/><path d="m20.13 23.91a2.2 2.2 0 0 0 -2.2 2.18v1.53a2.19 2.19 0 0 0 2.2 2.19h9.73a2.19 2.19 0 0 0 2.2-2.19v-1.53a2.19 2.19 0 0 0 -2.2-2.18z" fill="#85be4f"/><g fill="#689635"><path d="m17.59 25.53v-.86h8a1.2 1.2 0 0 0 1.28-1.28v-5.11c0-3.09 2.21-3.54 2.21-3.54s-1.37.55-1.37 3.54v5.63a1.45 1.45 0 0 1 -1.6 1.62z"/><path d="m27.39 26.43c.18 0 1.27-.15 1.27-2.05v-6.1a10.91 10.91 0 0 1 .43-3.54 11.15 11.15 0 0 1 .42 3.54v6.62c0 2.38-1.3 2.38-1.6 2.38h-10.38v-.85z"/><path d="m30.45 26.16v-7.88c0-3-1.36-3.54-1.36-3.54s2.21.45 2.21 3.54v8.37a2.2 2.2 0 0 1 -2.36 2.35h-11.41v-.85h10.91a2.07 2.07 0 0 0 2.01-1.99z"/></g><path d="m22.22 37.08h-9.4v-30.38a4.71 4.71 0 1 1 9.4 0z" fill="#85be4f"/><g fill="#689635"><path d="m21 37.08v-29.83c0-4.89-3.5-5.61-3.5-5.61s2.16.88 2.16 5.61v29.83z"/><path d="m18.19 37.08v-29.83a17.6 17.6 0 0 0 -.67-5.61 17.6 17.6 0 0 0 -.67 5.61v29.83z"/><path d="m15.36 37.08v-29.83c0-4.74 2.16-5.61 2.16-5.61s-3.52.72-3.52 5.61v29.83z"/></g></g></svg>