<svg viewBox="0 0 36 31.11" xmlns="http://www.w3.org/2000/svg"><g fill="#212527"><rect height="3.97" rx="1.22" width="7.88" x="4.26" y="3.84"/><rect height="2.12" rx=".65" width="4.21" x="29.92" y="5.02"/><path d="m36 29.39a3.06 3.06 0 0 1 -3.06 3.06h-29.88a3.06 3.06 0 0 1 -3.06-3.06v-.91h36z" transform="translate(0 -3.53)"/></g><path d="m0 12.41a3.06 3.06 0 0 1 3.06-3.06h29.88a3.06 3.06 0 0 1 3.06 3.06v.92h-36z" fill="#52575b" transform="translate(0 -3.53)"/><path d="m0 9.65h36v15.91h-36z" fill="#3e4347"/><g transform="translate(0 -3.53)"><path d="m30.75 11.21h-18l1.81-6.1a2.72 2.72 0 0 1 1.35-1 30.41 30.41 0 0 1 11.72 0 2.8 2.8 0 0 1 1.36 1z" fill="#52575b"/><path d="m29.87 17.74h-16.29l1.63-8.23a2.92 2.92 0 0 1 1.22-1.37c2.49-1 8.1-1 10.58 0a2.89 2.89 0 0 1 1.23 1.37z" fill="#3e4347"/><path d="m34.1 22.26a12.38 12.38 0 1 1 -12.38-12.38 12.37 12.37 0 0 1 12.38 12.38z" fill="#788287"/><path d="m32.72 22.26a11 11 0 1 1 -11-11 11 11 0 0 1 11 11z" fill="#212527"/></g><circle cx="21.72" cy="18.73" fill="#3e4347" r="8.94"/><circle cx="21.72" cy="18.73" fill="#212527" r="4.81"/><g fill="#f5f4f5"><path d="m28.3 18.44a2.77 2.77 0 1 1 -2.77-2.77 2.77 2.77 0 0 1 2.77 2.77z" opacity=".5" transform="translate(0 -3.53)"/><path d="m20 22.26a1.72 1.72 0 1 1 -1.71 1.74 1.72 1.72 0 0 1 1.71-1.74z" opacity=".5" transform="translate(0 -3.53)"/><circle cx="16.91" cy="23.54" opacity=".5" r="1.06"/></g><rect fill="#646c72" height="13.36" rx="1.22" width="7.65" x=".79" y="10.92"/><path d="m5.69 9.76a1.79 1.79 0 1 1 -1.79 1.78 1.78 1.78 0 0 1 1.79-1.78z" fill="#212527" transform="translate(0 -3.53)"/></svg>