<svg viewBox="0 0 33.75 33.75" xmlns="http://www.w3.org/2000/svg"><path d="m20.76 13.87 1.43-10.46c-1.36-.36-2.71-1.21-4.19-1.21s-2.83.85-4.2 1.21-3 .34-4.24 1-2 2.14-3 3.15-2.43 1.78-3.16 3-.67 2.83-1 4.24-1.22 2.72-1.22 4.2.85 2.83 1.22 4.2.33 3 1 4.24 2.14 2 3.16 3 1.77 2.43 3 3.16 2.83.67 4.24 1 2.72 1.4 4.2 1.4 2.83-.84 4.2-1.21 3-.33 4.24-1 2-2.14 3-3.16 2.43-1.77 3.16-3 .67-2.83 1-4.24 1.22-2.72 1.22-4.2a18.74 18.74 0 0 0 -1.19-4.55z" fill="#dda95f" transform="translate(-1.13 -2.2)"/><path d="m33.42 13.68a3.45 3.45 0 0 1 -2.18-.21 3.35 3.35 0 0 1 -2.13-2.53 4.41 4.41 0 0 1 -2.83-.59c-1.34-.84-1.61-3.19-1.61-3.19a3.72 3.72 0 0 1 -2.48-3.75 17 17 0 0 0 -4.19-.27c-1.36 0-2.6.78-3.85 1.11s-2.75.31-3.89 1-1.83 2-2.77 2.89-2.22 1.58-2.89 2.74-.61 2.59-1 3.88-1.11 2.49-1.11 3.85.78 2.6 1.11 3.85.31 2.75 1 3.89 2 1.84 2.89 2.77 1.62 2.22 2.77 2.88 2.6.61 3.89 1 2.49 1.11 3.85 1.11 2.6-.77 3.85-1.11 2.75-.3 3.89-1 1.84-2 2.77-2.89 2.22-1.62 2.89-2.77.61-2.6 1-3.89 1.67-2.24 1.87-3.58c.31-2.31-.79-4.82-.85-5.19z" fill="#f1cb7d" transform="translate(-1.13 -2.2)"/><g fill="#dda95f"><path d="m26.86 6.62h1.09v1.09h-1.09z" transform="matrix(.70710678 -.70710678 .70710678 .70710678 1.83 19.28)"/><path d="m30.74 10.79h.56v.56h-.56z" transform="matrix(.70760026 -.70661296 .70661296 .70760026 .13 22.95)"/><path d="m27.91 8.24h.56v.56h-.56z" transform="matrix(.70760026 -.70661296 .70661296 .70760026 1.1 20.2)"/><path d="m24.39 4.82h.56v.56h-.56z" transform="matrix(.70760026 -.70661296 .70661296 .70760026 2.49 16.72)"/><path d="m31.07 10.31-.39.4-.39-.4.39-.39z"/><path d="m31.82 10.79h.56v.56h-.56z" transform="matrix(.70760026 -.70661296 .70661296 .70760026 .44 23.71)"/></g><g transform="translate(-1.13 -2.2)"><path d="m6.64 12.68c-.54.93.28 2.72 1.38 3.18 1.65.68 2.61.78 3.6-.93a5.4 5.4 0 0 0 .63-2.63c-.25-.56-1.19-1.67-1.8-1.67a5.08 5.08 0 0 0 -3.81 2.05z" fill="#6d4a34"/><path d="m6.91 12.68c-.4.69.64 2.7 1.95 2.55 1.83-.2 1.7-4.07.88-4.07a3.81 3.81 0 0 0 -2.83 1.52z" fill="#a37f6a"/><path d="m25.45 23.07a2.08 2.08 0 0 0 1-2.5c-.53-1.27-1-1.86-2.48-1.46a4.15 4.15 0 0 0 -1.78 1.1c-.18.44-.27 1.56.07 1.9a4 4 0 0 0 3.19.96z" fill="#6d4a34"/><path d="m24.62 21.73c.6-.16 1.55-2.06.54-2.22-1.76-.29-3.11.53-2.92 1.5s1.94.83 2.38.72z" fill="#a37f6a"/><path d="m14 26.12a1.8 1.8 0 0 0 -2.17-.85c-1.11.45-1.61.86-1.26 2.15a3.62 3.62 0 0 0 .95 1.58c.39.16 1.36.23 1.65-.06a3.44 3.44 0 0 0 .83-2.82z" fill="#6d4a34"/><path d="m13 25.6c-.14-.52-2.49.25-2.24 1.1.44 1.5.45 1.77.92 1.66.89-.19 1.45-2.36 1.32-2.76z" fill="#a37f6a"/><path d="m28.74 15.43a1.8 1.8 0 0 0 -.85 2.17c.45 1.11 1.51 1.29 2.69.67a2.31 2.31 0 0 0 .78-2.62c-.83-.84-2.1-.35-2.62-.22z" fill="#6d4a34"/><path d="m28.47 16c-.36.4-.61 2 .24 1.73 1.49-.44 2.58-2 1.9-2.21a2.25 2.25 0 0 0 -2.14.48z" fill="#a37f6a"/></g><path d="m13.11 9.33h1.59v1.59h-1.59z" fill="#6d4a34" transform="matrix(.70710678 -.70710678 .70710678 .70710678 -4.21 10.6)"/><g fill="#dda95f"><path d="m8.58 19.13h1.59v1.59h-1.59z" transform="matrix(.70685991 -.70735356 .70735356 .70685991 -12.47 10.27)"/><path d="m19.85 25.5h1.59v1.59h-1.59z" transform="matrix(.70710678 -.70710678 .70710678 .70710678 -13.67 20.1)"/><path d="m18.44 22.09h2.15v2.15h-2.15z" transform="matrix(.70710678 -.70710678 .70710678 .70710678 -11.79 18.38)"/><path d="m14.35 5.54h2.15v2.15h-2.15z" transform="matrix(.70710678 -.70710678 .70710678 .70710678 -1.28 10.64)"/></g><g fill="#6d4a34"><path d="m23.48 26.34h1.59v1.59h-1.59z" transform="matrix(.70710678 -.70710678 .70710678 .70710678 -13.2 22.91)"/><path d="m27.94 20.12h1.59v1.59h-1.59z" transform="matrix(.70710678 -.70710678 .70710678 .70710678 -7.49 24.24)"/><path d="m23.7 14.53h.8v.8h-.8z" transform="matrix(.70710678 -.70710678 .70710678 .70710678 -4.62 19.21)"/><path d="m7.85 22.21h.8v.8h-.8z" transform="matrix(.70710678 -.70710678 .70710678 .70710678 -14.69 10.25)"/></g></svg>