<svg viewBox="0 0 33.75 33.75" xmlns="http://www.w3.org/2000/svg"><g transform="translate(-1.13 -2.2)"><g fill="#7ecef5"><path d="m14.3 22.31a.8.8 0 0 0 .18 1.32c.52.23 2.23-.52 4.45 3.05-.62-4.45-3.85-5.03-4.63-4.37z"/><path d="m34.14 22.59a.8.8 0 0 1 -.14 1.32c-.53.23-2.23-.52-4.46 3.05.59-4.45 3.82-5.03 4.6-4.37z"/><path d="m34 17.36a.67.67 0 0 1 .22 1.09c-.35.32-1.88.2-2.64 3.6-.78-3.65 1.59-4.98 2.42-4.69z"/></g><path d="m30.83 13.18c-.46 2.51-3.23.6-4.86-1.08s-2.81-3.19-1-5 6.8-2.1 8.43-.43-1.98 3.23-2.57 6.51z" fill="#36a8c2"/><path d="m30.45 13.12c-.76-4.85-6.61-10.92-14.06-10.92s-15.08 7.29-9.57 12.88c0 0-6.68.35-4 1.75 6.39 3.34 9.85-1 9.91-1 2.27-3.83 6.74-4 9.79.17s3.19 10.19-1.67 12.63c-2.62 1.32-3.05.5-2.78-.59-.8.63-1.63 1.17-2.29 1.63-1.08-1.48-3.23-4.17-4.78-4.17-2.2 0 .85 5.23.85 5.23s-3.08 5.27-.85 5.27c1.64 0 3.9-2.91 4.94-4.39 5 .84 16.94-2.96 14.51-18.49z" fill="#3fbcd4"/><path d="m20.85 28.67c4.86-2.44 4.72-8.42 1.67-12.63s-7.52-4.04-9.8-.26a.46.46 0 0 1 -.06.1c-.77 1.23-1.89 1.39-2.95 1.84a1.2 1.2 0 0 1 -.73.93c-1.08.6-1.78 1.05-1.1 2 2.5 3.43 7.27-3.4 11.44.32 3.19 2.83 1.1 5.31-1.25 7.13-.27 1.07.16 1.9 2.78.57z" fill="#c5ccd6"/><path d="m21.31 15.25c1-2.37-1.4-3.11-3.13-3.11s-3.12.24-3.12 3.11 2.53 7.27 4.26 7.27.61-4.19 1.99-7.27z" fill="#36a8c2"/><path d="m12.72 15.78c.08 2.44-2.33 5.08-3.89 4.67a.63.63 0 0 1 -.55-.74c.08-.46.73-.76 1.16-1.11a2 2 0 0 0 .54-1 15.89 15.89 0 0 0 2.74-1.82z" fill="#19647a"/><path d="m12.41 17.59c-.68 1.43-1.08 1.86-1.67 1.62s-.38-1.72.21-2.13c0 0 .48-.34 1.77-1.3a4.17 4.17 0 0 1 -.31 1.81z" fill="#ed6f7f"/></g><circle cx="10.35" cy="9.94" fill="#fff" r="2.53"/><circle cx="10.35" cy="9.94" fill="#3e4347" r="1.69"/><g transform="translate(-1.13 -2.2)"><path d="m11.56 15.78s-.09-6.06 4.58-4.78z" fill="#3fbcd4"/><path d="m32.46 28.4c-1.33 0-1.53-.88-2.41-.88s-1.08.88-2.41.88-1.53-.88-2.41-.88-1.08.88-2.41.88-1.53-.88-2.41-.88-1.08.88-2.41.88-1.53-.88-2.41-.88-1.08.88-2.41.88-1.53-.88-2.41-.88-1.08.88-2.41.88-1.53-.88-2.36-.88-1.08.88-2.41.88a4.29 4.29 0 0 1 -2.42-.88v8.48h33.71v-8.48a4.29 4.29 0 0 1 -2.42.88z" fill="#7ecef5"/><g fill="#43ade2"><path d="m13.37 34.47c-3.84.53-6.44-2.58-10.37-.84 3-.18 7.64 2.21 10.38.84z"/><path d="m19.92 31.13c-3.83.49-6.46-2.63-10.39-.84 3.05-.21 7.64 2.22 10.39.84z"/><path d="m26.47 34.47c-3.84.5-6.44-2.58-10.39-.84 3-.18 7.67 2.21 10.39.84z"/><path d="m33 31.13c-3.82.49-6.45-2.62-10.38-.84 3.06-.21 7.63 2.22 10.38.84z"/></g></g></svg>