<svg viewBox="0 0 33.75 28.12" xmlns="http://www.w3.org/2000/svg"><g transform="translate(-1.13 -5.02)"><path d="m33.46 9.8a4.3 4.3 0 0 0 -3.68-3.91c-2-.33-4 .34-4.46 2-.25-2.17-2.18-2.89-4.54-2.89s-4.21 1.11-4.44 3.23c-.58-1.23-2.07-1.64-3.84-1.59h-.07c-1.72 0-3.2.65-3.77 2a2.84 2.84 0 0 0 -2.35.06c-1.31.42-3.74 2.44-4.73 6.62-.77 3.22.28 7.68.28 7.68a3.62 3.62 0 0 0 3.43 3.81 3.71 3.71 0 0 0 3.52-2v.65a4.07 4.07 0 0 0 4.17 4h.07a4.07 4.07 0 0 0 3.77-2.83 4.53 4.53 0 0 0 9-.84 4.2 4.2 0 0 0 4.18 3.56h.07c2.33-.05 4.81-2.32 4.77-4.64a94.92 94.92 0 0 1 -1.38-14.91z" fill="#ffdd67"/><path d="m34.78 25.56a4.22 4.22 0 0 1 -3.15 1.58h-.07a5.53 5.53 0 0 1 -.69 0h-.34a7 7 0 0 1 -4-2 25 25 0 0 0 .21-3.85c0-1.39-.11-2.75-.17-4.11s-.11-2.71 0-4.11a10 10 0 0 0 -.64 2 16.28 16.28 0 0 0 -.3 2.08 36 36 0 0 0 -.1 4.15c0 1.37.08 2.72 0 4.05a7.28 7.28 0 0 1 -.27 2.14c-.45.95-1.8 1.15-2.94 1.18a5.52 5.52 0 0 1 -4.9-2.86v-.06c.07-.59.15-1.19.22-1.8a33.87 33.87 0 0 0 .2-3.64 26.51 26.51 0 0 0 -.24-3.67c-.09-.6-.2-1.21-.34-1.81a13.83 13.83 0 0 0 -.56-1.83c-.05.62-.06 1.23-.08 1.84s0 1.2 0 1.81v3.6s0 2.4.07 3.61c0 .51.06 2 .11 2.63a4.11 4.11 0 0 1 -2.79 1.2h-.07a4.9 4.9 0 0 1 -4.4-3.23 1 1 0 0 0 0-.17c.08-1 .15-2.09.2-3.14a26.46 26.46 0 0 0 0-3.21 11.38 11.38 0 0 0 -.2-1.62 7.27 7.27 0 0 0 -.22-.8 3.39 3.39 0 0 0 -.18-.39 1 1 0 0 0 -.25-.33 1.78 1.78 0 0 1 .07.39v.39s0 .52-.05.78c0 .52-.11 1-.17 1.56-.11 1.05-.21 2.1-.26 3.17a21.68 21.68 0 0 0 .08 3.22s0 .06 0 .09a4.13 4.13 0 0 1 -2.39.6c-5.69 0-4.48-8.31-3.71-11.53a13.53 13.53 0 0 1 .43-1.47 10.39 10.39 0 0 0 -1.31 3.31c-.77 3.23-1.12 11.54 3.71 11.54a3.88 3.88 0 0 0 3.35-1.67c0 .24.16 4.32 4.35 4.32h.07a4 4 0 0 0 3.16-1.64 10.06 10.06 0 0 0 -.22 1.14c-.28 3.06 2.14 4.57 3.63 4a26.05 26.05 0 0 1 10.12-1.5c1.8.07 3-1.2 3.23-3.26a4.74 4.74 0 0 0 1.8-2.68z" fill="#eba353"/></g></svg>