<svg viewBox="0 0 33.75 33.75" xmlns="http://www.w3.org/2000/svg"><g transform="translate(-1.12 -2.21)"><path d="m13.71 23.37c-4.25-4.25-9.41-6-11.6-3.95a11 11 0 0 1 10.73-2.65l14.57-14.56a10.93 10.93 0 0 1 7.46 7.46l-14.56 14.56a11 11 0 0 1 -2.65 10.77c2.05-2.22.34-7.38-3.95-11.63z" fill="#3e4347"/><path d="m13.71 23.37c-3.18-3.18-7.47-4.06-9.64-2 2.92-2.85 6.64-4.14 9.71-3.66l14.57-14.57a6.46 6.46 0 0 1 5.59 5.59l-14.57 14.57c.48 3.07-.81 6.79-3.66 9.71 2.06-2.17 1.18-6.46-2-9.64z" fill="#676e72"/><path d="m5.93 31.15c-4.28-4.28-6.02-9.48-3.93-11.64l.1-.09c2.18-2.05 7.34-.3 11.59 3.95s6 9.41 3.95 11.59l-.09.1c-2.14 2.11-7.34.37-11.62-3.91z" fill="#f7e822"/><path d="m9.63 27.45c-2.06-2.06-2.9-4.57-1.88-5.61 1-1 3.53-.14 5.58 1.91s2.88 4.52 1.9 5.57c-1.04 1.03-3.54.19-5.6-1.87z" fill="#fef5ad"/><path d="m10.07 27c-1-1-1.35-2.14-.88-2.63.5-.46 1.66-.06 2.62.89s1.35 2.12.89 2.62a0 0 0 0 0 0 0c-.49.48-1.7.12-2.63-.88z" fill="#fff"/></g><path d="m16.05 9.44h4.79v1.43h-4.79z" fill="#3e4347" transform="matrix(.70723018 -.70698336 .70698336 .70723018 -2.9 13.81)"/><path d="m17.35 9.2h2.69v1.43h-2.69z" fill="#676e72" transform="matrix(.70710678 -.70710678 .70710678 .70710678 -2.66 13.92)"/></svg>