<svg viewBox="0 0 21.38 33.75" xmlns="http://www.w3.org/2000/svg"><path d="m.56 14.63h20.25v.56h-20.25z" fill="#3e4347"/><path d="m25.88 14.86v8.26c0 5.92-3.78 8.37-7.88 8.37s-7.88-2.49-7.88-8.37v-8.26h-1.12v8.14c0 6.77 4.31 9.57 9 9.57s9-2.8 9-9.57v-8.14z" fill="#95989b" transform="translate(-7.31 -2.21)"/><path d="m9.56 30.38h2.25v2.25h-2.25z" fill="#95989b"/><path d="m11.81 15.17v7.29a6.08 6.08 0 0 0 6.19 6.18 6.08 6.08 0 0 0 6.19-6.18v-7.29z" fill="#3e4347" transform="translate(-7.31 -2.21)"/><path d="m9 28.13h3.38v2.81h-3.38z" fill="#3e4347"/><g transform="translate(-7.31 -2.21)"><path d="m18 2.21c-3.48 0-6.19 2.14-6.19 5.62v7.3h12.38v-7.3c0-3.48-2.71-5.62-6.19-5.62z" fill="#95989b"/><path d="m18 2.66c-3.2 0-5.68 2.07-5.68 5.43v7h11.36v-7c0-3.36-2.48-5.43-5.68-5.43z" fill="#d0cfd0"/><path d="m25.88 36h-15.76a20.37 20.37 0 0 1 7.88-1.73 20.37 20.37 0 0 1 7.88 1.73z" fill="#3e4347"/></g><path d="m3.94 12.94h13.5v3.94h-13.5z" fill="#b0b8b8"/><g fill="#3e4347"><path d="m3.38 12.66h14.63v1.13h-14.63z"/><path d="m3.38 14.34h14.63v1.13h-14.63z"/><path d="m3.38 16.03h14.63v1.13h-14.63z"/><path d="m0 13.22h1.13v3.38h-1.13z"/><path d="m20.25 13.22h1.13v3.38h-1.13z"/></g><g fill="#95989b" transform="translate(-7.31 -2.21)"><path d="m14.23 13.76a.75.75 0 0 1 -1.49.06.76.76 0 0 1 .74-.68.67.67 0 0 1 .75.62z"/><path d="m17.24 13.71a.73.73 0 0 1 -.74.73.73.73 0 1 1 0-1.45.73.73 0 0 1 .74.72z"/><path d="m20.27 13.73a.76.76 0 0 1 -.77.71.73.73 0 1 1 0-1.45.77.77 0 0 1 .77.74z"/><path d="m23.26 13.82a.75.75 0 0 1 -1.49-.06.67.67 0 0 1 .75-.62.76.76 0 0 1 .74.68z"/><path d="m14.18 10.17a.88.88 0 0 1 -.73.81c-.4.07-.71-.13-.71-.47a1 1 0 0 1 .7-.83.54.54 0 0 1 .74.49z"/><path d="m17.22 9.83a.78.78 0 0 1 -.76.76.69.69 0 0 1 -.78-.65.83.83 0 0 1 .76-.79.7.7 0 0 1 .78.68z"/><path d="m20.32 9.94a.69.69 0 0 1 -.78.65.79.79 0 0 1 -.76-.76.7.7 0 0 1 .78-.68.83.83 0 0 1 .76.79z"/><path d="m23.26 10.51c0 .34-.31.54-.71.47a.88.88 0 0 1 -.73-.81.54.54 0 0 1 .74-.49 1 1 0 0 1 .7.83z"/><path d="m15.71 11.84a.78.78 0 0 1 -.75.75.68.68 0 0 1 -.76-.59.83.83 0 0 1 .74-.77.66.66 0 0 1 .77.61z"/><path d="m18.77 11.77a.77.77 0 1 1 -.77-.77.75.75 0 0 1 .77.77z"/><path d="m21.8 12a.68.68 0 0 1 -.76.62.78.78 0 0 1 -.75-.75.66.66 0 0 1 .77-.64.83.83 0 0 1 .74.77z"/><path d="m15.66 8.05a.91.91 0 0 1 -.75.84c-.42.07-.75-.15-.76-.52a1 1 0 0 1 .73-.87.6.6 0 0 1 .78.55z"/><path d="m18.79 7.89a.79.79 0 0 1 -1.58 0 .79.79 0 0 1 1.58 0z"/><path d="m21.85 8.38c0 .36-.34.58-.76.51a.91.91 0 0 1 -.75-.84.6.6 0 0 1 .78-.55 1 1 0 0 1 .73.88z"/><path d="m14.12 6.58a1.11 1.11 0 0 1 -.7.94c-.39.15-.69 0-.68-.31a1.27 1.27 0 0 1 .67-1c.38-.21.71 0 .71.37z"/><path d="m17.2 6a.84.84 0 0 1 -.78.8.64.64 0 0 1 -.79-.59.9.9 0 0 1 .77-.85.67.67 0 0 1 .8.64z"/><path d="m20.37 6.16a.64.64 0 0 1 -.79.59.85.85 0 0 1 -.78-.75.67.67 0 0 1 .8-.64.9.9 0 0 1 .77.8z"/><path d="m23.26 7.21c0 .33-.29.46-.68.31a1.14 1.14 0 0 1 -.71-.94c0-.37.34-.55.72-.36a1.27 1.27 0 0 1 .67.99z"/><path d="m15.6 4.27a1 1 0 0 1 -.75.92c-.42.13-.75 0-.75-.41a1.13 1.13 0 0 1 .73-1 .53.53 0 0 1 .77.49z"/><path d="m18.81 4a.82.82 0 0 1 -1.62 0 .81.81 0 0 1 1.62 0z"/><path d="m21.9 4.78c0 .37-.33.54-.75.41a1 1 0 0 1 -.75-.92.53.53 0 0 1 .77-.47 1.13 1.13 0 0 1 .73.98z"/></g></svg>