<svg viewBox="0 0 25.87 33.75" xmlns="http://www.w3.org/2000/svg"><g transform="translate(-5.06 -2.21)"><path d="m13.86 31.63c-.59-.58-1.44-1.44-2.69-2.69-3.43-3.42-1.17-5.82-1.17-5.82l-2.63-2.58s-4.28 4.94.6 9.81l3.59 3.59z" fill="#95989b"/><path d="m18.94 25.82h4c2.72-6.14-.89-13.83-1-14l-3.24 1.64s2.72 7.7.24 12.36z" fill="#95989b"/><path d="m25.08 27.5a6.52 6.52 0 0 0 -12.44 0l-2.95 8.5h18.31z" fill="#333"/></g><path d="m5.72 14.09 13.83-11.74 3.56 4.14-13.82 11.74z" fill="#333"/><path d="m8.63 17.47-2.25-2.62-1.08 1.39 1.78 2.07z" fill="#95989b"/><path d="m23.84 4.55-2.26-2.62-1.38 1.18 2.26 2.62z" fill="#95989b"/><path d="m24.49 5.31-3.56-4.14 1.38-1.17 3.57 4.13z" fill="#333"/><path d="m24.38 15.6a3.65 3.65 0 1 1 -2.23-4.6 3.65 3.65 0 0 1 2.23 4.6z" fill="#d0cfd0" transform="translate(-5.06 -2.21)"/><ellipse cx="13.79" cy="27.24" fill="#d0cfd0" rx="3.65" ry="3.62"/><g fill="#333"><path d="m20.34 16.09a1.81 1.81 0 1 0 -1.12-2.31 1.82 1.82 0 0 0 1.12 2.31z" transform="translate(-5.06 -2.21)"/><ellipse cx="13.79" cy="27.24" rx="1.82" ry="1.81"/><path d="m8.17 17.24h.91v9.16h-.91z" transform="matrix(.70661296 -.70760026 .70760026 .70661296 -17.97 10.3)"/></g><path d="m8.81 16.6h.91v9.16h-.91z" fill="#2babe2" transform="matrix(.70661296 -.70760026 .70760026 .70661296 -17.33 10.56)"/></svg>