<svg viewBox="0 0 33.75 33.75" xmlns="http://www.w3.org/2000/svg"><g transform="translate(-1.12 -2.2)"><path d="m3.69 2.51c-2 1.82-.41 6.06-.41 6.06-2.28 2.62-1.59 7.19-1.59 7.19l2.78-7.45c-.39-4.08 1.17-5.25 1.17-5.25.24-.63-1.2-1.24-1.95-.55z" fill="#6c992e"/><path d="m4.25 2.94c-1.65 1.51-.08 5.49-.08 5.49-2.3 2.62-1.53 5.06-1.57 6.57l11.21-6.66c-1.21-3.28-8.14-1.51-8.14-1.51-1.48-2.42 0-3.77 0-3.77a2.25 2.25 0 0 1 -1.42-.12z" fill="#8dc043"/><path d="m24.11 28.07c-5.47-5.21-6.11-9.47-6.11-14.18 0-3.71-2.27-6.35-4.67-6.8-1.21-.23-5-.4-3.77.76s-4.56.21-4.56 2.66c0 1.74-1.49-.33-3.17 4-1.74 4.49-.05 7.6 2.52 10.42 4.93 5.4 16.55 15.22 28.53 9.07 6.17-3.18-3.47-.88-8.77-5.93z" fill="#e84041"/></g></svg>