<svg viewBox="0 0 33.75 33.75" xmlns="http://www.w3.org/2000/svg"><g transform="translate(-1.13 -2.21)"><path d="m29.25 10.08h-22.5c-2.07 0-5.63 2.86-5.63 6.08s1.27 15.3 1.27 15.3h31.22s1.27-12.09 1.27-15.3-3.56-6.08-5.63-6.08z" fill="#e8e8e8"/><path d="m3.94 31.46v2.25a1.12 1.12 0 0 0 1.12 1.12h25.88a1.12 1.12 0 0 0 1.12-1.12v-2.25z" fill="#b2c1c0"/><path d="m27.37 10.08h-18.75c-1.72 0-4.68 2.86-4.68 6.08s1.06 15.3 1.06 15.3h26s1.05-12.09 1.05-15.3-2.95-6.08-4.68-6.08z" fill="#b2c1c0"/><path d="m29.25 29.21c0 1.23-.25 2.25-.56 2.25h-21.38c-.31 0-.56-1-.56-2.25s.25-1.69.56-1.69h21.38c.31 0 .56.48.56 1.69z" fill="#62727b"/><path d="m29.17 33.73a20.61 20.61 0 0 1 -2.8-4.52h-16.74a20.61 20.61 0 0 1 -2.8 4.52c-2.11 2.73 1.47 2.18 3.86 2.18h14.62c2.39 0 5.97.55 3.86-2.18z" fill="#e8e8e8"/><g fill="#b2c1c0"><path d="m11.19 30.51a23.65 23.65 0 0 1 -2.19 3.95c-.18.28.29.53.47.25a23.94 23.94 0 0 0 2.21-4.07c.16-.3-.37-.43-.49-.13z"/><path d="m14.46 30.51a24.53 24.53 0 0 1 -1.09 4c-.1.31.43.44.53.13a26.72 26.72 0 0 0 1.09-4c.01-.31-.47-.45-.53-.13z"/><path d="m21 30.65a26.92 26.92 0 0 0 1.09 4c.1.31.63.18.53-.13a24.53 24.53 0 0 1 -1.09-4c-.05-.33-.53-.19-.53.13z"/><path d="m24.28 30.65a24.24 24.24 0 0 0 2.21 4.06c.18.28.65 0 .47-.25a23.65 23.65 0 0 1 -2.15-3.95c-.12-.3-.65-.17-.53.14z"/><path d="m17.73 30.58v4c0 .32.54.32.54 0v-4c0-.32-.54-.32-.54 0z"/></g><path d="m9.49 11.21a3 3 0 0 0 -1.33 2.53c0 .54 0 .84 3.28.84h13.12c3.28 0 3.28-.3 3.28-.84a3 3 0 0 0 -1.33-2.53z" fill="#62727b"/><path d="m25.31 2.21h-14.62a1.13 1.13 0 0 0 -1.13 1.12v9h16.88v-9a1.13 1.13 0 0 0 -1.13-1.12z" fill="#b2c1c0"/><path d="m24.75 3.33h-13.5a.56.56 0 0 0 -.56.56v8.44h14.62v-8.44a.56.56 0 0 0 -.56-.56z" fill="#e8e8e8"/><path d="m18 5.58a4.49 4.49 0 0 1 -3.63-1.85 3.94 3.94 0 0 0 7.26 0 4.49 4.49 0 0 1 -3.63 1.85z" fill="#b2c1c0"/></g><path d="m10.69 3.94h12.38v6.19h-12.38z" fill="#fff"/><ellipse cx="16.88" cy="14.06" fill="#e8e8e8" rx="11.81" ry=".56"/><circle cx="27" cy="18" fill="#eb5846" r=".56"/><circle cx="27" cy="20.25" fill="#c5d659" r=".56"/><path d="m23.58 29.21h-11.16a10.62 10.62 0 0 1 -1.73 4.5h14.62a10.62 10.62 0 0 1 -1.73-4.5z" fill="#fff" transform="translate(-1.13 -2.21)"/><rect fill="#c5d659" height="3.38" rx=".56" width="5.06" x="5.63" y="17.44"/><g fill="#62727b" transform="translate(-1.13 -2.21)"><path d="m7.31 24.42h1.13a.54.54 0 0 0 .47-.28.58.58 0 0 1 .09.28.57.57 0 0 1 -.56.57h-1.13a.57.57 0 0 1 -.56-.57.58.58 0 0 1 .09-.28.54.54 0 0 0 .47.28z"/><path d="m10.12 24.42h1.13a.56.56 0 0 0 .48-.28.56.56 0 0 1 -.48.85h-1.13a.55.55 0 0 1 -.47-.85.54.54 0 0 0 .47.28z"/></g></svg>