<svg viewBox="0 0 33.75 33.75" xmlns="http://www.w3.org/2000/svg"><g transform="translate(-1.13 -2.21)"><path d="m34.88 4.74v-2.53a27.41 27.41 0 0 0 -27.47 27.35h2.59a24.87 24.87 0 0 1 24.88-24.82z" fill="#ec6568"/><path d="m10 29.56h2.54a22.34 22.34 0 0 1 22.33-22.29v-2.53a24.87 24.87 0 0 0 -24.87 24.82z" fill="#f9ef84"/><path d="m34.88 9.81v-2.54a22.34 22.34 0 0 0 -22.38 22.29h2.5a19.79 19.79 0 0 1 19.88-19.75z" fill="#a6cb6c"/><path d="m15 29.56h2.54a17.25 17.25 0 0 1 17.33-17.22v-2.53a19.79 19.79 0 0 0 -19.87 19.75z" fill="#73bcea"/><path d="m34.88 14.87v-2.53a17.26 17.26 0 0 0 -17.3 17.22h2.55a14.71 14.71 0 0 1 14.75-14.69z" fill="#7e7bb9"/><path d="m5.7 35.2a3.79 3.79 0 0 1 -2.5-6.65 3.28 3.28 0 0 1 .69-.48l.25-.88a5.2 5.2 0 0 1 5-3.72 5 5 0 0 1 .73.06 6.18 6.18 0 0 1 .62.12l.1-.18a5.25 5.25 0 0 1 9.78 2.53v.41.1a5.38 5.38 0 0 1 .64.31 4.47 4.47 0 0 1 -1.23 8.26 4.44 4.44 0 0 1 -1 .12z" fill="#fff"/><path d="m15.14 20a6 6 0 0 0 -5.07 2.77h-.13a5.18 5.18 0 0 0 -.84-.07 6 6 0 0 0 -5.7 4.3l-.17.6a4.19 4.19 0 0 0 -.54.4 4.53 4.53 0 0 0 1.58 7.74 4.34 4.34 0 0 0 1.43.26h13a5.3 5.3 0 0 0 1.19-.14 5.23 5.23 0 0 0 1.44-9.66l-.19-.2a6 6 0 0 0 -6-6zm0 1.51a4.46 4.46 0 0 1 4.47 4.49v.36a4.74 4.74 0 0 0 -2.71 1.12 3.77 3.77 0 0 1 1.84-.48 3.57 3.57 0 0 1 .74.07 3.78 3.78 0 0 1 3 3.66 3.74 3.74 0 0 1 -2.91 3.63 4 4 0 0 1 -.85.1h-13.02a3.31 3.31 0 0 1 -1-.15 3 3 0 0 1 -1-5.17 3.12 3.12 0 0 1 1-.58 3 3 0 0 1 1-.17 3 3 0 0 1 2.42 1.18 4.17 4.17 0 0 0 -3.25-2.17 4.39 4.39 0 0 1 4.22-3.17 4.23 4.23 0 0 1 .63.05 4.43 4.43 0 0 1 1.16.33 4.38 4.38 0 0 1 2.57 3.39 4.91 4.91 0 0 0 -2.23-4.11 4.48 4.48 0 0 1 3.92-2.3" fill="#7ecef5"/></g></svg>