<svg viewBox="0 0 36 36" xmlns="http://www.w3.org/2000/svg"><path d="m12.32 1.25h10.41l-4.7 5.31z" fill="#b64153"/><path d="m23.18 1.86h-10.78v-1.86h11z" fill="#d39761"/><path d="m6.2 3.68 5.7-1.68 6 4.42 6.1-4.42 5.71 1.66a29.43 29.43 0 0 0 5.54 14.34 17.61 17.61 0 0 1 -5.62 8.14 75.75 75.75 0 0 1 -3.47-16.14 23.49 23.49 0 0 1 -2.16 7.2c-1.37 2.87 5 10.33 4.55 18.53a46.8 46.8 0 0 1 -10.55 1.35 46.8 46.8 0 0 1 -10.6-1.35c-.44-8.21 5.92-15.66 4.55-18.53a23.49 23.49 0 0 1 -2.21-7.2 76 76 0 0 1 -3.46 16.17 53.54 53.54 0 0 1 -5.63-8.17 29.39 29.39 0 0 0 5.55-14.32z" fill="#e94d5c" transform="translate(0 -1.08)"/><path d="m16.64 6.43 1.39-1.19-5.63-5.24-1.38 1.2z" fill="#eaac6d"/><path d="m12.61 13.63-1.95-.37c.17-.3.36-.62.57-.94a33.2 33.2 0 0 1 4.77-5.32 62.29 62.29 0 0 1 7.4-5.92l1.21 1.1a82.08 82.08 0 0 0 -7.24 6 31.43 31.43 0 0 0 -4.48 5c-.1.17-.19.32-.28.45z" fill="#fbc68a" transform="translate(0 -1.08)"/><path d="m24.77 21.71a48.39 48.39 0 0 0 -7.44-.51 50.72 50.72 0 0 0 -6.12.32c.53-1.57 1.2-2.68.58-4a25.46 25.46 0 0 1 -1.63-4.43 61 61 0 0 0 7.79.49 61.15 61.15 0 0 0 7.8-.49 26.89 26.89 0 0 1 -1.63 4.43c-.65 1.37.07 2.48.65 4.19z" fill="#fbc68a" transform="translate(0 -1.08)"/><path d="m24.14 16.8-13.28-1.64-.48-2.43 14.82 1.83z" fill="#eaac6d"/><path d="m11.85 20.4h2.29v15.6h-2.29z" fill="#fbc68a"/><path d="m24.55 19.61-13.64 1.14.74-2.4 12.33-1.05z" fill="#eaac6d"/><g fill="#fbc68a"><path d="m6.82 23.37-.61 2.31-6.21-8 1.2-1.5z"/><path d="m29.14 23.55.65 2.28 6.21-8-1.19-1.5z"/><path d="m23.08 13.28h.99v15.6h-.99z"/><path d="m21.73 15.16h.99v15.6h-.99z"/></g><path d="m22.23 13.88h.99v15.6h-.99z" fill="#eaac6d"/><g transform="translate(0 -1.08)"><path d="m24.28 14.69c0 1-1.2 1.72-1.2 1.72s-1.21-.77-1.21-1.72.54-.41 1.21-.41 1.2-.54 1.2.41z" fill="#eaac6d"/><path d="m22.64 14.78a2.45 2.45 0 0 1 .3 2 2.78 2.78 0 0 1 -2.06-.52c-.65-.7.11-.63.6-1s.52-1.17 1.16-.48z" fill="#d39761"/><path d="m24.67 16.28a2.36 2.36 0 0 1 -1.76.35 2 2 0 0 1 .34-1.63c.57-.56.56 0 .95.42s1.04.3.47.86z" fill="#fbc68a"/></g></svg>