<svg viewBox="0 0 36 36" xmlns="http://www.w3.org/2000/svg"><g transform="translate(0 -1.08)"><path d="m4.69 1.59a1.77 1.77 0 0 1 2.49 0l28.31 28.31a1.77 1.77 0 0 1 0 2.49l-4.18 4.18a1.77 1.77 0 0 1 -2.49 0l-28.31-28.31a1.77 1.77 0 0 1 0-2.49z" fill="#f8db7c"/><g fill="#ebc463"><path d="m21.56 24c-9.07-9.08-16.05-16.81-15.56-17.27.13-.13.86.34 2 1.29-1.79-1.85-3.38-3.57-4.7-5.02l-1.57 1.56c2.51 2.26 5.62 5.23 8.94 8.54 7.66 7.66 13.46 14.27 13 14.76s-7.11-5.31-14.76-13c-3.34-3.27-6.3-6.38-8.56-8.86a1.76 1.76 0 0 0 .16 2.26l14.62 14.61c.82-.59 5.72 3.17 11.06 8.51 1.88 1.89 3.57 3.72 4.94 5.33l.18-.14 1.69-1.64c-3.12-2.79-7.13-6.63-11.44-10.93z"/><path d="m4.69 1.59-.13.13c2.44 2.13 5.44 4.99 8.63 8.21 7.09 7.1 12.47 13.23 12 13.69-.12.12-.61-.15-1.39-.73 4.07 4.09 7.7 7.88 10.36 10.81l1.32-1.31.09-.12c-.94-.9-2-1.91-3-3-4.35-4.35-7.69-8-7.46-8.28s3.93 3.12 8.27 7.46c.94.94 1.82 1.84 2.64 2.69a1.78 1.78 0 0 0 -.51-1.27l-28.33-28.28a1.77 1.77 0 0 0 -2.49 0z"/></g></g><g fill="#8a674d"><path d="m2.15 3.9h6.6v1.28h-6.6z" transform="matrix(.70673644 -.70747692 .70747692 .70673644 -1.61 4.11)"/><path d="m6.78 4.54h3.3v1.28h-3.3z" transform="matrix(.70710678 -.70710678 .70710678 .70710678 -1.19 6.39)"/><path d="m8.58 6.34h3.3v1.28h-3.3z" transform="matrix(.70710678 -.70710678 .70710678 .70710678 -1.94 8.2)"/><path d="m10.39 8.15h3.3v1.28h-3.3z" transform="matrix(.70735356 -.70685991 .70685991 .70735356 -2.69 10)"/><path d="m9.38 11.12h6.6v1.28h-6.6z" transform="matrix(.70735356 -.70685991 .70685991 .70735356 -4.6 11.32)"/><path d="m14 11.76h3.3v1.28h-3.3z" transform="matrix(.70661296 -.70760026 .70760026 .70661296 -4.18 13.63)"/><path d="m15.81 13.57h3.3v1.28h-3.3z" transform="matrix(.70735356 -.70685991 .70685991 .70735356 -4.93 15.41)"/><path d="m17.61 15.37h3.3v1.28h-3.3z" transform="matrix(.70735356 -.70685991 .70685991 .70735356 -5.68 17.22)"/><path d="m16.6 18.35h6.6v1.28h-6.6z" transform="matrix(.70673644 -.70747692 .70747692 .70673644 -7.6 18.57)"/><path d="m21.23 18.99h3.3v1.28h-3.3z" transform="matrix(.70735356 -.70685991 .70685991 .70735356 -7.18 20.83)"/><path d="m23.03 20.79h3.3v1.28h-3.3z" transform="matrix(.70685991 -.70735356 .70735356 .70685991 -7.92 22.66)"/><path d="m24.84 22.6h3.3v1.28h-3.3z" transform="matrix(.70735356 -.70685991 .70685991 .70735356 -8.67 24.44)"/><path d="m23.83 25.57h6.6v1.28h-6.6z" transform="matrix(.70747692 -.70673644 .70673644 .70747692 -10.59 25.76)"/><path d="m28.45 26.21h3.3v1.28h-3.3z" transform="matrix(.70624236 -.70797015 .70797015 .70624236 -10.17 28.12)"/><path d="m30.26 28.02h3.3v1.28h-3.3z" transform="matrix(.70747692 -.70673644 .70673644 .70747692 -10.92 29.85)"/><path d="m32.06 29.82h3.3v1.28h-3.3z" transform="matrix(.70710678 -.70710678 .70710678 .70710678 -11.67 31.68)"/><path d="m5.85 7.06a1.47 1.47 0 1 1 -1.46 1.47 1.47 1.47 0 0 1 1.46-1.47z" transform="translate(0 -1.08)"/></g><path d="m6.06 7.38a1.35 1.35 0 1 1 -1.35 1.35 1.36 1.36 0 0 1 1.35-1.35z" fill="#fff" transform="translate(0 -1.08)"/><circle cx="12.37" cy="13.96" fill="#8a674d" r="1.46"/><path d="m12.58 13.9a1.35 1.35 0 1 1 -1.35 1.35 1.35 1.35 0 0 1 1.35-1.35z" fill="#fff" transform="translate(0 -1.08)"/><circle cx="27.72" cy="30.39" fill="#8a674d" r="1.46" transform="matrix(.16 -.99 .99 .16 -6.72 51.81)"/><path d="m27.93 29.25a1.35 1.35 0 1 1 -1.35 1.35 1.36 1.36 0 0 1 1.35-1.35z" fill="#fff" transform="translate(0 -1.08)"/></svg>