<svg viewBox="0 0 33.75 33.75" xmlns="http://www.w3.org/2000/svg"><g transform="translate(-1.12 -2.2)"><g fill="#feecd7"><path d="m6.4 3.51c-5.4-3.79-6.55 1.49-3.91 5.49 2.56-1.36 3.27-4.1 3.91-5.49z"/><path d="m6.37 13.6a29.35 29.35 0 0 0 4.46-8.26 4 4 0 0 0 -3.76-1.52 9.67 9.67 0 0 1 -2.43 3.87c-.64.72-1.14 1.54-1.78 2.18-1 2-.26 5.42.92 6.44a17.22 17.22 0 0 0 2.59-2.71z"/><path d="m21.72 31.69c2 0 13 1.42 13-3.15-.04-10.54-1.38-19.33-14.42-19.33-1.49 4-2.43 3.69-.89 0-.89-2.83-5-4.85-8.14-3.63a25.9 25.9 0 0 1 -4 8 30.13 30.13 0 0 1 -3.27 3.69c0 9.12 9.87 14.42 17.72 14.42z"/></g><path d="m7.3 3.77a1.66 1.66 0 0 1 -1.1-.4 12.64 12.64 0 0 1 -3.91 5.27 2.23 2.23 0 0 1 .31 1.86 17.37 17.37 0 0 0 4.7-6.73z" fill="#dcb19a"/><path d="m13.9 17.88c-1 1.12 19 18.17 19 16.48a17.69 17.69 0 0 0 -.35-3c0-1 1.49-5-.21-7.34-.72-1-3.53-4.86-4.23-5.93s-5.81-2.67-7-2.82-6.23 1.46-7.26 2.58" fill="#29251c"/><path d="m33.05 28.48c-.57-.42-5-.48-7.23-1.56-3.23-1.56-5.89-2.63-6.76-5a26.94 26.94 0 0 1 -1.46-5.81c-.06-.64-3.56 1.65-3.69 1.8-1 1.12-.91 3.35.21 6s4.8 6 5.39 6.08 4.7 3.45 6.33 3.69 2 .13 2.41.47 1.21 1 1.68 1c.29 0 1.45.81 2.21.41.9-.14.91-1.71.79-3.39s.88-3.17.12-3.73" fill="#c1875d"/><path d="m29.34 33.83c-3.1-.26-12.71-4.93-14.65-10-.84-2.18.26-5.32.17-6.44-.06-.64-.83.32-1 .46a7.7 7.7 0 0 0 -1.16 7.05c2.75 7 14.9 11 17.25 11a5.72 5.72 0 0 0 2.37-.42 4.18 4.18 0 0 0 -2.98-1.65z" fill="#fcd5bb"/><g fill="#dcb19a"><path d="m11.67 5.42a1.28 1.28 0 0 1 -1.27-.5c-1.25 3.95-5.45 9.77-7 11a5.08 5.08 0 0 1 .6 2.08c1.94-1.91 6.41-7.24 7.67-12.58z"/><path d="m17.44 16.31a36.93 36.93 0 0 0 3.56-7.09 3.12 3.12 0 0 1 -1.75-.43 53.63 53.63 0 0 1 -4.47 8z"/><path d="m13.4 18.9a12.89 12.89 0 0 1 5.52-2c7.35-.5 13.52 7.64 13.91 11.51.09.88-.78 2.06-.78 2.78a4.63 4.63 0 0 0 .95 2.97 7.71 7.71 0 0 1 .65-2.86c.12-.23 1.28-2 1.26-2.87-.11-7.61-9.4-14.26-14.93-13.87a10.11 10.11 0 0 0 -6 2.84c-1 .86-.94 2.08-.51 1.5"/></g></g></svg>