<svg viewBox="0 0 33.75 29.25" xmlns="http://www.w3.org/2000/svg"><g transform="translate(-1.12 -6.71)"><path d="m4.25 8.48s1-1.25 5.2.7c3.31 1.51-5.86 5.82-6.75 4.08-.55-1.1 1.55-4.78 1.55-4.78z" fill="#a7c821"/><path d="m29.26 22.51c-5.17-3.63-10.59-14.28-11.26-14.28a6.69 6.69 0 0 0 -3.15.77l12.34 17.9s2.75-3.9 2.07-4.39z" fill="#5b646c"/><path d="m31.8 24.19c-.78-.65-3.05-1.13-3.63-1.76-2.36-2.59-7.32-7.16-11.5-14.85-1.55-2.84-8.53 2.14-8.53 2.14l12.27 19.53s14.31-2.63 11.39-5.06z" fill="#333"/><path d="m20.77 28c.71-.6.66-4 .05-4.83-3.82-5.45-10.11-13.79-12.6-13.79s-3 3.49-4.48 3.49c-1.26 0 .51-4.39.51-4.39-2.38 2.62-2.75 11.06-2.75 11.06s9.98 16.46 19.27 8.46z" fill="#5b646c"/><path d="m1.5 18.78a14.42 14.42 0 0 1 .72-5.12c.08 3.32 2.15 4.1 1.6 8.51z" fill="#69727a"/><path d="m12.5 29c2.57-6 13.69.06 19.3-4.79.9.1 2.72 3.22 2.72 3.22s-2.08 8.08-22.02 1.57z" fill="#69727a"/><path d="m1.52 18.51c-.58 0-.47 3.88 0 4.48 3 3.73 6.06 4.66 10.18 9.62 4.94 6 23.17 3.12 23.17-2 0-4.19-.52-3.76-.52-3.76-1.29 3.39-12.85 4.1-17 3.22-9.3-1.89-15.21-11.56-15.83-11.56z" fill="#d0cfd0"/><g fill="#333"><path d="m8.3 10.33a.89.89 0 0 1 .8 1 .89.89 0 0 1 -.8 1 .89.89 0 0 1 -.8-1 .89.89 0 0 1 .8-1z"/><path d="m10.6 12.94a.89.89 0 0 1 .79 1 .89.89 0 0 1 -.79 1 .89.89 0 0 1 -.8-1 .9.9 0 0 1 .8-1z"/><path d="m12.6 15.4a1 1 0 0 1 0 1.92 1 1 0 0 1 0-1.92z"/><path d="m14.69 18.51a.9.9 0 0 1 .79 1 .89.89 0 0 1 -.79 1 .89.89 0 0 1 -.8-1 .9.9 0 0 1 .8-1z"/><path d="m16.67 20.88a1 1 0 0 1 0 1.93 1 1 0 0 1 0-1.93z"/><path d="m18.71 23.62a.9.9 0 0 1 .8 1 .81.81 0 1 1 -1.59 0 .9.9 0 0 1 .79-1z"/></g><g fill="#a7c821"><path d="m18.75 25.25a.52.52 0 0 1 -.39-.2.77.77 0 0 1 0-.93 11.9 11.9 0 0 1 8.92-3.72.61.61 0 0 1 .54.66.6.6 0 0 1 -.54.66 11 11 0 0 0 -8.15 3.34.49.49 0 0 1 -.38.19z"/><path d="m16.7 22.51a.48.48 0 0 1 -.34-.15.76.76 0 0 1 -.09-.92c.1-.15 2.49-3.73 9.11-3.73a.61.61 0 0 1 .55.66.62.62 0 0 1 -.55.66c-6 0-8.23 3.2-8.25 3.23a.53.53 0 0 1 -.43.25z"/><path d="m14.72 20.14a.49.49 0 0 1 -.36-.17.77.77 0 0 1 0-.94c2.71-3.62 9.08-3.66 9.35-3.66a.61.61 0 0 1 .55.66.62.62 0 0 1 -.55.66c-.06 0-6.16 0-8.54 3.23a.5.5 0 0 1 -.45.22z"/><path d="m12.63 17a.5.5 0 0 1 -.43-.27.75.75 0 0 1 .1-.92c.14-.12 3.39-3 9.45-3a.62.62 0 0 1 .55.66.61.61 0 0 1 -.55.66 13.78 13.78 0 0 0 -8.75 2.76.48.48 0 0 1 -.37.11z"/><path d="m10.63 14.57a.53.53 0 0 1 -.43-.25.78.78 0 0 1 .09-.93c.13-.12 3.23-3.05 9.82-3.05a.61.61 0 0 1 .55.66.61.61 0 0 1 -.55.67c-6.22 0-9.11 2.73-9.14 2.75a.48.48 0 0 1 -.34.15z"/></g></g></svg>