<svg viewBox="0 0 30.37 33.75" xmlns="http://www.w3.org/2000/svg"><g transform="translate(-2.81 -2.21)"><path d="m7.37 29.62s-2.88 2.38-3.76 3.2c-1.33 1.31-2.23 3.18 7.92 3.18h21.66v-1.67h-2.19s-1.24-3.73-1.51-4.71c-.11-.4-1.78.13-1.59.5.39.77-.24 4.21-.24 4.21h-12.66c-1.32 0-.51-1-.19-2.13l-2.16-.12s.35 2.25-3.65 2.25c-2.5 0-4.48-.39-3.66-1.19s3.15-2.66 3.15-2.66z" fill="#d0cfd0"/><path d="m11.36 25a15 15 0 0 0 7.18-7.38c2.27-5.68-.33-13.23-.33-13.23a2.82 2.82 0 0 1 2.57-1.82 2.33 2.33 0 0 1 1.9 1.43s1.1 12.35-.7 16.11a8.65 8.65 0 0 1 -10.62 4.89z" fill="#cf344a"/><path d="m30.62 4.15s-4.82-2.33-7.71-1.89c-1.94.29-2.53 2.26-2.59 3.2-.19 3.11 1.24 9 .4 12.05-.75 2.66-5.06 7.79-7.93 7.81-.46 0-1.24-.77-1.65-.56-1.38.68-5.75 1.19-5.33 4.06.38 2.59 4.53 4.18 9.19 4.31 2.32.08 7.07-.84 8.11-4.44.39-1.35 2.13-1.16 2.13-1.16l.92 3.47h5.62a37.66 37.66 0 0 0 1.16-8.68c0-4.7-2.43-5.41-3.21-8.34-.68-2.51.89-9.83.89-9.83z" fill="#ec6769"/><path d="m28.39 5.18s-2.39-2.86-5.25-2.43c-1.93.25-2.53 2.25-2.59 3.25-.19 3.07 1.24 9 .45 12-.75 2.66-5.06 7.79-7.93 7.81-.46 0-1.24-.76-1.65-.56-1.42.68-5.52 1.45-4.24 4.06 1.42 2.87 12.62 2.95 16.06-3.39 1.25-2.29 3 1.11 4.71.22 2.76-1.42-1.32-6.08-1.61-10.28-.18-2.64 2.05-10.68 2.05-10.68z" fill="#e94d5c"/></g><g fill="#a8213c"><ellipse cx="11.62" cy="24.16" rx=".75" ry=".73"/><path d="m16.9 24.16a.74.74 0 1 1 -.74.74.74.74 0 0 1 .74-.74z" transform="translate(-2.81 -2.21)"/><ellipse cx="16.36" cy="21.22" rx=".75" ry=".73"/><path d="m21 20.26a.74.74 0 1 1 0 1.47.74.74 0 1 1 0-1.47z" transform="translate(-2.81 -2.21)"/><ellipse cx="18.92" cy="15.93" rx=".75" ry=".73"/><ellipse cx="19.78" cy="12.95" rx=".75" ry=".73"/><ellipse cx="19.91" cy="10.43" rx=".75" ry=".73"/></g><g transform="translate(-2.81 -2.21)"><path d="m22.48 9.09a.74.74 0 1 1 -.75.73.74.74 0 0 1 .75-.73z" fill="#a8213c"/><path d="m22.48 5.68a.74.74 0 1 1 -.75.74.75.75 0 0 1 .75-.74z" fill="#a8213c"/><g fill="#d0cfd0"><path d="m14.3 26.54a.48.48 0 0 1 -.41-.23c-.06-.1-1.4-2.38 0-3.51a.49.49 0 0 1 .68.06.48.48 0 0 1 -.06.67c-.62.51 0 1.86.23 2.3a.46.46 0 0 1 -.17.64.47.47 0 0 1 -.27.07z"/><path d="m16.66 25a.52.52 0 0 1 -.38-.17c-.07-.1-1.87-2.31-.72-3.7a.5.5 0 0 1 .68-.07.47.47 0 0 1 .07.67c-.55.66.36 2.06.72 2.5a.47.47 0 0 1 -.07.67.49.49 0 0 1 -.3.1z"/><path d="m18.91 23.64a.48.48 0 0 1 -.3-.11c-.22-.17-2.11-1.73-2.16-3.18a1.57 1.57 0 0 1 .55-1.24.49.49 0 0 1 .68 0 .47.47 0 0 1 0 .67.64.64 0 0 0 -.23.51c0 .87 1.35 2.11 1.8 2.48a.47.47 0 0 1 -.3.84z"/><path d="m20.78 21.25a.57.57 0 0 1 -.18 0c-.26-.1-2.54-1-3-2.39a1.58 1.58 0 0 1 .13-1.34.49.49 0 0 1 .66-.18.48.48 0 0 1 .18.65.62.62 0 0 0 -.06.56c.26.72 1.66 1.5 2.48 1.81a.47.47 0 0 1 -.17.92z"/><path d="m21.54 18.52h-.06c-.26 0-2.58-.37-3.28-1.54a1.47 1.47 0 0 1 -.08-1.31.48.48 0 0 1 .63-.27.48.48 0 0 1 .25.6.49.49 0 0 0 0 .49c.34.58 1.76 1 2.57 1.08a.47.47 0 0 1 -.07.94z"/><path d="m20.89 15.72a3.28 3.28 0 0 1 -2-.53 1.49 1.49 0 0 1 -.56-1.19.49.49 0 0 1 1 0 .49.49 0 0 0 .18.45c.52.44 2 .34 2.79.18a.47.47 0 1 1 .2.92 8.36 8.36 0 0 1 -1.61.17z"/><path d="m21 13.26a3.23 3.23 0 0 1 -2-.54 1.42 1.42 0 0 1 -.53-1.21.48.48 0 0 1 .5-.46.47.47 0 0 1 .46.49.53.53 0 0 0 .19.46c.52.43 2 .33 2.79.17a.49.49 0 0 1 .57.37.48.48 0 0 1 -.38.56 8.14 8.14 0 0 1 -1.6.16z"/><path d="m20.76 10.56a3.23 3.23 0 0 1 -2-.54 1.42 1.42 0 0 1 -.53-1.21.48.48 0 0 1 1 0 .53.53 0 0 0 .19.46c.52.43 2 .34 2.79.17a.49.49 0 0 1 .57.37.48.48 0 0 1 -.38.56 8.14 8.14 0 0 1 -1.64.19z"/></g></g></svg>