<svg viewBox="0 0 33.75 33.75" xmlns="http://www.w3.org/2000/svg"><g transform="translate(-1.13 -2.21)"><path d="m13.25 8.43c.79-2.17 6.83-6.22 6.83-6.22s1.9 7.24 1.11 9.41a4.09 4.09 0 0 1 -5.42 2.38 4.39 4.39 0 0 1 -2.52-5.57z" fill="#8dc043"/><path d="m9.65 12.79c-1-2.11.45-9.27.45-9.27s6.44 3.78 7.41 5.88a4.12 4.12 0 0 1 -2.18 5.5 4.36 4.36 0 0 1 -5.68-2.11z" fill="#65892e"/><path d="m11.66 10.77c-2.1-1-9.22.46-9.22.46s3.75 6.46 5.84 7.44a4.09 4.09 0 0 0 5.48-2.2 4.39 4.39 0 0 0 -2.1-5.7z" fill="#8dc043"/><path d="m7.32 14.38c-2.16.8-6.2 6.87-6.2 6.87s7.21 1.91 9.37 1.11a4.12 4.12 0 0 0 2.34-5.44 4.37 4.37 0 0 0 -5.51-2.54z" fill="#65892e"/><path d="m29 10.48c6.46 6.5 7.2 20.66 4.15 23.72s-17.15 2.32-23.61-4.2c-4.78-4.81-2.54-12.06 2.46-17.06s12.2-7.27 17-2.46z" fill="#e94e3e"/><g fill="#fdeff0"><path d="m22.92 9.92a.81.81 0 0 0 -.7.32c-.3.43 0 1.13.59 1.57a1.71 1.71 0 0 0 1 .34.81.81 0 0 0 .7-.32c.3-.43 0-1.13-.59-1.57a1.71 1.71 0 0 0 -1-.34"/><path d="m25 19.78a.7.7 0 0 0 -.49.17c-.4.34-.31 1.09.19 1.67a1.62 1.62 0 0 0 1.14.6.75.75 0 0 0 .49-.17c.4-.35.31-1.09-.19-1.67a1.6 1.6 0 0 0 -1.14-.6"/><path d="m20.12 14.91a.72.72 0 0 0 -.48.17c-.4.33-.33 1.08.16 1.67a1.59 1.59 0 0 0 1.15.62.75.75 0 0 0 .48-.16c.4-.34.32-1.09-.17-1.68a1.57 1.57 0 0 0 -1.14-.62"/><path d="m28.4 15.47a.76.76 0 0 0 -.33.08c-.46.25-.53 1-.16 1.68a1.45 1.45 0 0 0 1.16.84.68.68 0 0 0 .34-.08c.46-.25.53-1 .16-1.67a1.45 1.45 0 0 0 -1.17-.85"/><path d="m31 22.91a.52.52 0 0 0 -.17 0c-.5.13-.76.84-.56 1.58s.64 1.13 1.1 1.13h.17c.5-.14.76-.84.56-1.59a1.34 1.34 0 0 0 -1.1-1.12"/><path d="m30.32 29.89a.78.78 0 0 0 -.51.18c-.38.35-.28 1.1.23 1.67a1.63 1.63 0 0 0 1.13.57.76.76 0 0 0 .51-.18c.39-.35.29-1.1-.23-1.67a1.61 1.61 0 0 0 -1.13-.57"/><path d="m17.85 29a.85.85 0 0 0 -.73.33c-.29.44 0 1.14.63 1.56a1.8 1.8 0 0 0 1 .32.82.82 0 0 0 .72-.33c.29-.44 0-1.14-.62-1.56a1.72 1.72 0 0 0 -1-.32"/><path d="m11.35 27.17a.82.82 0 0 0 -.72.33c-.3.44 0 1.14.62 1.57a1.78 1.78 0 0 0 1 .31.82.82 0 0 0 .72-.33c.3-.43 0-1.13-.62-1.56a1.8 1.8 0 0 0 -1-.32"/><path d="m23.42 31.73a1 1 0 0 0 -.94.51c-.2.48.22 1.11.93 1.4a2 2 0 0 0 .71.14 1 1 0 0 0 .94-.5c.19-.49-.22-1.12-.94-1.4a1.84 1.84 0 0 0 -.7-.15"/><path d="m24.67 26.12a.87.87 0 0 0 -.78.38c-.27.45.05 1.13.71 1.52a1.79 1.79 0 0 0 .9.27.89.89 0 0 0 .78-.37c.27-.45-.05-1.14-.71-1.53a1.79 1.79 0 0 0 -.9-.27"/><path d="m18.67 22.13a.79.79 0 0 0 -.63.27c-.34.4-.13 1.13.46 1.62a1.75 1.75 0 0 0 1.05.41.78.78 0 0 0 .63-.26c.33-.4.13-1.13-.46-1.62a1.76 1.76 0 0 0 -1-.42"/><path d="m13.8 14.52a.78.78 0 0 0 -.54.2c-.38.37-.24 1.11.3 1.66a1.63 1.63 0 0 0 1.11.53.78.78 0 0 0 .54-.2c.37-.37.24-1.11-.3-1.66a1.65 1.65 0 0 0 -1.11-.53"/><path d="m12.19 20.62a.79.79 0 0 0 -.65.28c-.33.41-.1 1.13.5 1.6a1.66 1.66 0 0 0 1 .4.79.79 0 0 0 .65-.28c.32-.41.1-1.13-.5-1.6a1.74 1.74 0 0 0 -1-.4"/></g></g></svg>