<svg viewBox="0 0 31.33 35.44" xmlns="http://www.w3.org/2000/svg"><path d="m22.18 28.92c-3.78 2.92-4.81 8.16-4.81 8.16h1.36c5.07-7.35 14.93-12.48 14.93-12.48s-6.66.59-11.48 4.32z" fill="#85be4f" transform="translate(-2.34 -1.64)"/><path d="m14.8 0 1.41 35.44h-2.81z" fill="#74a843"/><g transform="translate(-2.34 -1.64)"><path d="m13.46 29.62a14 14 0 0 1 3.68 7.46h-1.36a28.31 28.31 0 0 0 -13.44-11.59s7.21-.02 11.12 4.13z" fill="#85be4f"/><g fill="#f4bc58"><path d="m24.08 14.36c-3-.8-4.46-.12-4.79 1.12s.6 2.56 3.59 3.36 7.21-.47 7.21-.47-3.03-3.21-6.01-4.01z"/><path d="m10.43 15.51c3 .8 4.46.12 4.79-1.12s-.61-2.57-3.59-3.37-7.21.47-7.21.47 3.03 3.22 6.01 4.02z"/><path d="m16.68 8.11c-.8 3-.12 4.45 1.12 4.79s2.57-.61 3.36-3.59-.47-7.21-.47-7.21-3.21 3.03-4.01 6.01z"/><path d="m17.83 21.76c.8-3 .12-4.46-1.12-4.79s-2.57.6-3.36 3.59.47 7.21.47 7.21 3.18-3.03 4.01-6.01z"/><path d="m21.67 9.7c-2.67 1.55-3.23 3.07-2.59 4.18s2.24 1.39 4.92-.16 4.77-5.43 4.77-5.43-4.42-.13-7.1 1.41z"/><path d="m12.84 20.17c2.67-1.55 3.23-3.07 2.59-4.18s-2.24-1.39-4.92.16-4.77 5.43-4.77 5.43 4.42.13 7.1-1.41z"/><path d="m12 10.51c1.55 2.68 3.07 3.24 4.18 2.6s1.39-2.24-.16-4.92-5.43-4.77-5.43-4.77-.11 4.42 1.41 7.09z"/><path d="m22.49 19.35c-1.55-2.67-3.07-3.23-4.18-2.59s-1.39 2.24.16 4.91 5.43 4.77 5.43 4.77.1-4.44-1.41-7.09z"/></g><g fill="#fdcc68"><path d="m19.58 8.49c0 3.09-1 4.33-2.33 4.33s-2.32-1.24-2.32-4.33 2.32-6.85 2.32-6.85 2.33 3.76 2.33 6.85z"/><path d="m14.93 21.38c0-3.09 1-4.34 2.32-4.34s2.33 1.25 2.33 4.34-2.33 6.84-2.33 6.84-2.32-3.76-2.32-6.84z"/><path d="m23.7 17.25c-3.09 0-4.34-1-4.34-2.32s1.25-2.32 4.34-2.32 6.85 2.32 6.85 2.32-3.76 2.32-6.85 2.32z"/><path d="m10.81 12.61c3.09 0 4.34 1 4.34 2.32s-1.25 2.32-4.34 2.32-6.81-2.32-6.81-2.32 3.72-2.32 6.81-2.32z"/><path d="m23.45 12c-2.18 2.18-3.8 2.33-4.7 1.42s-.76-2.52 1.42-4.7 6.48-3.2 6.48-3.2-1.01 4.32-3.2 6.48z"/><path d="m11.06 17.85c2.18-2.18 3.8-2.33 4.7-1.42s.76 2.52-1.42 4.7-6.48 3.2-6.48 3.2 1.01-4.33 3.2-6.48z"/><path d="m20.17 21.13c-2.18-2.18-2.33-3.8-1.42-4.7s2.52-.77 4.7 1.42 3.2 6.48 3.2 6.48-4.3-1.02-6.48-3.2z"/><path d="m14.34 8.74c2.18 2.18 2.33 3.79 1.42 4.7s-2.52.76-4.7-1.42-3.2-6.48-3.2-6.48 4.3 1.01 6.48 3.2z"/></g><g fill="#fed68e"><path d="m17.83 8.11c.8 3 .12 4.45-1.12 4.79s-2.57-.61-3.36-3.59.47-7.21.47-7.21 3.18 3.03 4.01 6.01z"/><path d="m16.68 21.76c-.8-3-.12-4.46 1.12-4.79s2.57.6 3.36 3.59-.47 7.21-.47 7.21-3.21-3.03-4.01-6.01z"/><path d="m24.08 15.51c-3 .8-4.46.12-4.79-1.12s.6-2.57 3.59-3.37 7.21.47 7.21.47-3.03 3.22-6.01 4.02z"/><path d="m10.43 14.36c3-.8 4.46-.12 4.79 1.12s-.61 2.56-3.59 3.36-7.21-.47-7.21-.47 3.03-3.21 6.01-4.01z"/><path d="m22.49 10.51c-1.55 2.68-3.07 3.24-4.18 2.6s-1.39-2.24.16-4.92 5.43-4.77 5.43-4.77.1 4.42-1.41 7.09z"/><path d="m12 19.35c1.55-2.67 3.07-3.23 4.18-2.59s1.41 2.24-.18 4.91-5.43 4.77-5.43 4.77-.09-4.44 1.43-7.09z"/><path d="m21.67 20.17c-2.67-1.55-3.23-3.07-2.59-4.17s2.24-1.39 4.91.15 4.78 5.44 4.78 5.44-4.42.12-7.1-1.42z"/><path d="m12.84 9.7c2.67 1.55 3.23 3.07 2.59 4.18s-2.24 1.39-4.92-.16-4.77-5.43-4.77-5.43 4.42-.13 7.1 1.41z"/></g></g><circle cx="14.92" cy="13.15" fill="#947151" r="7.41"/><circle cx="17.26" cy="14.8" fill="#3e4347" r="5.61" transform="matrix(.92387953 -.38268343 .38268343 .92387953 -6.69 6.09)"/></svg>