<svg viewBox="0 0 33.75 33.75" xmlns="http://www.w3.org/2000/svg"><path d="m1.65 20.92c.15 0 .27.53.27 1.2s-.12 1.19-.27 1.19-.27-.53-.27-1.19.12-1.2.27-1.2z" fill="#3e4347" transform="translate(-1.12 -2.21)"/><path d="m.52 18.71h.81v2.4h-.81z" fill="#3e4347"/><path d="m1.65 21.52c.07 0 .13.27.13.6s-.06.59-.13.59-.14-.26-.14-.59.06-.6.14-.6z" fill="#b2c1c0" transform="translate(-1.12 -2.21)"/><g fill="#3e4347"><ellipse cx="1.54" cy="20.84" rx=".35" ry="1.53"/><ellipse cx="2.58" cy="20.84" rx=".35" ry="1.53"/><path d="m1.54 19.31h1.04v3.06h-1.04z"/></g><path d="m2.67 22.28c.09 0 .17.35.17.77s-.08.76-.17.76-.18-.34-.18-.76.08-.77.18-.77z" fill="#b2c1c0" transform="translate(-1.12 -2.21)"/><path d="m5.67 23.84-5.67-5v-5.66l5.67-4.98z" fill="#b2c1c0"/><path d="m4.24 23.84-2.34-2.23v-2.51l2.34.67z" fill="#e2e9ee"/><path d="m4.24 19.77-2.34-.67h.94l2.83.67z" fill="#fff"/><path d="m5.67 8.2h7.52v15.64h-7.52z" fill="#62727b"/><path d="m4.24 19.77h2.74v4.06h-2.74z" fill="#62727b"/><path d="m10.85 19.77h6.92v6.64h-6.92z" fill="#c94847"/><g fill="#3e4347"><path d="m16.7 35a1 1 0 0 1 -.95 1h-1.91a1 1 0 0 1 -1-1v-8.59a1 1 0 0 1 1-1h1.91a1 1 0 0 1 .95 1z" transform="translate(-1.12 -2.21)"/><ellipse cx="30.39" cy="27.42" rx="1.91" ry="4.75"/><ellipse cx="28.48" cy="27.42" rx="1.91" ry="4.75"/><path d="m28.24 27.42h2.39v4.75h-2.39z"/><path d="m5.07 20.57h1.43v5.27h-1.43z"/><g transform="translate(-1.12 -2.21)"><path d="m7.63 22.77c.26 0 .47 1.18.47 2.64s-.21 2.59-.47 2.59-.48-1.18-.48-2.63.21-2.6.48-2.6z"/><path d="m6.19 22.77c.27 0 .48 1.18.48 2.64s-.21 2.59-.48 2.59-.48-1.18-.48-2.63.22-2.6.48-2.6z"/></g></g><ellipse cx="5.07" cy="23.2" fill="#b2c1c0" rx=".24" ry="1.58"/><g transform="translate(-1.12 -2.21)"><path d="m22.44 2.21a.87.87 0 0 0 -.32.06 1.74 1.74 0 0 0 -.12.73 1.6 1.6 0 0 0 .09.53c.2 0 .39.05.39.26v5.8h.95v-6.33a1 1 0 0 0 -.99-1.05z" fill="#b2c1c0"/><path d="m33.3 22.62a7.12 7.12 0 0 0 -1.32-.8s-.3-2.81-.77-3.41-4.07-1.27-4.79-3a21.94 21.94 0 0 1 -1-3s.84 0 .54-.67a5 5 0 0 0 -3.05-2.27 3.76 3.76 0 0 0 -1.91-1.47c-1.17-.34-11-1.88-11.46-.4-1 3.05-1.08 5.95-1.5 14.64 0 0-.89.27-.89 1v3.34l4.85 2.57c.15-2.74.72-4.78 1.39-4.78s1.43 2.81 1.43 6.28a11.56 11.56 0 0 0 4.74.53c4.07-.2 15.32-1.67 15.32-1.67s.28-4.87-1.58-6.89z" fill="#eb5846"/><path d="m31.51 25.39a.49.49 0 0 1 -.42.56l-8 .51a.52.52 0 0 1 -.53-.49l-.56-6.36a.46.46 0 0 1 .43-.53h8a.58.58 0 0 1 .54.53z" fill="#b2c1c0"/><path d="m10.73 17a.52.52 0 0 0 .48.55h1.43a.52.52 0 0 0 .48-.55v-4.41c0-.3-.2-.44-.44-.32l-1.51.73a.94.94 0 0 0 -.44.77z" fill="#3e4347"/><path d="m29.21 18.4c.53 0 .53 0 0-.09l-7.73-.67a13.36 13.36 0 0 1 -1.89-.34l-3-.79c-.51-.14-.54-.06-.06.18l2.63 1.31a2.47 2.47 0 0 1 1.12 1.43l1.51 6.12c.13.55.18.54.11 0l-.77-6.07a.86.86 0 0 1 .84-1z" fill="#fbd0ad"/><path d="m9.54 20.26a1.35 1.35 0 0 1 -1.91 0v-10.8a1.35 1.35 0 0 1 1.91 0z" fill="#b2c1c0"/><path d="m8.1 2.21a.81.81 0 0 0 -.31.06 1.6 1.6 0 0 0 -.17.73 1.9 1.9 0 0 0 .09.53c.2 0 .39.05.39.26v5.8h1v-6.33a1 1 0 0 0 -1-1.05z" fill="#b2c1c0"/><g fill="#3e4347"><path d="m23.06 20.62a.59.59 0 0 0 .58.5h2a.46.46 0 0 0 .45-.52.59.59 0 0 0 -.57-.51h-2a.46.46 0 0 0 -.46.53z"/><path d="m23.32 22.68a.59.59 0 0 0 .57.51h2a.45.45 0 0 0 .44-.53.57.57 0 0 0 -.57-.5h-2a.46.46 0 0 0 -.44.52z"/><path d="m23.57 24.74a.58.58 0 0 0 .57.51h2a.46.46 0 0 0 .45-.52.59.59 0 0 0 -.58-.51h-2a.45.45 0 0 0 -.44.52z"/><path d="m27.58 20a.46.46 0 0 0 -.44.53.59.59 0 0 0 .57.51h2a.45.45 0 0 0 .44-.53.57.57 0 0 0 -.57-.5z"/><path d="m27.39 22.6a.58.58 0 0 0 .57.51h2a.46.46 0 0 0 .45-.52.59.59 0 0 0 -.58-.51h-2a.46.46 0 0 0 -.44.52z"/><path d="m27.64 24.67a.59.59 0 0 0 .58.5h2a.46.46 0 0 0 .45-.53.59.59 0 0 0 -.57-.51h-2a.46.46 0 0 0 -.46.54z"/><path d="m19.61 12-4.85-.32a.46.46 0 0 0 -.45.51v2.71a.53.53 0 0 0 .45.56l5.06.2z"/><path d="m25.75 15.44-.93-2.6a.81.81 0 0 0 -.62-.52l-3.91-.26.2 3.65 5 .2c.24.02.36-.2.26-.47z"/></g><g fill="#fff"><path d="m22.44 29.4a.55.55 0 0 1 -.44.6l-2.87.18a.48.48 0 0 1 -.48-.51v-.87a.55.55 0 0 1 .48-.57l2.87-.18a.48.48 0 0 1 .48.51z"/><path d="m33.91 28.23a.61.61 0 0 1 -.48.61l-1.92.26a.45.45 0 0 1 -.47-.5v-.74a.62.62 0 0 1 .47-.62l1.92-.24a.46.46 0 0 1 .48.5z"/></g></g><path d="m11 29-4.98-4.21v-1.82l4.98 3.16z" fill="#62727b" fill-rule="evenodd"/><g transform="translate(-1.12 -2.21)"><path d="m12.4 28a.5.5 0 0 0 -.47.53v4.22a.5.5 0 0 0 .47.53h.48v-5.23h-.48z" fill="#b2c1c0"/><g fill="#fbd0ad" fill-rule="evenodd"><path d="m12.4 21.54s4.23-2.46 6 2.75-2.3-2.85-6-2.75z"/><path d="m12 8.55a1.84 1.84 0 0 1 2.78 1.28c.79 2.41-1.1-1.32-2.78-1.28z"/></g></g></svg>