<svg viewBox="0 0 33.75 33.75" xmlns="http://www.w3.org/2000/svg"><g transform="translate(-1.13 -2.2)"><path d="m22.79 19c-.82-1.83-1.08-.65-1.8-1.19s-2.08.54-3 .22-2.22.43-3-.06a.9.9 0 0 0 -1.4.3c-.25.4-.78 1.67-.82 1.76a45.49 45.49 0 0 1 -11.65 15.97h33.76a51.56 51.56 0 0 1 -12.09-17z" fill="#594640"/><g fill="#8a674d"><path d="m14 20.42a4.43 4.43 0 0 0 -.43 2.66 3.18 3.18 0 0 1 -.77 2.73 14 14 0 0 1 -1.39 1.19 6.24 6.24 0 0 0 -1.85 2.31c-.3-1.79 1.23-3 2.3-4.06.75-.78.67-1.64.81-2.66a3 3 0 0 1 1.33-2.17z"/><path d="m9.11 30.72a3.6 3.6 0 0 1 -1.85 2.91c-.94.59-2 1-2.94 1.62.14-1.13 1.44-2 2.3-2.51a11.49 11.49 0 0 0 2.49-2.02z"/><path d="m15.83 21.23a6.56 6.56 0 0 0 -.05 2.21 13.87 13.87 0 0 0 .64 2.08 5 5 0 0 1 -1.1 4.61 10.19 10.19 0 0 0 -.06-4.5 4.15 4.15 0 0 1 .57-4.4z"/><path d="m13.55 27c.65 1.39-.21 3.14-1.21 4.08a2.56 2.56 0 0 0 -1 1.79 4.35 4.35 0 0 0 .47 2.06 2.8 2.8 0 0 1 -.61-4.28 8.19 8.19 0 0 0 2.35-3.65z"/><path d="m17.71 20.42a4 4 0 0 0 1.11 4.2c.73.83 1.95 2.86.61 3.73.51-1.35-1-2.53-1.8-3.39-1.1-1.24-1.45-3.46.08-4.54z"/><path d="m18.11 28.35a4.13 4.13 0 0 0 .65 3.6c.43.75 1 2.25.26 3 0-1-.86-1.92-1.39-2.68-.8-1.19-.96-3.16.48-3.92z"/><path d="m14.52 30.13c-.33 1.05.37 1.94.94 2.74.29.4 1.14 2.09.23 2.38.21-.61-1-1.58-1.29-2-.66-.77-1.26-2.65.12-3.12z"/><path d="m19.71 20.64a3.4 3.4 0 0 0 1.34 2.92 8.75 8.75 0 0 1 .95.87c1.54 1.67.36 4.47-1.15 5.7.6-1.69 1.43-3.93 0-5.37-1.01-.9-2.28-2.82-1.14-4.12z"/><path d="m19.71 30.72c1.88.12 3.93 2.79 2.46 4.53a8.71 8.71 0 0 0 -1-2.44c-.49-.7-1.01-1.37-1.46-2.09z"/><path d="m21.59 20.64a10.15 10.15 0 0 1 3.47 5.36 14.15 14.15 0 0 1 .48 2.31c.09.92.32 2.2 1.24 2.62-1.05.15-1.82-1.1-2.12-2s-.37-1.51-.57-2.25a25.17 25.17 0 0 0 -2.5-6.04z"/><path d="m23.3 29.64a6.74 6.74 0 0 0 2.31 3.23 6.18 6.18 0 0 1 .85.68c.2.2 1 1.26.32 1.38.35-.53-1.49-1-1.7-1.19-1.37-.65-2.57-2.53-1.78-4.1z"/><path d="m27.23 30.13a3.17 3.17 0 0 1 2.39 2.52c.16 1.18 1.25 1.78 2.18 2.3a2.74 2.74 0 0 1 -3.19-1.62c-.12-.39-.11-.8-.25-1.18a9.62 9.62 0 0 0 -1.13-2.02z"/></g><g fill="#e94d5c"><path d="m22.86 17.68c.78-.76 1.95-1.06 1.55-2.2-.71-2-4 3.13-2.49.17s-.07-3.32-.52-2.67-1.6 7-1.88 3.23 4-15.45 1.71-13.83-2 12.21-3.4 14 1.4-11.65.35-13c-.78-1-2.74-.81-1.89 7.85s-.57 4-1.32 1.86-1.53-1.38-.74 2.59c.64 3.17-.84-1.3-2.57-4.61s-5.66-1.51-2.34.93a10.08 10.08 0 0 1 4.08 5.84 9.14 9.14 0 0 0 -1.68 3.67c-.4 1.32 1-.83 1.6-1.45s1 1.83 1.88.37 1.65-.67 3.19 1.16 2.48 1.35 3.14.46.94-1.08 2.36-.13.51-.41.51-.41c-.55-.71-1.16-3.25-1.54-3.83z"/><path d="m22.53 11.76c.95-1 1.4-4.28.69-3.2s-1.29 3.85-.69 3.2z"/><path d="m26.88 11.61c-.87.9-3 3.42-1.85 3.06.91-.29 2.73-3.96 1.85-3.06z"/><path d="m26.37 6.61c-1 .54-2.7 4.86-2.8 6.48s3.79-7.01 2.8-6.48z"/><path d="m13.56 10.41c1.79 1.28-1.86-5.59-2.12-4.23s1.33 3.67 2.12 4.23z"/></g></g></svg>