<svg viewBox="0 0 33.75 33.75" xmlns="http://www.w3.org/2000/svg"><g transform="translate(-1.13 -2.21)"><path d="m1.18 29.37c9.1 8.79 24.5 8.79 33.64 0l-16.82-27.16z" fill="#ea5658"/><path d="m3.35 25.86-.63.87c6.66 5.85 20.75 8.16 30.56 0l-.63-.86a24.65 24.65 0 0 1 -29.3-.01z" fill="#cddb76"/><path d="m2.73 26.72-1.61 2.6c9.12 8.85 24.61 8.85 33.76 0l-1.6-2.59a24.87 24.87 0 0 1 -30.55-.01z" fill="#8dc043"/><g fill="#3e4347" fill-rule="evenodd"><path d="m9 22.76a8.09 8.09 0 0 1 1.33-2.59 8.94 8.94 0 0 1 1.39 2.66 1.27 1.27 0 0 1 -1.34 1.28 1.4 1.4 0 0 1 -1.38-1.35z"/><path d="m16 25.34a8.19 8.19 0 0 1 1.32-2.6 8.94 8.94 0 0 1 1.38 2.66 1.29 1.29 0 0 1 -1.34 1.29 1.4 1.4 0 0 1 -1.36-1.35z"/><path d="m20.54 18.82a8.11 8.11 0 0 1 1.32-2.59 9 9 0 0 1 1.39 2.65 1.28 1.28 0 0 1 -1.34 1.29 1.4 1.4 0 0 1 -1.37-1.35z"/><path d="m25.16 25a8.11 8.11 0 0 1 1.32-2.59 9 9 0 0 1 1.39 2.59 1.28 1.28 0 0 1 -1.34 1.29 1.4 1.4 0 0 1 -1.37-1.29z"/><path d="m15.28 12.82a8.42 8.42 0 0 1 1.33-2.59 8.94 8.94 0 0 1 1.39 2.66 1.29 1.29 0 0 1 -1.34 1.29 1.41 1.41 0 0 1 -1.38-1.36z"/></g><g fill="#65892e"><path d="m15.88 31.86v4a26.1 26.1 0 0 0 4.24 0v-4a25 25 0 0 1 -4.24 0z"/><path d="m5.94 28.87-1.23 3.28a23.76 23.76 0 0 0 3.78 2l1.32-3.55a23.93 23.93 0 0 1 -3.87-1.73z"/><path d="m30.06 28.85a24.33 24.33 0 0 1 -3.87 1.73l1.31 3.51a23.76 23.76 0 0 0 3.78-2z"/></g></g></svg>