<svg viewBox="0 0 33.75 33.75" xmlns="http://www.w3.org/2000/svg"><ellipse cx="16.88" cy="16.88" fill="#fff" rx="16.46" ry="16.46"/><path d="m28.23 30.35a12.6 12.6 0 0 0 .92-5.28 15.36 15.36 0 0 0 3.54-5.69 4.85 4.85 0 0 1 1.12.32 4.76 4.76 0 0 1 .1 1.54c-.43 2.83-1.92 7.08-4.54 9a2.51 2.51 0 0 1 -1.14.11zm-8.68 4.71a6.23 6.23 0 0 0 1.51-1.2 15.59 15.59 0 0 0 6.69-2.72 6.16 6.16 0 0 0 .84 0c-1.7 1.7-5.84 3.56-9.04 3.92zm-9.17-1.93-.21.33.17-.36a8.25 8.25 0 0 1 -2.86-2.84 25.73 25.73 0 0 1 2.3-1.91 27.14 27.14 0 0 0 7.08 1.59 21 21 0 0 0 3.39 3.58 7.32 7.32 0 0 1 -2.76 1.55 13.82 13.82 0 0 1 -7.11-1.94zm-8.32-16a11.06 11.06 0 0 0 .36 2.21 6.52 6.52 0 0 0 -.42 1.48 18.23 18.23 0 0 1 .06-3.7zm26.5 7.37a33.58 33.58 0 0 1 -6-.82c-.53-1.86-2.29-6.44-2.69-7.48 1.72-2.46 3.42-4.79 3.89-5.43a14 14 0 0 1 5.88 1.59 16.76 16.76 0 0 1 2.36 6.52 14.52 14.52 0 0 1 -3.44 5.61zm-10.74-21.43a7.71 7.71 0 0 1 1.5.25 13.91 13.91 0 0 0 -1.08 1.85 19.62 19.62 0 0 0 -6.87 2.5 11.34 11.34 0 0 0 -3.65-.39 5 5 0 0 1 1-1.28 17 17 0 0 1 9.1-2.9zm-11.2 17.14a10.16 10.16 0 0 1 -3.41-1.13 13.37 13.37 0 0 1 0-5.8c.66-1.28 2.67-4.49 4-5.1a9.65 9.65 0 0 1 3.79.24 30.89 30.89 0 0 0 .19 6.11c-1.53 1.23-3.94 4.75-4.57 5.68zm23.65-10.93a6.28 6.28 0 0 1 -.49 2.19 15 15 0 0 0 -6-1.53 16.07 16.07 0 0 0 -4.77-4.55 8.58 8.58 0 0 1 1.16-1.84 1.7 1.7 0 0 1 .47 0 15.48 15.48 0 0 1 4.09 1c.27.08 4.68 2.45 5.54 4.73zm-20.27 18.27a27.09 27.09 0 0 1 -2.73-6.81c.51-.76 3-4.48 4.47-5.59l7.4 1.35c.4 1 2.17 5.64 2.67 7.41a65 65 0 0 1 -4.89 5.21 27.15 27.15 0 0 1 -6.92-1.57zm24.85-8.47c0-.41.11-6.14-3.28-9.87a9.15 9.15 0 0 0 -3.17-3.32 24.38 24.38 0 0 0 -3.25-2.12 14.85 14.85 0 0 0 -6.38-1.56c-.25 0-.51 0-.76 0a16.34 16.34 0 0 0 -6.7 1.4 16.77 16.77 0 0 0 -3.09 1.69c-1.92 1.07-5.55 5.37-5.83 7.7-1.17 1.48-2.14 8.15 0 12.2 1.49 5.64 7.12 8.47 7.57 8.68a14.36 14.36 0 0 0 7.11 2.07h.47a7.79 7.79 0 0 0 1 .07c4.07 0 10.11-2.88 11.37-5.12 3.45-2.6 5.25-9.15 4.93-11.82z" fill="#4a4e51" transform="translate(-1.13 -2.21)"/></svg>