<svg viewBox="0 0 29.25 33.75" xmlns="http://www.w3.org/2000/svg"><g fill="#3e4347"><path d="m.62 2.75h28v28.24h-28z"/><path d="m18 30.45c8.08 0 14.62 1.23 14.62 2.75s-6.54 2.8-14.62 2.8-14.62-1.28-14.62-2.8 6.54-2.75 14.62-2.75z" transform="translate(-3.38 -2.21)"/><ellipse cx="14.63" cy="12.13" rx="14.63" ry="2.75"/><ellipse cx="14.63" cy="21.62" rx="14.63" ry="2.75"/></g><g fill="#d0cfd0"><ellipse cx="14.63" cy="2.75" rx="14.63" ry="2.75"/><g transform="translate(-3.38 -2.21)"><path d="m4.17 13.71c2 1.08 7.42 2.36 13.83 2.36s11.86-1.28 13.83-2.36a92 92 0 0 1 -13.83 1.34 92 92 0 0 1 -13.83-1.34z"/><path d="m4.17 23.19c2 1.08 7.42 2.37 13.83 2.37s11.86-1.29 13.83-2.37a90.5 90.5 0 0 1 -13.83 1.35 90.5 90.5 0 0 1 -13.83-1.35z"/><path d="m4.17 32.36c2 1.08 7.42 2.37 13.83 2.37s11.86-1.29 13.83-2.37a90.5 90.5 0 0 1 -13.83 1.35 90.5 90.5 0 0 1 -13.83-1.35z"/></g></g><path d="m8.81 4.41c1.19 0 2.19.24 2.19.59s-1 .55-2.19.55-2.18-.29-2.18-.55.98-.59 2.18-.59z" fill="#3e4347" transform="translate(-3.38 -2.21)"/></svg>