<svg viewBox="0 0 33.75 33.75" xmlns="http://www.w3.org/2000/svg"><path d="m31.33 29.63-31.33 4.12v-5.85l31.34-4.23z" fill="#d3976d"/><path d="m31.36 17.54-31.36 4.35v-6.18l31.38-4.46z" fill="#d3976d"/><path d="m31.34 23.67-31.34 4.23v-6.01l31.36-4.35z" fill="#fff"/><g transform="translate(-1.13 -2.21)"><path d="m11.71 23.42a5.27 5.27 0 0 1 -4.71 5.12 4.3 4.3 0 0 1 -5.14-3.77z" fill="#e94e3e"/><path d="m10.44 23.59a3.89 3.89 0 0 1 -3.44 3.81 3.18 3.18 0 0 1 -3.82-2.8z" fill="#ed6f7f"/><path d="m31.59 20.69a5.59 5.59 0 0 1 -4.94 5.17c-2.71.37-4.95-1.32-5-3.81z" fill="#e94e3e"/><path d="m30.31 20.86a4.17 4.17 0 0 1 -3.67 3.86 3.06 3.06 0 0 1 -3.72-2.84z" fill="#ed6f7f"/><path d="m11.92 27.87a5.32 5.32 0 0 1 4.75-5.13c2.73-.38 5 1.33 5 3.8z" fill="#e94e3e"/><path d="m13.18 27.7a4 4 0 0 1 3.53-3.81 3.08 3.08 0 0 1 3.74 2.82z" fill="#ed6f7f"/></g><g fill="#ca8759"><path d="m.55 18.41 1.55 1.15 1.38-1.55-1.54-1.15z"/><path d="m10.55 18.13 1.53 1.14 1.42-1.55-1.53-1.15z"/><path d="m25.57 16.6 1.49 1.15 1.48-1.56-1.5-1.16z"/><path d="m13.28 16.1 1.22.92 1.14-1.25-1.21-.93z"/><path d="m24.51 14.55-1.17 1.25 1.2.93 1.17-1.26z"/><path d="m9.38 14.71-1.13 1.26 1.22.92 1.13-1.25z"/><path d="m3.67 19.34 1.34 1 1.23-1.36-1.35-1z"/><path d="m6.94 16.48-.79.88.87.65.79-.88z"/><path d="m16.18 17.07.85.65.81-.88-.85-.65z"/><path d="m18.64 15.07.85.66.82-.89-.85-.65z"/><path d="m21.2 16.93.84.64.82-.87-.84-.65z"/><path d="m26.8 13.17-.85-.66-.83.89.84.66z"/><path d="m18.04 18.13.84.64.81-.87-.84-.65z"/><path d="m7.92 19.52.86.65.79-.87-.86-.64z"/><path d="m4.79 16.18-.87-.65-.79.88.87.65z"/><path d="m29.56 12.5-.84.89.84.66.84-.89z"/><path d="m30.39 27.06-1.45-1.11-1.45 1.5 1.46 1.1z"/><path d="m20.57 27.34-1.47-1.11-1.41 1.5 1.47 1.09z"/><path d="m5.92 28.79-1.5-1.09-1.36 1.48 1.5 1.09z"/><path d="m17.88 29.27-1.18-.88-1.11 1.19 1.17.86z"/><path d="m7.03 30.72 1.09-1.18-1.2-.87-1.09 1.18z"/><path d="m21.64 30.57 1.13-1.18-1.17-.87-1.13 1.18z"/><path d="m27.39 26.16-1.29-.97-1.26 1.32 1.28.97z"/><path d="m24.05 28.9.81-.83-.82-.62-.81.84z"/><path d="m15.06 28.34-.83-.61-.78.83.83.62z"/><path d="m12.69 30.23-.84-.61-.77.82.83.61z"/><path d="m10.17 28.48-.84-.62-.77.84.84.61z"/><path d="m4.89 32 .84.6.76-.82-.84-.6z"/><path d="m13.24 27.33-.84-.62-.78.84.84.62z"/><path d="m23.2 25.98-.83-.62-.8.84.82.63z"/><path d="m26.14 29.18.81.62.81-.83-.82-.62z"/><path d="m2.27 32.61.76-.82-.85-.61-.75.82z"/></g><path d="m34.88 13.22c0-2.41-10-4.92-12.23-4.63-9.39 1.25-21.53 9.33-21.53 9.33 9.32-1.22 28.17-3.65 29.8-3.85.86-.11 1.37 0 1.37.74v17l2.6-.31z" fill="#8f6453" transform="translate(-1.13 -2.21)"/><path d="m31.47 12.86c4.8-.66-8.7-4.33-10.78-4.06-9 1.17-18 8.12-18 8.12z" fill="#724f42" transform="translate(-1.13 -2.21)"/><g fill-rule="evenodd"><path d="m22.66 4.5 1.08-1.51-2.47-.26-.29-2.29-1.63 1-1.96-1.44-.55 6.18 7.37.14z" fill="#8dc043"/><path d="m22.37 11.49c-2.32 2.15-7.39 2.4-8.49 1.38s-.88-5.7 1.5-7.87c1.73-1.59 4.32-.85 6.11.81s2.61 4.08.88 5.68z" fill="#e94e3e" transform="translate(-1.13 -2.21)"/><g fill="#fcf7c6"><path d="m15.32 8.12-.39.37.39.38.41-.38z"/><path d="m21.08 5.84-.4.37.4.37.4-.37z"/><path d="m19.16 6.21-.4.37.4.38.4-.38z"/><path d="m17.32 5.84-.41.37.41.37.4-.37z"/><path d="m19.43 4.33-.4.37.4.37.4-.37z"/><path d="m18.27 2.73-.41.37.41.37.39-.37z"/><path d="m16.91 4.11-.39.37.39.37.41-.37z"/><path d="m15.26 5.72-.41.37.41.38.39-.38z"/><path d="m17.41 7.89-.4.37.4.37.41-.37z"/><path d="m20.37 7.95-.4.37.4.37.4-.37z"/><path d="m18.76 9.45-.4.37.4.37.4-.37z"/><path d="m16.13 9.82-.4.37.4.37.4-.37z"/><path d="m13.63 9.07-.4.38.4.37.4-.37z"/><path d="m13.36 7.14-.4.38.4.37.4-.37z"/><path d="m14.59 3.47-.4.38.4.37.4-.37z"/><path d="m13.63 5.18-.4.37.4.37.4-.37z"/><path d="m16.24 2.25-.4.37.4.38.4-.38z"/></g></g></svg>