<svg viewBox="0 0 23.63 33.75" xmlns="http://www.w3.org/2000/svg"><ellipse cx="11.81" cy="29.89" fill="#a29b95" rx="10.06" ry="3.86"/><ellipse cx="11.81" cy="29" fill="#dddad5" rx="9.28" ry="2.97"/><ellipse cx="11.81" cy="27.68" fill="#a29b95" rx="5.91" ry="2.37"/><ellipse cx="11.81" cy="27.34" fill="#dddad5" rx="5.54" ry="1.69"/><ellipse cx="11.81" cy="22.8" fill="#a29b95" rx="5.91" ry="4.85"/><ellipse cx="11.81" cy="21.84" fill="#dddad5" rx="5.02" ry="3.9"/><ellipse cx="11.81" cy="19.28" fill="#a29b95" rx="6.44" ry="2.49"/><ellipse cx="11.81" cy="18.78" fill="#dddad5" rx="5.72" ry="1.96"/><ellipse cx="11.81" cy="15.43" fill="#a29b95" rx="11.81" ry="3.86"/><ellipse cx="11.81" cy="14.54" fill="#dddad5" rx="10.9" ry="2.97"/><ellipse cx="11.81" cy="13.89" fill="#dfcea3" rx="6.98" ry="1.95"/><path d="m4.83 5.7h13.96v8.18h-13.96z" fill="#dfcea3"/><ellipse cx="11.81" cy="5.7" fill="#fff6d7" rx="6.98" ry="1.95"/><ellipse cx="11.81" cy="6.15" fill="#efd8b1" rx="5.3" ry="1.48"/><g transform="translate(-6.19 -2.2)"><path d="m17.74 8.11c-1.13 0-2.18-.56-1-2.7s1.59-2.6 1.59-3.21c.02 0 3.59 5.91-.59 5.91z" fill="#e94d5c"/><path d="m18 7.16c.09.35.13.71.21 1.06a.88.88 0 0 1 0 .53c0 .08-.12.31-.24.29s-.18-.3-.21-.36a1.26 1.26 0 0 1 0-.58c.06-.1.15-.96.24-.94z" fill="#8f9496"/><path d="m17.83 8.1c-.72 0-1.39-.36-.62-1.72s1-1.67 1-2.06c.01 0 2.3 3.78-.38 3.78z" fill="#ffce35"/><path d="m17.8 8.1s.08-.95.2-.95.21.92.21.92a3 3 0 0 1 -.41.03z" fill="#3e4347"/></g></svg>