<svg viewBox="0 0 33.75 33.75" xmlns="http://www.w3.org/2000/svg"><g transform="translate(-1.12 -2.21)"><path d="m12.83 24.25c3.05 3.05 1.86 9.18-.19 11.24s-1.81-3.14-4.86-6.19-8.24-2.8-6.19-4.86 8.19-3.24 11.24-.19z" fill="#f2b5b5"/><path d="m1.59 24.44s3.43.18 4 2.89c.29 1.3-.42 2.53.59 3.55s2.25.3 3.55.59c2.71.59 2.89 4 2.89 4 2-2.06 3.24-8.19.19-11.24s-9.16-1.84-11.22.21z" fill="#fce5e8"/><path d="m23.17 13.91c-3.05-3.05-1.87-9.18.19-11.24s1.81 3.14 4.86 6.19 8.24 2.8 6.19 4.86-8.19 3.28-11.24.19z" fill="#f2b5b5"/><path d="m34.41 13.72s-3.43-.18-4-2.88c-.29-1.31.42-2.54-.59-3.56s-2.25-.3-3.56-.59c-2.7-.59-2.88-4-2.88-4-2.06 2.06-3.24 8.19-.19 11.24s9.16 1.84 11.22-.21z" fill="#fce5e8"/><g fill="#e62051"><path d="m18 19.09a4.09 4.09 0 0 1 -6.09-5 7.91 7.91 0 0 0 -1 8.44c4.87 1.19 6.21-2.4 7.09-3.44z"/><path d="m18 19.06a4.1 4.1 0 0 1 5-6.06 7.85 7.85 0 0 0 -8.41-1c-1.25 4.86 2.34 6.19 3.41 7.06z"/><path d="m18 19.06a4.09 4.09 0 0 1 6.14 4.94 7.88 7.88 0 0 0 .94-8.37c-4.84-1.18-6.2 2.37-7.08 3.43z"/><path d="m18.07 19.17a4.1 4.1 0 0 1 -5 6 7.88 7.88 0 0 0 8.39.95c1.15-4.71-2.28-6.12-3.39-6.95z"/></g><path d="m23.46 13.41-.46-.41a4.1 4.1 0 0 0 -5 6.08c-1-.87-4.63-2.2-3.42-7.06a5.76 5.76 0 0 0 -.6.33 8.07 8.07 0 0 0 -1.52 1.18l-.1.11a6.42 6.42 0 0 0 -.43.48 4.08 4.08 0 0 0 6.08 5c-.86 1-2.2 4.63-7 3.45a6.47 6.47 0 0 0 .34.63 8.48 8.48 0 0 0 1.16 1.48l.12.11c.16.16.33.31.5.45a4.1 4.1 0 0 0 5-6c1.11.86 4.54 2.24 3.37 7 .2-.1.41-.2.61-.32a8.13 8.13 0 0 0 1.52-1.19l.11-.12c.16-.17.31-.34.46-.52a4.09 4.09 0 0 0 -6.2-5c.87-1.06 2.23-4.61 7.07-3.42q-.13-.29-.3-.57a8.08 8.08 0 0 0 -1.21-1.56z" fill="#fce5e8"/></g></svg>