<svg viewBox="0 0 33.75 33.75" xmlns="http://www.w3.org/2000/svg"><g transform="translate(-1.13 -2.21)"><path d="m2.54 2.34c-1.99 1.21-1.91 14.33.46 18.53l14.71-9c-2.28-4-13.3-10.68-15.17-9.53z" fill="#4d535a"/><path d="m5.36 7.45c-.84.51-1.24 9.12.24 11.79l9.4-5.75c-1.42-2.55-8.87-6.49-9.64-6.04z" fill="#f4a3a4"/><path d="m33.46 2.34c2 1.21 1.91 14.33-.41 18.53l-14.71-9c2.23-4 13.25-10.68 15.12-9.53z" fill="#4d535a"/><path d="m30.64 7.45c.84.51 1.24 9.12-.24 11.79l-9.4-5.75c1.42-2.55 8.87-6.49 9.64-6.04z" fill="#f4a3a4"/><path d="m17.88 8.45c-15.24 0-16.67 10.93-16.67 17.09 0 2.53 7.46 10.46 16.67 10.46s16.66-7.89 16.66-10.42c0-6.2-1.43-17.13-16.66-17.13z" fill="#4d535a"/><path d="m13.62 22.83a4.57 4.57 0 0 1 -8.34-2.21 4.61 4.61 0 0 1 5-1.85 4.55 4.55 0 0 1 3.34 4.06z" fill="#c2dba1"/><path d="m13.29 21.45a5.51 5.51 0 0 1 -3.65 1.7c-2.3 0-3.64-3.33-3.64-3.33a4.24 4.24 0 0 1 4.27-1.05 4.1 4.1 0 0 1 3.02 2.68z" fill="#99c879"/><path d="m10.94 21.41c0 3.7-1.79 3.7-1.79 0s1.79-3.71 1.79 0z" fill="#4d535a"/><path d="m22.13 22.83a4.61 4.61 0 0 0 5 1.85 4.55 4.55 0 0 0 3.37-4.06 4.61 4.61 0 0 0 -5-1.85 4.55 4.55 0 0 0 -3.37 4.06z" fill="#c2dba1"/><path d="m22.47 21.45a5.47 5.47 0 0 0 3.64 1.7c2.3 0 3.66-3.33 3.66-3.33a4.24 4.24 0 0 0 -4.27-1.05 4.08 4.08 0 0 0 -3.03 2.68z" fill="#99c879"/><path d="m24.81 21.41c0 3.7 1.79 3.7 1.79 0s-1.79-3.71-1.79 0z" fill="#4d535a"/><path d="m22.74 25.81c-1.45-1.13-3.06-4.87-4.86-4.87s-3.42 3.74-4.88 4.87c-2.3 1.8-8.43 3.83-8.43 3.83s6.54 5.73 13.3 5.73 13.29-5.73 13.29-5.73-6.16-2.04-8.42-3.83z" fill="#fff"/></g><ellipse cx="16.75" cy="29.52" fill="#f191a4" rx=".98" ry="1.43"/><g fill="#4d535a" transform="translate(-1.13 -2.21)"><path d="m22.61 30.92a3 3 0 0 1 -1.76.44 2.89 2.89 0 0 1 -1.64-.61 2.39 2.39 0 0 1 -.9-1.44l-.43-2.5-.44 2.5a2.39 2.39 0 0 1 -.9 1.44 2.91 2.91 0 0 1 -1.63.61 3 3 0 0 1 -1.77-.44 2.85 2.85 0 0 1 -1.22-1.51 2.76 2.76 0 0 0 1 1.89 3.39 3.39 0 0 0 4.14.17 3.18 3.18 0 0 0 .85-.9 3 3 0 0 0 .84.9 3.45 3.45 0 0 0 2.13.62 3.3 3.3 0 0 0 2-.79 2.8 2.8 0 0 0 1-1.89 2.85 2.85 0 0 1 -1.27 1.51z"/><path d="m20.14 26.25c-.46-.55-1.85-.6-2.26-.6s-1.81.05-2.27.6c-.32.4-.07 1.38.79 2.23a2.1 2.1 0 0 0 1.48.71 2.1 2.1 0 0 0 1.47-.71c.86-.85 1.11-1.83.79-2.23z"/></g></svg>