<svg viewBox="0 0 33.75 33.75" xmlns="http://www.w3.org/2000/svg"><g transform="translate(-1.12 -2.2)"><path d="m34.34 23.13c2.1 5.87-2.34 10.37-7.23 11.18s-10.33-2-10.57-8.25c-.32-8.26 5.67-7.28 7.83-7.64 3.54-.58 7.28-2.8 9.97 4.71z" fill="#d33b23" fill-rule="evenodd"/><path d="m25.36 20.2a14.77 14.77 0 0 1 -4.31-14.08" fill="none" stroke="#85be4f" stroke-miterlimit="10" stroke-width="1.13"/><path d="m21.68 24.79c1.22 6.97-4.58 11.21-10.23 11.21s-11.15-4.19-10.22-11.21c1.23-9.29 7.74-7.1 10.22-7.1 4.07 0 8.67-1.79 10.23 7.1z" fill="#e94e3e" fill-rule="evenodd"/><path d="m11.45 19.67c0-2.3 3.35-14.34 19.19-16.9" fill="none" stroke="#9ec428" stroke-miterlimit="10" stroke-width="1.13"/><path d="m7.45 18.84c1.27.19 2.46.38 3.66.51.6.07 1.2.11 1.81.15s1.22 0 1.86.05a4.89 4.89 0 0 1 -1.83.61 7.34 7.34 0 0 1 -1.93 0 8.49 8.49 0 0 1 -1.87-.44 5.38 5.38 0 0 1 -1.7-.88z" fill="#ce1517"/><path d="m21.63 20.65 3.17-.74c.52-.12 1-.26 1.54-.4l1.57-.51a4 4 0 0 1 -1.31 1.09 5.78 5.78 0 0 1 -1.6.62 6.41 6.41 0 0 1 -1.69.2 4.43 4.43 0 0 1 -1.68-.26z" fill="#a51916"/><path d="m26.05 5.07c-2.15 5 5.25 11.93 5.25 11.93a21.05 21.05 0 0 1 1.25-9.91c1.24-2.91-1.91-4.89-1.91-4.89s-3.51.36-4.59 2.87z" fill="#65892e" fill-rule="evenodd"/></g></svg>