<svg viewBox="0 0 33.75 23.63" xmlns="http://www.w3.org/2000/svg"><g transform="translate(-1.13 -7.27)"><path d="m7.87 29.77a5.55 5.55 0 0 1 -1.76-.29 5.61 5.61 0 0 1 -1.93-9.57 5.29 5.29 0 0 1 1-.72l.37-1.3a7.64 7.64 0 0 1 7.31-5.52 7.37 7.37 0 0 1 1.09.09 7 7 0 0 1 .91.19l.15-.27a7.72 7.72 0 0 1 14.49 3.74v.61.15a7 7 0 0 1 1 .46 6.69 6.69 0 0 1 3.34 5.77 6.61 6.61 0 0 1 -5.16 6.48 6.39 6.39 0 0 1 -1.49.18z" fill="#fff"/><path d="m21.78 7.27a8.86 8.86 0 0 0 -7.47 4.1h-.19a9.54 9.54 0 0 0 -1.25-.09 8.77 8.77 0 0 0 -8.39 6.33l-.25.89a5.6 5.6 0 0 0 -.79.59 6.74 6.74 0 0 0 2.32 11.46 6.57 6.57 0 0 0 2.11.34h19.23a8.17 8.17 0 0 0 1.75-.2 7.77 7.77 0 0 0 2.15-14.32l-.35-.2v-.05a8.86 8.86 0 0 0 -8.87-8.85zm0 2.25a6.59 6.59 0 0 1 6.59 6.6v.52a6.93 6.93 0 0 0 -4 1.67 5.63 5.63 0 0 1 3.83-.63 5.6 5.6 0 0 1 1.67.63 5.54 5.54 0 0 1 -1.53 10.19 5.68 5.68 0 0 1 -1.24.14h-19.23a4.43 4.43 0 0 1 -1.41-.23 4.49 4.49 0 0 1 -.07-8.51 4.31 4.31 0 0 1 1.48-.26 4.48 4.48 0 0 1 3.56 1.76 6.16 6.16 0 0 0 -4.83-3.2 6.49 6.49 0 0 1 6.23-4.7 7 7 0 0 1 .93.07 6.59 6.59 0 0 1 1.71.49 6.53 6.53 0 0 1 3.78 5 7.32 7.32 0 0 0 -3.25-6.14 6.57 6.57 0 0 1 5.77-3.4" fill="#7ecef5"/></g></svg>