<svg viewBox="0 0 33.75 33.75" xmlns="http://www.w3.org/2000/svg"><g transform="translate(-1.13 -2.2)"><path d="m34.88 16.39a4.74 4.74 0 0 0 -2.18-4 4.91 4.91 0 0 0 .3-1.64 4.79 4.79 0 0 0 -4.65-4.87 4.34 4.34 0 0 0 -3.86-2.41 4.29 4.29 0 0 0 -2.29.67 5.27 5.27 0 0 0 -4.2-1.94 5.27 5.27 0 0 0 -4.18 1.94 4.29 4.29 0 0 0 -2.29-.67 4.34 4.34 0 0 0 -3.86 2.41 4.79 4.79 0 0 0 -4.67 4.87 4.91 4.91 0 0 0 .28 1.64 4.74 4.74 0 0 0 -2.18 4 4.81 4.81 0 0 0 1.07 3 4.14 4.14 0 0 0 -.43 1.83 4 4 0 0 0 2.07 3.54 3.55 3.55 0 0 0 0 .46 3.94 3.94 0 0 0 3.87 4h20.65a3.94 3.94 0 0 0 3.87-4 3.55 3.55 0 0 0 0-.46 4 4 0 0 0 2.07-3.54 4.14 4.14 0 0 0 -.43-1.83 4.81 4.81 0 0 0 1.04-3z" fill="#43ade2"/><path d="m29.11 20.75a4.38 4.38 0 0 1 -.32 1.25 2.2 2.2 0 0 1 -.8.77 6.89 6.89 0 0 0 .09-1.91c-.75-11.18-2.08-6.17-10.08-6.17s-9.32-5-10.08 6.17a7.07 7.07 0 0 0 .08 1.93 2.2 2.2 0 0 1 -.8-.77 4.39 4.39 0 0 1 -.32-1.26c-.86-.23-2 0-2 2.42 0 1.53.56 2.79 2.46 2.92.8 6.21 3.21 7.22 8 9.42a7.81 7.81 0 0 0 5.14 0c4.83-2.2 7.24-3.21 8-9.42 1.9-.13 2.46-1.39 2.46-2.92.13-2.46-.94-2.65-1.83-2.43z" fill="#fbd0ad"/><path d="m27.61 21.05c-.73-10.82-2-5.58-9.61-5.58s-8.88-5.23-9.61 5.53a35.53 35.53 0 0 0 .38 5 11.61 11.61 0 0 0 6.78 9 7.48 7.48 0 0 0 4.9 0 11.61 11.61 0 0 0 6.78-9 35.36 35.36 0 0 0 .38-4.95z" fill="#f5f4f5"/><path d="m23.16 28.79c-2.15 2.22-1.85 5-5.16 5s-3-2.75-5.16-5 2.86.29 5.16.29 7.25-2.45 5.16-.29z" fill="#574137"/><path d="m21.9 28.2-3.9.92-3.9-.92s-.12.92.27 1.3c.58.56 2.68.86 3.63.86s3.05-.3 3.63-.86c.37-.38.27-1.3.27-1.3z" fill="#fff"/><path d="m18 32.09a2.29 2.29 0 0 0 -2.1 1.11l2.1.34 2.1-.34a2.29 2.29 0 0 0 -2.1-1.11z" fill="#ed6f7f"/><path d="m22.45 29.24c-1.85 1.85-1.59 4.13-4.45 4.15s-2.6-2.3-4.45-4.15 2.46.24 4.45.24 6.26-2.05 4.45-.24zm-4.45-.57c-1.28 0-8.86-2.82-5.58.31 1.79 1.71 1.82 5.62 5.58 5.62s3.78-3.91 5.58-5.62c3.28-3.13-4.3-.31-5.58-.31z" fill="#d04351"/></g><circle cx="16.88" cy="23.26" fill="#ea5365" r="3.72"/><g transform="translate(-1.13 -2.2)"><path d="m15.19 21.21c0 1.66-4.5 1.66-4.5 0 0-5.54 4.5-5.54 4.5 0z" fill="#f5f4f5"/><path d="m15.58 21.46c0 2.07-5.63 2.07-5.63 0 .05-6.93 5.63-6.93 5.63 0z" fill="#3e4347"/><path d="m15.39 21.49c0 1.66-4.5 1.66-4.5 0 0-5.49 4.5-5.49 4.5 0z" fill="#f5f4f5"/></g><ellipse cx="12.19" cy="18.28" fill="#0884a6" rx="1.41" ry="1.97"/><circle cx="12.19" cy="18.28" fill="#221f20" r=".42"/><path d="m20.42 21.46c0 2.07 5.62 2.07 5.62 0-.04-6.93-5.62-6.93-5.62 0z" fill="#3e4347" transform="translate(-1.13 -2.2)"/><path d="m20.61 21.49c0 1.66 4.5 1.66 4.5 0 0-5.49-4.5-5.49-4.5 0z" fill="#f5f4f5" transform="translate(-1.13 -2.2)"/><ellipse cx="21.54" cy="18.28" fill="#0884a6" rx="1.41" ry="1.97"/><circle cx="21.54" cy="18.28" fill="#221f20" r=".42"/></svg>