<svg viewBox="0 0 33.75 33.75" xmlns="http://www.w3.org/2000/svg"><g transform="translate(-1.13 -2.21)"><path d="m27.67 22.64 1.6-1.32 3.25-.17 2.36 2.36c0-2.8-1.88-4.53-5.61-3.45a7.32 7.32 0 0 1 -1 .11z" fill="#eff6f7"/><path d="m33.54 23.37c0 2.62-6.15 3.3-8 4.62a13.67 13.67 0 0 0 -2.12 3l10.93-6.33s-.81-3.32-.81-1.29z" fill="#eff6f7"/><path d="m27.67 23.59.91-.22a3 3 0 0 1 .88-1.52c.94-.83 4.09-.65 4.09 1.38 0 3.35-6.33 4.38-8.2 5.69a8.46 8.46 0 0 0 -1.69 2.26s.68.13.84 0c2.87-2.36 10.38-3.35 10.38-7.78 0-1.58-2.31-3.58-5.61-2.39a5.83 5.83 0 0 1 -1 .11z" fill="#d2d8d9"/><path d="m22.44 32h-15a4.38 4.38 0 0 0 2.21 2.81 10.44 10.44 0 0 0 5.28 1.19 10.44 10.44 0 0 0 5.31-1.14 4.34 4.34 0 0 0 2.2-2.86z" fill="#d2d8d9"/><path d="m28.73 18.05h-27.61a26 26 0 0 0 4.05 11.95 11.79 11.79 0 0 0 9.76 4.79 11.79 11.79 0 0 0 9.76-4.79 26 26 0 0 0 4.04-11.95z" fill="#eff6f7"/></g><ellipse cx="13.8" cy="15.87" fill="#eff6f7" rx="13.8" ry="5.75"/><g transform="translate(-1.13 -2.21)"><path d="m14.93 14.68c6.35 0 11.65 1.81 12.89 4.23a2.27 2.27 0 0 0 .28-1.09c0-2.93-5.9-5.31-13.17-5.31s-13.17 2.38-13.17 5.31a2.37 2.37 0 0 0 .24 1.09c1.28-2.42 6.58-4.23 12.93-4.23z" fill="#d2d8d9"/><path d="m14.93 23.14c6.35 0 11.65-1.82 12.89-4.23-1.24-2.42-6.54-4.23-12.89-4.23s-11.65 1.81-12.93 4.23c1.28 2.41 6.58 4.23 12.93 4.23z" fill="#724f42"/><path d="m23.77 17.48c-1.94-2.25-8.26-1.24-8.84-.12-.81-1.19-7-2.09-8.84.12-1.18 1.39 1.54 2.69 4.28 3.63 1.72.65 0 1.4 0 1.4a28.25 28.25 0 0 0 11.63-2.42c1.58-.79 2.57-1.69 1.77-2.61z" fill="#8f6a54"/><path d="m20.55 18.27c-1.14-1.8-5.36-1.06-5.81-.18-.46-1-4.46-1.72-5.84 0-.85 1.09.86 2.15 2.6 2.92 1.1.54-.08 1.11-.08 1.11a16.88 16.88 0 0 0 7.82-1.8c1.08-.6 1.76-1.32 1.31-2.05z" fill="#b59267"/><path d="m18.61 18.92c-.76-1.2-3.59-.71-3.89-.11-.3-.65-3-1.16-3.9 0-.58.73.57 1.44 1.74 2 .73.36-.06.74-.06.74a11.34 11.34 0 0 0 5.23-1.21c.73-.45 1.2-.92.88-1.42z" fill="#f9f3d9"/><g fill="#a6afb0" opacity=".6"><path d="m15.68 7.5c-2.07-2.16-.68-5.29-.68-5.29s-4.36 4.14-1.61 7c3.18 3.31 1.61 5.37 1.61 5.37s3.94-3.7.68-7.08z"/><path d="m9.47 9.43c-1.56-1.57-.53-3.85-.53-3.85s-3.27 3-1.2 5.1c2.39 2.4 1.2 3.9 1.2 3.9s2.97-2.69.53-5.15z"/><path d="m21.84 9.43c-1.56-1.57-.52-3.85-.52-3.85s-3.27 3-1.21 5.1c2.39 2.4 1.21 3.9 1.21 3.9s2.96-2.69.52-5.15z"/></g></g></svg>