<svg viewBox="0 0 33.75 30.38" xmlns="http://www.w3.org/2000/svg"><g transform="translate(-1.12 -3.89)"><path d="m8.87 30.36c-3.79-2.46-5.31-12.04-4.07-16.36.92-3.25 4.41-8 7.54-9.28 2.63-1 8.69-1 11.32 0 3.13 1.25 6.62 6 7.54 9.28 1.24 4.36.29 13.94-3.51 16.4-8.01 5.17-10.81 5.17-18.82-.04z" fill="#f5d1ac"/><path d="m2.85 14.94c2 4.45 2.53 4.63 4.45-.66 1-2.82.31-4.51 1.5-6.33a28 28 0 0 1 2.2-2.67s-12 1.27-8.15 9.66z" fill="#413122"/><path d="m8 5.11c-3 1.95-9.53 1.18-5.69 9.58 2 4.44 2.53 4.62 4.45-.67 1-2.82.3-4.5 1.49-6.33a13.28 13.28 0 0 1 2.75-2.41s-.95-1.51-3-.17z" fill="#947151"/><path d="m33.15 14.94c-2 4.45-2.53 4.62-4.45-.66-1-2.82-.31-4.51-1.5-6.33a27.28 27.28 0 0 0 -2.2-2.68s12 1.27 8.15 9.67z" fill="#413122"/><path d="m28 5.11c3 1.95 9.51 1.17 5.67 9.57-2 4.45-2.53 4.62-4.45-.66-1-2.82-.3-4.51-1.49-6.33a13.11 13.11 0 0 0 -2.73-2.42s1-1.5 3-.16z" fill="#947151"/><path d="m10 15a3.39 3.39 0 1 1 -3.37 3.39 3.38 3.38 0 0 1 3.37-3.39z" fill="#fff"/></g><ellipse cx="8.01" cy="14.47" fill="#3e4347" rx="2.53" ry="2.54"/><path d="m26 15a3.39 3.39 0 1 1 -3.38 3.39 3.38 3.38 0 0 1 3.38-3.39z" fill="#fff" transform="translate(-1.12 -3.89)"/><ellipse cx="25.73" cy="14.47" fill="#3e4347" rx="2.53" ry="2.54"/><path d="m12.2 28.53 2.62 2.74a4.73 4.73 0 0 0 6.36 0l2.62-2.74-2.69-2.81h-6.22z" fill="#7e654c" transform="translate(-1.12 -3.89)"/><path d="m18 23.36s-2.73 3.91-2.41 5.81a2.45 2.45 0 0 0 4.82 0c.32-1.9-2.41-5.81-2.41-5.81z" fill="#eb5a62" transform="translate(-1.12 -3.89)"/><path d="m16.88 26.28.6-3.78h-1.21z" fill="#bb454b"/><path d="m14.05 20.54h5.64v2.57h-5.64z" fill="#413122"/><path d="m26.91 25-4-4.2a7.27 7.27 0 0 0 -9.78 0l-4 4.2a3.17 3.17 0 0 0 0 4.33 2.84 2.84 0 0 0 4.13 0l4-4.21a1.09 1.09 0 0 1 1.52 0l4 4.21a2.84 2.84 0 0 0 4.13 0 3.17 3.17 0 0 0 0-4.33z" fill="#947151" transform="translate(-1.12 -3.89)"/><g fill="#3e4347"><path d="m14.68 21.13c0-1.48 1.49-1.76 3.32-1.76s3.32.28 3.32 1.76c0 1.18-2.64 2.23-3.32 2.23s-3.32-1.05-3.32-2.23z" transform="translate(-1.12 -3.89)"/><path d="m13.28 22.62h.8v.8h-.8z" transform="matrix(.70611878 -.7080934 .7080934 .70611878 -13.41 12.56)"/><path d="m11.94 24.17h.8v.8h-.8z" transform="matrix(.70611878 -.7080934 .7080934 .70611878 -14.9 12.06)"/><path d="m13.7 24.73h.8v.8h-.8z" transform="matrix(.70611878 -.7080934 .7080934 .70611878 -14.78 13.48)"/><path d="m21.92 22.62h.8v.8h-.8z" transform="matrix(.7080934 -.70611878 .70611878 .7080934 -10.86 18.59)"/><path d="m23.26 24.17h.8v.8h-.8z" transform="matrix(.7080934 -.70611878 .70611878 .7080934 -11.57 19.99)"/><path d="m21.5 24.73h.8v.8h-.8z" transform="matrix(.7080934 -.70611878 .70611878 .7080934 -12.48 18.91)"/></g></svg>