<svg viewBox="0 0 33.75 28.13" xmlns="http://www.w3.org/2000/svg"><g fill-rule="evenodd" transform="translate(-1.13 -5.02)"><path d="m11.77 21.05c0-2.13 2.79-3.87 6.23-3.87s6.23 1.74 6.23 3.87-2.79 3.87-6.23 3.87-6.23-1.73-6.23-3.87zm-10.65-1.23c0 7.36 7.56 13.32 16.88 13.32s16.88-6 16.88-13.32-7.56-13.32-16.88-13.32-16.88 5.97-16.88 13.32z" fill="#fed171"/><path d="m11.77 16.41c0-.7.75-1.19 1.26-1.75s.67-1.49 1.25-1.79c1.08-.56 2 1.39 3.54 1.39.78 0 2.39-1.38 3.08-1.21 1.15.27.65 1 1.36 1.61s2 .9 2 1.75c0 2.13-1.37 3.87-6.23 3.87s-6.26-1.74-6.26-3.87zm-10.65-.18a12.1 12.1 0 0 0 .39 3.06c.34 1.27.56 3.51 1.32 4.55.39.52 1.22-.19 1.9-.19 1.25 0 1.47 2.74 3 2.74 2.24 0 1.18 1.87 4.28 1.87 1.66 0 2.38-1.53 3.24-1.53 2.14 0 2 2.86 4.08 2.86s2-3.39 4-3.39 2.22 1.8 3.72 1.8 1.18-5.18 2.94-5.18c2 0 3.15-.8 3.57-1.54a10 10 0 0 0 1.32-5c0-6-7.56-11.28-16.88-11.28s-16.88 5.28-16.88 11.23z" fill="#e94484"/><path d="m22.79 22.94-3.24 1.7c-.52.27-1-.6-.46-.87l3.23-1.7c.53-.28.99.59.47.87z" fill="#64b6e6"/><path d="m28.88 12.2-3.46-1.2c-.56-.2-.24-1.13.32-.94l3.46 1.21c.56.19.24 1.12-.32.93z" fill="#64b6e6"/><path d="m9.84 19.71-3.48 1.16c-.56.19-.87-.74-.31-.93l3.47-1.17c.56-.19.88.75.32.94z" fill="#734293"/><path d="m16.24 9.87-3.4-1.35c-.55-.22-.19-1.14.36-.92l3.41 1.4c.54.17.18 1.09-.37.87z" fill="#734293"/><path d="m7.11 16.21-3.29-1.61c-.53-.26-.1-1.15.43-.89l3.29 1.61c.53.26.1 1.15-.43.89z" fill="#fff"/><path d="m32.09 15-3.47 1.17c-.56.19-.88-.74-.32-.93l3.47-1.17c.56-.19.88.74.32.93z" fill="#fff"/><path d="m14.3 23.81-3.66.19c-.59 0-.63-.95 0-1l3.66-.16a.5.5 0 0 1 0 .97z" fill="#fff180"/><path d="m24.06 7.79-3.52 1c-.54.21-.84-.79-.27-.93l3.52-1c.57-.18.84.77.27.93z" fill="#fff180"/><g fill="#8dc15e"><path d="m26.21 19.54 3.65.17c.58 0 .53 1-.06 1l-3.65-.17c-.59-.04-.53-1.02.06-1z"/><path d="m10.47 10.82-3.54.93c-.57.15-.82-.81-.25-1l3.55-.93c.57-.11.77.85.24 1z"/></g></g></svg>