<svg viewBox="0 0 33.75 33.75" xmlns="http://www.w3.org/2000/svg"><path d="m33 24.4c0-2 2.78-6.42 1.47-7.78s-4.67 4.81-6.31 4.81c-2 0-3.15-2.43-4.13-3.45-.78-.81 1.44-3.92.46-4.15-4.23-1-4.8 1.44-7.08.83a21.81 21.81 0 0 0 -5.49-.75c-6.73 0-8 4.85-9.2 9.33-.19.74 6.59 6.53 6.59 6.53s-5.2-2.93-5-2.26c.83 3.69 4.35 6.08 8.27 7a15.57 15.57 0 0 0 3.46.4c7.2 0 8.32-5.55 12.21-6.23 2.34-.41 4.92 4.15 6.27 2.75s-1.52-4.73-1.52-7.03z" fill="#728389" transform="translate(-1.13 -2.2)"/><g fill="#8e9ba3"><path d="m27.06 35.12a2.24 2.24 0 0 1 -3.5 0c-1.47-1.52-3-4.23-2.38-4.9s3.27.94 4.73 2.46 1.8 1.76 1.15 2.44z" transform="translate(-1.13 -2.2)"/><ellipse cx="17.67" cy="18.71" rx="1.25" ry="1.83"/><ellipse cx="20.02" cy="20.91" rx=".7" ry="1.43"/><path d="m22.43 20.36c.2 0 .35.43.35.95s-.15 1-.35 1-.35-.42-.35-1 .16-.95.35-.95z" transform="translate(-1.13 -2.2)"/></g><g fill="#7ecef5"><path d="m3 24.83a1 1 0 1 1 -1 1 1 1 0 0 1 1-1z" transform="translate(-1.13 -2.2)"/><ellipse cx="2.43" cy="12.04" rx="2.43" ry="2.51"/><ellipse cx="6.1" cy="4.65" rx="4.49" ry="4.65"/></g><ellipse cx="9.41" cy="20.54" fill="#fdfdfb" rx="4.01" ry="4.15"/><ellipse cx="9.41" cy="20.54" fill="#29251c" rx="2.76" ry="2.85"/></svg>