<svg viewBox="0 0 33.75 33.75" xmlns="http://www.w3.org/2000/svg"><g transform="translate(-1.13 -2.2)"><path d="m17.92 18.11v17.89s7.34-5.16 12.52-6.7c0 0 .21-11 3.43-16.55z" fill="#0a6170"/><path d="m22.56 33.23s.31-15.81.87-16.62 5.42-1.67 5.42-1.67-2 14.8-1.49 15.74a39.09 39.09 0 0 0 -4.8 2.55z" fill="#b36a16"/><path d="m17.92 36a39.55 39.55 0 0 0 -13.2-6.7s.63-9-2.33-16l15.53 4.84z" fill="#3cabcf"/><path d="m8 30.72s4.71 1.93 5.07 2.51.31-15.9.31-15.9-6.45-1.78-7-1.78a51.47 51.47 0 0 1 1.62 15.17z" fill="#e9c241"/><path d="m17.92 18.11v3l14.48-5a17.3 17.3 0 0 1 1.47-3.45z" opacity=".3"/><path d="m3.46 16.35a23.35 23.35 0 0 0 -1.07-3.08l15.53 4.84v3z" opacity=".3"/></g><path d="m0 9.49 16.06 3.55 17.69-4.24-17.39-.97z" fill="#55c2e4"/><path d="m0 9.49 1.27 3.55 14.79 4.16v-4.16z" fill="#3cabcf"/><path d="m17.18 19.4s13.36-5 16.69-5.17a8.62 8.62 0 0 1 1-3.23l-17.7 4.24z" fill="#0a6170" transform="translate(-1.13 -2.2)"/><path d="m4.81 10.55 3.22 3.1 3.59-1.59 5.26-1.62 6.55.81 3.4.68 2.76-2.13z" fill="#f0ae11"/><path d="m11.62 12.06 5.26-1.62 6.55.81 6.16-1.45-13.03-1.27-11.75 2.02z" fill="#f0ae11"/><path d="m4.81 10.55v3.94l6.56 1.82.25-4.25z" fill="#f9d148"/><path d="m23.43 11.25.09 3.76 5.64-1.67.43-3.54z" fill="#c47115"/><g transform="translate(-1.13 -2.2)"><path d="m21 10.83a10.66 10.66 0 0 1 3.8-7.37 9.59 9.59 0 0 1 -3.4.62c-1.4-.26-1.8-1.88-1.8-1.88s-3.28 7.09-2.32 8 3.72.63 3.72.63z" fill="#ea9f08"/><path d="m16 13.1a16.8 16.8 0 0 0 -6.85-6.85 25.46 25.46 0 0 0 4.53-.79 4.21 4.21 0 0 0 1.69-1.89s4.06 7.1 3.71 8.18-3.08 1.35-3.08 1.35z" fill="#f9d148"/><path d="m18.33 12.59a23.77 23.77 0 0 1 -7.82 1.33c-9.2 0-10.53-6.68-1.42-6 7.49.51 9.24 4.67 9.24 4.67z" fill="#ea9f08"/><path d="m17.69 12.57a27.8 27.8 0 0 0 7.83-.65c7.89-2 5-8-2.45-5.46-6.07 2.09-5.38 6.11-5.38 6.11z" fill="#f0ae11"/><g fill="#824212"><path d="m18.33 12.59a14.85 14.85 0 0 1 -4.88.83c-5.74 0-6.57-4.16-.89-3.76 4.68.34 5.77 2.93 5.77 2.93z"/><path d="m18.33 12.59a19.3 19.3 0 0 0 5.46-.45c5.5-1.4 3.45-5.59-1.71-3.82-4.25 1.46-3.75 4.27-3.75 4.27z"/></g></g></svg>