<svg viewBox="0 0 33.75 33.75" xmlns="http://www.w3.org/2000/svg"><path d="m17.17 17.87a4.35 4.35 0 0 0 -3.61-1.6c-3.75.28-1.29 4.55-6.09 4.87a6.75 6.75 0 0 0 -4.53 1.67c-3 3-2 7.11 1.09 10.24s7.24 4.09 10.24 1.09c1.56-1.56 1.51-4.4 2-6.09.68-2.19 4.2-1.45 4-3.88a.69.69 0 0 0 -.16-.46c-.44-.44-1.67.6-2.41-.14a2.7 2.7 0 0 1 -.55-1.67c-.11-1.37 1.57-2.38 1-3-.31-.33-.64-.69-.98-1.03zm-.88.87.48.51.12.12v.06a4 4 0 0 0 -.89 2.57 3.77 3.77 0 0 0 .91 2.45 2.05 2.05 0 0 0 1.24.61l-.16.07a4.24 4.24 0 0 0 -2.86 2.55 15.79 15.79 0 0 0 -.41 1.9c-.23 1.34-.49 2.86-1.31 3.68a4.53 4.53 0 0 1 -4 1.4 8.19 8.19 0 0 1 -4.46-2.49 8.19 8.19 0 0 1 -2.49-4.46 4.56 4.56 0 0 1 1.4-4 5.49 5.49 0 0 1 3.73-1.31 4.63 4.63 0 0 0 4.6-3.45c.39-1 .53-1.35 1.5-1.42a3.19 3.19 0 0 1 2.64 1.23" fill="#e37c18" transform="translate(-1.13 -2.2)"/><path d="m14.7 29.57a14.11 14.11 0 0 1 .4-1.9 4.24 4.24 0 0 1 2.9-2.55l.16-.07a2 2 0 0 1 -1.23-.61 3.72 3.72 0 0 1 -.93-2.44 4.07 4.07 0 0 1 .87-2.57v-.06l-.12-.12c-.16-.18-.32-.34-.48-.5a3.18 3.18 0 0 0 -2.64-1.24c-1 .07-1.11.41-1.5 1.42a4.63 4.63 0 0 1 -4.6 3.45 5.54 5.54 0 0 0 -3.73 1.31 4.56 4.56 0 0 0 -1.4 4 8.22 8.22 0 0 0 2.5 4.47 8.19 8.19 0 0 0 4.46 2.49 4.53 4.53 0 0 0 4-1.4c.84-.82 1.1-2.34 1.34-3.68z" fill="#f59b2f" transform="translate(-1.13 -2.2)"/><g fill="#3e4347"><path d="m12.24 21.89h1.94v3.96h-1.94z" transform="matrix(.70685991 -.70735356 .70735356 .70685991 -14.14 14.14)"/><path d="m9.55 24.58h1.94v3.96h-1.94z" transform="matrix(.70723018 -.70698336 .70698336 .70723018 -16.82 13.01)"/><path d="m7.69 27.36h1.11v3.07h-1.11z" transform="matrix(.70723018 -.70698336 .70698336 .70723018 -19.14 12.08)"/><path d="m15.07 21.18-2.5-2.5 14.34-13.54 1.7 1.7z"/><path d="m12.69 30a1.3 1.3 0 1 1 -1.29 1.29 1.3 1.3 0 0 1 1.29-1.29z" transform="translate(-1.13 -2.2)"/><circle cx="8.47" cy="30.68" r="1.04"/><path d="m29.61 11.91c-.36.36-.59.73-.26 1.06s.71.11 1.07-.26.59-.73.26-1.06-.68-.11-1.07.26z" transform="translate(-1.13 -2.2)"/><path d="m29.15 11.09h.55v1.24h-.55z" transform="matrix(.70710678 -.70710678 .70710678 .70710678 -.79 22.03)"/><path d="m31.55 10c-.37.37-.59.74-.26 1.07s.7.11 1.07-.26.59-.74.26-1.07-.7-.14-1.07.26z" transform="translate(-1.13 -2.2)"/><path d="m31.08 9.16h.55v1.24h-.55z" transform="matrix(.70710678 -.70710678 .70710678 .70710678 1.15 22.83)"/><path d="m33.48 8c-.36.37-.59.74-.25 1.07s.7.11 1.06-.26.59-.73.26-1.06-.7-.08-1.07.25z" transform="translate(-1.13 -2.2)"/><path d="m33.02 7.22h.55v1.24h-.55z" transform="matrix(.70710678 -.70710678 .70710678 .70710678 3.08 23.63)"/><path d="m25.18 7.47c-.37.36-.74.59-1.07.26s-.11-.73.26-1.07.73-.59 1.06-.26.11.7-.25 1.07z" transform="translate(-1.13 -2.2)"/><path d="m25.09 7.04h.55v1.24h-.55z" transform="matrix(.70797015 -.70624236 .70624236 .70797015 .87 17.95)"/><path d="m27.11 5.53c-.37.37-.74.59-1.07.26s-.11-.7.26-1.07.74-.59 1.07-.26.11.7-.26 1.07z" transform="translate(-1.13 -2.2)"/><path d="m27.03 5.11h.55v1.24h-.55z" transform="matrix(.70735356 -.70685991 .70685991 .70735356 2.82 18.77)"/><path d="m29.05 3.6c-.37.36-.74.59-1.07.25s-.11-.7.26-1.06.74-.59 1.07-.26.1.7-.26 1.07z" transform="translate(-1.13 -2.2)"/><path d="m28.97 3.17h.55v1.24h-.55z" transform="matrix(.70710678 -.70710678 .70710678 .70710678 4.76 19.58)"/><path d="m30.84 10c-3 3-3.88 3.83-5.75 2s-1.06-2.72 2-5.75c4.05-4.05 4-5.23 6.52-2.73s1.28 2.48-2.77 6.48z" transform="translate(-1.13 -2.2)"/></g><g fill="#89949a"><path d="m30.25 4.08a.72.72 0 1 1 -.72.72.72.72 0 0 1 .72-.72z" transform="translate(-1.13 -2.2)"/><circle cx="27.18" cy="4.54" r=".72"/><circle cx="25.24" cy="6.48" r=".72"/><g transform="translate(-1.13 -2.2)"><path d="m32.29 6.12a.72.72 0 1 1 -.72.72.72.72 0 0 1 .72-.72z"/><path d="m30.86 9.29a.72.72 0 0 1 -1-1 .72.72 0 1 1 1 1z"/><path d="m28.4 10a.73.73 0 1 1 -.72.73.73.73 0 0 1 .72-.73z"/></g></g></svg>