<svg viewBox="0 0 33.75 33.75" xmlns="http://www.w3.org/2000/svg"><path d="m29.39 11.86a2.91 2.91 0 0 1 -4.12 0 3 3 0 0 1 0-4.14 2.91 2.91 0 0 1 4.12 0 3 3 0 0 1 0 4.14zm2.67-6.86a9.57 9.57 0 0 0 -13.58 0 9.69 9.69 0 0 0 -1.66 11.4s0 0 0 0l-13.74 13.92-1.96 4.68.88 1 3.53-.33 15.1-15.27a0 0 0 0 0 0 0 9.55 9.55 0 0 0 11.39-1.64 9.69 9.69 0 0 0 .04-13.76z" fill="#eda455" transform="translate(-1.13 -2.2)"/><g fill="#cc7e2b"><path d="m7.74 31.2.83-.85v-1.12l-4.13 4.19 2.48-.28.81-.83z"/><path d="m13.53 25.33.83-.84.01-1.12-4.97 5.02h1.1l.83-.84h1.1l1.11-1.11z"/><g transform="translate(-1.13 -2.2)"><path d="m17.16 18.85c.3-.3.13-.39 0-.54s-.24-.32-.53 0l-12.19 12.31c-.29.29-.13.38 0 .53s.24.32.53 0z"/><path d="m18.82 20.52c.29-.29.13-.38 0-.53s-.24-.32-.53 0l-12.2 12.3c-.29.3-.13.39 0 .54s.24.32.53 0z"/><path d="m31.53 5.58a8.76 8.76 0 0 0 -12.43 0 8.86 8.86 0 0 0 -1.92 9.6 8.45 8.45 0 0 1 1.89-9 8.35 8.35 0 0 1 11.87 0 8.46 8.46 0 0 1 0 11.93 8.34 8.34 0 0 1 -8.94 1.89 8.73 8.73 0 0 0 9.54-1.93 8.86 8.86 0 0 0 -.01-12.49z"/></g></g></svg>