<svg viewBox="0 0 22.5 33.75" xmlns="http://www.w3.org/2000/svg"><g transform="translate(-6.75 -2.2)"><path d="m15.75 33.7a2.25 2.25 0 0 0 4.5 0z" fill="#626567"/><path d="m14 28.08h8c.47-2.43 2-4.78 3.56-7.26 1.8-2.82 3.69-5.82 3.69-8.72 0-5.46-5.05-9.9-11.25-9.9s-11.25 4.44-11.25 9.9c0 2.88 1.89 5.85 3.72 8.72 1.58 2.48 3.09 4.83 3.53 7.26z" fill="#ffce35"/><path d="m13.86 18.43c0-.12.08-.19.14-.2a.16.16 0 0 1 .09 0 .23.23 0 0 1 .11.08 2.31 2.31 0 0 1 .43.81c0 .11.07.23.11.34a1.19 1.19 0 0 1 -.61-.28.87.87 0 0 1 -.27-.75zm3.8-2a.37.37 0 0 1 .68 0 .69.69 0 0 1 0 .65 2.19 2.19 0 0 1 -.3.47 2.19 2.19 0 0 1 -.3-.47.69.69 0 0 1 -.08-.62zm3.71 2.65a2.31 2.31 0 0 1 .43-.81.23.23 0 0 1 .11-.08.16.16 0 0 1 .09 0c.06 0 .12.08.14.2a.87.87 0 0 1 -.27.74 1.19 1.19 0 0 1 -.61.28c.04-.07.07-.19.11-.3zm-6.49.92c.08.33.15.67.24 1l.43 1.79c.52 2.11 1 3.93 1.33 5.32h.34c-.3-1.41-.7-3.26-1.19-5.42-.13-.57-.26-1.17-.4-1.78l-.21-.91a5.07 5.07 0 0 0 2.58-1.67 5.07 5.07 0 0 0 2.58 1.67c-.07.31-.13.62-.21.92-.14.61-.27 1.21-.4 1.78-.49 2.16-.89 4-1.19 5.42h.34c.36-1.39.81-3.21 1.33-5.32.14-.58.29-1.17.44-1.79.08-.32.15-.66.23-1a1.79 1.79 0 0 0 1.15-.46 1.3 1.3 0 0 0 .42-1.18.75.75 0 0 0 -.5-.59.93.93 0 0 0 -.47 0 1 1 0 0 0 -.34.23 2.67 2.67 0 0 0 -.53 1c-.06.17-.1.33-.15.5a2.91 2.91 0 0 1 -1.5-.65 3.71 3.71 0 0 1 -.9-.85 2.79 2.79 0 0 0 .48-.67 1.56 1.56 0 0 0 .15-.49.9.9 0 0 0 -.11-.55 1 1 0 0 0 -.49-.43.88.88 0 0 0 -.33-.05.91.91 0 0 0 -.33.05 1 1 0 0 0 -.49.43.9.9 0 0 0 -.11.55 1.56 1.56 0 0 0 .15.49 2.79 2.79 0 0 0 .48.67 3.71 3.71 0 0 1 -.9.85 2.91 2.91 0 0 1 -1.5.65 4.74 4.74 0 0 0 -.15-.5 2.67 2.67 0 0 0 -.53-1 .72.72 0 0 0 -.8-.22.78.78 0 0 0 -.51.59 1.32 1.32 0 0 0 .42 1.18 1.81 1.81 0 0 0 1.15.44z" fill="#c79128"/></g><path d="m7.23 26.98h8.07v1.03h-8.07z" fill="#95989b"/><path d="m7.79 29.05h6.94v1.03h-6.94z" fill="#95989b"/><path d="m7.79 28.01h6.94v1.04h-6.94z" fill="#626567"/><path d="m15.29 26.98-7.5 2.07v1.03l7.5-2.07z" fill="#95989b"/><path d="m8.35 31.12h5.82v1.04h-5.82z" fill="#95989b"/><path d="m8.35 30.08h5.82v1.03h-5.82z" fill="#626567"/><path d="m14.73 29.05-6.38 2.07v1.03l6.38-2.07z" fill="#95989b"/></svg>