<svg viewBox="0 0 33.75 29.25" xmlns="http://www.w3.org/2000/svg"><ellipse cx="29.11" cy="15.17" fill="#8a674d" rx="4.64" ry="4.63"/><ellipse cx="29.11" cy="15.17" fill="#f7c3d2" rx="3.02" ry="3.02"/><ellipse cx="4.64" cy="15.17" fill="#8a674d" rx="4.64" ry="4.63"/><ellipse cx="4.64" cy="15.17" fill="#f7c3d2" rx="3.02" ry="3.02"/><g transform="translate(-1.13 -4.45)"><path d="m24.4 7.14c.64-.34 1.06-.51 1.06-.51a23 23 0 0 0 -4.77-1.18 6.79 6.79 0 0 1 1.2-.75c-11.48-1.62-16.95 5-16.95 11h26.12c-.39-4.17-2.69-6.98-6.66-8.56z" fill="#8a674d"/><path d="m31.12 16.59c0-5.46-5.87-9.89-13.12-9.89s-13.12 4.43-13.12 9.89a7.71 7.71 0 0 0 .92 3.61 7.72 7.72 0 0 0 -.92 3.62c0 5.46 5.87 9.88 13.12 9.88s13.12-4.42 13.12-9.88a7.72 7.72 0 0 0 -.92-3.62 7.71 7.71 0 0 0 .92-3.61z" fill="#8a674d"/><path d="m29.26 16.94c0-9.52-11.26-3.45-11.26-3.45s-11.26-6.07-11.26 3.45a7.9 7.9 0 0 0 4.2 6.6 5 5 0 0 0 -1.18 3.18c0 3.42 3.69 6.2 8.24 6.2s8.24-2.78 8.24-6.2a5 5 0 0 0 -1.18-3.18 7.9 7.9 0 0 0 4.2-6.6z" fill="#e0ac7e"/><g fill="#3b302a"><path d="m19.77 22.87c0 .64-.25 1.16-.56 1.16s-.57-.52-.57-1.16.26-1.15.57-1.15.56.52.56 1.15z"/><path d="m17.36 22.87c0 .64-.26 1.16-.57 1.16s-.56-.52-.56-1.16.25-1.15.56-1.15.57.52.57 1.15z"/></g></g><g fill="#3b302a"><ellipse cx="21.76" cy="14.48" rx="1.97" ry="2.53"/><ellipse cx="11.99" cy="14.48" rx="1.97" ry="2.53"/><path d="m23.54 26.11c.8.68-1.66 3.9-5.54 3.92s-6.34-3.24-5.54-3.92c.22-.19 2.9.53 5.54.53s5.32-.72 5.54-.53z" transform="translate(-1.13 -4.45)"/></g></svg>