<svg viewBox="0 0 33.75 19.69" xmlns="http://www.w3.org/2000/svg"><g transform="translate(-1.13 -9.24)"><path d="m18 13.75c-3.55 0-16.88 5.72-16.88 5.72 3.17 3.88 2.06 9.45 16.88 9.45 13.32 0 13-4.75 16.88-9.45 0 0-13.33-5.72-16.88-5.72z" fill="#e94d5c"/><path d="m18 12.68-14.71 5.94c3.83 4.67 8.16 2.87 14.71 2.87s10.81 1.77 14.71-2.87z" fill="#61452b"/><path d="m32.89 18.49c0-1-6.3-5.58-14.89-5.58s-14.89 4.62-14.89 5.58z" fill="#fff"/><path d="m25 9.44c-1.42-.43-3.5-.22-6.24.91-.24.08-.48.18-.72.28-.24-.1-.48-.2-.71-.28-2.79-1.13-4.87-1.35-6.33-.91-4.18 1.24-9.92 10-9.92 10 3.53.43 8.17-4.79 16.88-4.79s13.35 5.22 16.88 4.79c.04.03-5.7-8.76-9.84-10z" fill="#e94d5c"/></g></svg>