<svg viewBox="0 0 26.34 33.75" xmlns="http://www.w3.org/2000/svg"><g transform="translate(-5.06 -2.21)"><path d="m26.76 16.69c-2.12-3.46-2-9.38-7.53-9.39s-5 5.93-7.1 9.39c-1.54 2.53-4.63 6-4.63 9.69 0 12.77 23.92 12.77 23.91 0-.01-3.72-3.1-7.15-4.65-9.69z" fill="#ced74d"/><path d="m19.78 2.25c-.07-.15-.64.14-.59.29a5.44 5.44 0 0 1 -.48 5c-.39.39.5.76.9.2a6.66 6.66 0 0 0 .17-5.49z" fill="#947151"/><path d="m11.91 4a16.47 16.47 0 0 1 -6.85 4.44s8.7 2.15 13.3-2.3a4.57 4.57 0 0 0 1.08-3.39s-4.93-1.85-7.53 1.25z" fill="#8dc043" fill-rule="evenodd"/><path d="m19.44 2.75a9.43 9.43 0 0 0 -1.86.2 10.73 10.73 0 0 0 -1.92.62 26.48 26.48 0 0 0 -3.46 2 19.74 19.74 0 0 1 -3.42 1.84 19.06 19.06 0 0 1 -3.72 1 15.49 15.49 0 0 0 1.87-.25 15.32 15.32 0 0 0 1.92-.54 17.62 17.62 0 0 0 3.59-1.84 31.66 31.66 0 0 1 3.33-2 11.49 11.49 0 0 1 3.67-1.03z" fill="#7eb53a"/></g></svg>