<svg viewBox="0 0 36 36" xmlns="http://www.w3.org/2000/svg"><path d="m4.94 13.5h25.38v11.9h-25.38z" fill="#ffce35" transform="matrix(.70723018 -.70698336 .70698336 .70723018 -8.59 17.08)"/><path d="m34.48 3.67-1.07-1.07a5.18 5.18 0 0 0 -7.34 0l-3.67 3.67 8.41 8.41 3.67-3.68a5.18 5.18 0 0 0 0-7.33z" fill="#e94d5c" transform="translate(0 -1.08)"/><path d="m23.83 5.68h3.25v11.89h-3.25z" fill="#93a2aa" transform="matrix(.70710678 -.70710678 .70710678 .70710678 -.76 20.33)"/><path d="m23.83 6.95h3.25v9.35h-3.25z" fill="#c6d2d8" transform="matrix(.70710678 -.70710678 .70710678 .70710678 -.76 20.33)"/><path d="m4.45 23.14-3.64 9.53 2.51 2.53 9.54-3.65z" fill="#fbd0ad"/><path d="m.17 35.42c-.51 1.32.16 2 1.49 1.49l4.63-1.77-4.35-4.35z" fill="#333" transform="translate(0 -1.08)"/><path d="m2.61 15.81h22.14v3.96h-22.14z" fill="#ffdf84" transform="matrix(.70710678 -.70710678 .70710678 .70710678 -8.57 13.81)"/><path d="m8.22 21.42h22.14v3.96h-22.14z" fill="#f1853b" transform="matrix(.70710678 -.70710678 .70710678 .70710678 -10.9 19.41)"/></svg>