<svg viewBox="0 0 20.25 36" xmlns="http://www.w3.org/2000/svg"><path d="m28.12 3.4a2.53 2.53 0 0 0 -2.4-2.32h-15.44a2.54 2.54 0 0 0 -2.4 2.32v31.36a2.54 2.54 0 0 0 2.4 2.32h15.44a2.53 2.53 0 0 0 2.4-2.32z" fill="#5d6e6d" transform="translate(-7.88 -1.08)"/><path d="m27.56 34.27a2.42 2.42 0 0 1 -2.25 2.25h-14.62a2.42 2.42 0 0 1 -2.25-2.25v-30.38a2.42 2.42 0 0 1 2.25-2.25h14.62a2.42 2.42 0 0 1 2.25 2.25z" fill="#212527" transform="translate(-7.88 -1.08)"/><circle cx="16.59" cy="2.53" fill="#95989b" r=".56"/><path d="m19.69 3.63c0 .16-.08.28-.17.28h-3c-.09 0-.17-.12-.17-.28s.08-.28.17-.28h3c.09 0 .17.13.17.28z" fill="#95989b" transform="translate(-7.88 -1.08)"/><path d="m1.69 4.5h16.88v27h-16.88z" fill="#3e4347"/><rect fill="#95989b" height="1.69" rx=".42" width="4.22" x="8.02" y="32.62"/><rect fill="#43ade2" height="2.81" rx=".47" width="2.81" x="2.81" y="5.91"/><rect fill="#c5d659" height="2.81" rx=".47" width="2.81" x="6.75" y="5.91"/><rect fill="#f1b200" height="2.81" rx=".47" width="2.81" x="10.69" y="5.91"/><rect fill="#43ade2" height="2.81" rx=".47" width="2.81" x="14.63" y="5.91"/><rect fill="#c5d659" height="2.81" rx=".47" width="2.81" x="2.81" y="27.56"/><rect fill="#e94661" height="2.81" rx=".47" width="2.81" x="6.75" y="27.56"/><rect fill="#43ade2" height="2.81" rx=".47" width="2.81" x="10.69" y="27.56"/><rect fill="#ae8fc2" height="2.81" rx=".47" width="2.81" x="14.63" y="27.56"/><rect fill="#c5d659" height="2.81" rx=".47" width="2.81" x="2.81" y="16.73"/><rect fill="#ae8fc2" height="2.81" rx=".47" width="2.81" x="6.75" y="16.73"/><rect fill="#43ade2" height="2.81" rx=".47" width="2.81" x="10.69" y="16.73"/><rect fill="#e94661" height="2.81" rx=".47" width="2.81" x="2.81" y="13.13"/><rect fill="#f1b200" height="2.81" rx=".47" width="2.81" x="6.75" y="13.13"/><rect fill="#c5d659" height="2.81" rx=".47" width="2.81" x="10.69" y="13.13"/><rect fill="#f1b200" height="2.81" rx=".47" width="2.81" x="14.62" y="13.13"/><rect fill="#ae8fc2" height="2.81" rx=".47" width="2.81" x="2.81" y="9.52"/><rect fill="#43ade2" height="2.81" rx=".47" width="2.81" x="6.75" y="9.52"/><rect fill="#e94661" height="2.81" rx=".47" width="2.81" x="10.69" y="9.52"/><rect fill="#ae8fc2" height="2.81" rx=".47" width="2.81" x="14.63" y="9.52"/></svg>