<svg viewBox="0 0 36 28.12" xmlns="http://www.w3.org/2000/svg"><g transform="translate(0 -8.96)"><path d="m0 12.55a9.24 9.24 0 0 1 2.61-3.12c3.61-2.37 2.71 5.09 8.15 1.86 2.13-1.27 2.65 1.61 3.87 1.92a26.89 26.89 0 0 0 6.93.34s6.33-1.33 8.33-2.94c1.71-1.38 2.82.12 4.54-.64a2.22 2.22 0 0 1 1.57.03v8.86h-36z" fill="#689635"/><g fill="#85be4f"><path d="m15.19 12.9a11.51 11.51 0 0 1 -6.83-2.11c-2.06-1.57-3.11 3.05-5 3.05s-3.36-2.61-3.36-2.61v19.77z"/><path d="m20.81 12.9s1.39.29 5.29-1.49c1.81-.82 2.32 3.2 3.34 3.23s2.39-2.11 3.72-2.18a4 4 0 0 1 2.84.91v17.63z"/></g></g><path d="m21.46 3.94h-6.92l-14.54 14.13v10.06h36v-10.06z" fill="#ffdd7e"/><path d="m20.81 3.94h-5.62l-15.19 17.52v6.67h36v-6.67z" fill="#676766"/><g fill="#fff"><path d="m36 24.77v-2.07l-15.41-18.76h-.24z"/><path d="m0 24.77v-2.07l15.41-18.76h.24z"/><path d="m19.02 28.13h-2.04l.24-6.68h1.56z"/><path d="m18.64 17.6h-1.28l.19-5.64h.9z"/><path d="m18.4 10.59h-.8l.09-2.44h.62z"/><path d="m18.29 7.46h-.58l.05-1.36h.48z"/><path d="m18.23 5.68h-.46l.03-.86h.4z"/><path d="m18.19 4.54h-.38l.03-.6h.32z"/></g></svg>