<svg viewBox="0 0 33.75 33.75" xmlns="http://www.w3.org/2000/svg"><g transform="translate(-1.13 -2.2)"><path d="m6.13 28.49c2.25-2.26 2.47-2.79 3.87-1.41s.85 1.6-1.4 3.86a4.79 4.79 0 0 1 -3.84 1.36 4.76 4.76 0 0 1 1.37-3.81z" fill="#f59b2f"/><path d="m10.42 30.8c.87-2.35 1.16-2.66-.12-3.37s-1.3-.23-2.14 2.13a4.56 4.56 0 0 0 .12 3.32 3.24 3.24 0 0 0 2.14-2.08z" fill="#f59b2f"/><path d="m9.11 28.61c.49-1.31.49-1.61 1.19-1.18s.55.56.07 1.87a1.78 1.78 0 0 1 -1.19 1.15 2.52 2.52 0 0 1 -.07-1.84z" fill="#f6e82a"/><path d="m9.64 26.76c-.71-1.28-1-1-3.38-.11a3.22 3.22 0 0 0 -2.07 2.13 4.53 4.53 0 0 0 3.32.13c2.36-.91 2.83-.91 2.13-2.15z" fill="#f59b2f"/><path d="m8.46 28c1.31-.48 1.57-.48 1.18-1.19s-.57-.54-1.87-.06a1.79 1.79 0 0 0 -1.16 1.18 2.48 2.48 0 0 0 1.85.07z" fill="#f6e82a"/><path d="m7.84 27.87c1.26-1.26 1.38-1.55 2.14-.79s.48.89-.78 2.14a2.62 2.62 0 0 1 -2.11.78 2.63 2.63 0 0 1 .75-2.13z" fill="#f6e82a"/><path d="m10.42 22.47a7.51 7.51 0 0 0 -9.3-3.47s8.28-8.24 13.88-2.68z" fill="#3cabcf"/><path d="m13.13 18.14 1.87-1.82c-5.6-5.56-13.88 2.68-13.88 2.68s7.26-5.18 12.01-.86z" fill="#428bc1"/><path d="m14.61 26.66a7.49 7.49 0 0 1 3.44 9.34s8.27-8.27 2.71-13.82z" fill="#3cabcf"/><path d="m18.94 24 1.82-1.82c5.56 5.5-2.71 13.82-2.71 13.82s5.21-7.3.89-12z" fill="#428bc1"/><path d="m27.43 18.45c-6.54 6.55-13.83 10.06-16.35 7.55s1-9.81 7.54-16.35c7.63-7.65 16.15-7.35 16.15-7.35s.29 8.52-7.34 16.15z" fill="#c5d0d8"/><path d="m25.78 16.59c-6.54 6.54-13.08 10.82-14.59 9.3s2.76-8 9.3-14.59c7.62-7.63 14.39-9.1 14.39-9.1s-1.47 6.8-9.1 14.39z" fill="#dae3ea"/><path d="m13.68 27.77a.69.69 0 0 1 -1 0l-3.36-3.34a.75.75 0 0 1 0-1l1-1 4.38 4.38z" fill="#c94847"/><path d="m12.72 26.81c-.28.28-.63.4-.78.24l-1.89-1.89c-.16-.16-.08-.53.21-.81l1-1 2.46 2.46z" fill="#eb5846"/><path d="m11.74 28.18a.54.54 0 0 1 -.72 0l-2.18-2.18a.47.47 0 0 1 .05-.66l.66-.67 2.85 2.86z" fill="#3e4347"/><path d="m11.31 27.75c-.18.18-.48.23-.61.1l-1.52-1.52c-.13-.13 0-.39.14-.57l.68-.66 2 2z" fill="#62727b"/><path d="m34.77 2.3a20.16 20.16 0 0 0 -7.16 1.45l5.71 5.71a20.16 20.16 0 0 0 1.45-7.16z" fill="#c94847"/><path d="m34.77 2.3a23.26 23.26 0 0 0 -6.05 2.56l3.49 3.49a23.26 23.26 0 0 0 2.56-6.05z" fill="#eb5846"/><path d="m24.46 9.8a2.82 2.82 0 1 1 -2.82 2.81 2.81 2.81 0 0 1 2.82-2.81z" fill="#edf4f9"/></g><circle cx="23.33" cy="10.41" fill="#3cabcf" r="1.87"/><circle cx="17.7" cy="16.04" fill="#edf4f9" r="2.81"/><circle cx="17.7" cy="16.03" fill="#3cabcf" r="1.88"/><g fill="#fff"><path d="m27.48 5a.47.47 0 0 1 -.66 0 .47.47 0 0 1 0-.67.47.47 0 0 1 .66 0 .48.48 0 0 1 0 .67z" transform="translate(-1.13 -2.2)"/><circle cx="27.35" cy="3.74" r=".47"/><g transform="translate(-1.13 -2.2)"><path d="m29.8 6.8a.47.47 0 1 1 -.47.47.47.47 0 0 1 .47-.47z"/><path d="m31.13 8.13a.47.47 0 1 1 -.47.46.47.47 0 0 1 .47-.46z"/><path d="m32.45 9.45a.47.47 0 1 1 -.47.47.47.47 0 0 1 .47-.47z"/></g></g></svg>