<svg viewBox="0 0 33.75 33.75" xmlns="http://www.w3.org/2000/svg"><g transform="translate(-1.12 -2.2)"><path d="m25.73 21.81a1.74 1.74 0 0 0 -1.47-.81 1.87 1.87 0 0 0 -1.78 1.94v6.94a1.79 1.79 0 1 0 3.57 0v-6.97a2 2 0 0 0 -.32-1.1z" fill="#8e9ba3"/><path d="m24.26 31.78a1.87 1.87 0 0 0 1.79-1.93h-3.57a1.87 1.87 0 0 0 1.78 1.93z" fill="#3e4347"/><path d="m20.47 22.71a2.28 2.28 0 0 0 -2-1.21 2.62 2.62 0 0 0 -2.38 2.8v8.85a2.62 2.62 0 0 0 2.42 2.85 2.61 2.61 0 0 0 2.38-2.8v-8.9a3.09 3.09 0 0 0 -.42-1.59z" fill="#8e9ba3"/><path d="m18.51 36a2.61 2.61 0 0 0 2.38-2.8h-4.76a2.62 2.62 0 0 0 2.38 2.8z" fill="#3e4347"/><path d="m13.15 22.71a2.28 2.28 0 0 0 -2-1.21 2.62 2.62 0 0 0 -2.38 2.8v8.85a2.62 2.62 0 0 0 2.42 2.85 2.61 2.61 0 0 0 2.38-2.8v-8.9a3.09 3.09 0 0 0 -.42-1.59z" fill="#8e9ba3"/><path d="m11.19 36a2.61 2.61 0 0 0 2.38-2.8h-4.76a2.62 2.62 0 0 0 2.38 2.8z" fill="#3e4347"/><path d="m30.44 20a2 2 0 0 0 -1.71-1.1 2.35 2.35 0 0 0 -2.08 2.56v9.17a2.36 2.36 0 0 0 2.08 2.56 2.36 2.36 0 0 0 2.08-2.56v-9.18a2.9 2.9 0 0 0 -.37-1.45z" fill="#8e9ba3"/><path d="m28.73 33.18a2.36 2.36 0 0 0 2.08-2.56h-4.16a2.36 2.36 0 0 0 2.08 2.56z" fill="#3e4347"/></g><g fill="#dae4ee"><ellipse cx="17.39" cy="18.36" rx="8.16" ry="7.83"/><ellipse cx="8.16" cy="17.71" rx="8.16" ry="7.83"/><ellipse cx="27.28" cy="14.76" rx="5.21" ry="4.99"/><ellipse cx="28.54" cy="19.86" rx="5.21" ry="4.99"/><ellipse cx="24.9" cy="21.2" rx="5.21" ry="4.99"/><ellipse cx="8.44" cy="23.3" rx="5.21" ry="4.99"/><ellipse cx="19.02" cy="23.3" rx="5.21" ry="4.99"/><ellipse cx="13.73" cy="25.41" rx="5.21" ry="4.99"/></g><g transform="translate(-1.12 -2.2)"><path d="m26 20.07a8.26 8.26 0 0 0 -1-4.83 10.82 10.82 0 0 0 -5.32-.92 8.14 8.14 0 0 0 1 4.82 10.69 10.69 0 0 0 5.32.93z" fill="#f4a19a"/><path d="m24.64 18.8a4.55 4.55 0 0 0 -.56-2.7 6.07 6.07 0 0 0 -3-.52 4.62 4.62 0 0 0 .55 2.7 6 6 0 0 0 3.01.52z" fill="#3e4347"/><path d="m10 14.32a10.87 10.87 0 0 0 -5.34.89 8.2 8.2 0 0 0 -1 4.81 10.76 10.76 0 0 0 5.34-.9 8.24 8.24 0 0 0 1-4.8z" fill="#f4a19a"/><path d="m8.65 15.56a6.13 6.13 0 0 0 -3 .51 4.59 4.59 0 0 0 -.58 2.7 6 6 0 0 0 3-.5 4.57 4.57 0 0 0 .58-2.71z" fill="#3e4347"/><path d="m23.16 15.71c0 6-3.72 10.88-8.31 10.88s-8.3-4.87-8.3-10.88c0-3.49 3.72-3.62 8.3-3.62s8.31.13 8.31 3.62z" fill="#f4a19a"/></g><ellipse cx="9.23" cy="14.76" fill="#fff" rx="2.81" ry="2.65"/><path d="m10.35 15.13a1.84 1.84 0 1 1 0 3.67 1.84 1.84 0 1 1 0-3.67z" fill="#3e4347" transform="translate(-1.12 -2.2)"/><ellipse cx="18.23" cy="14.76" fill="#fff" rx="2.81" ry="2.65"/><g fill="#3e4347"><ellipse cx="18.23" cy="14.76" rx="1.95" ry="1.84"/><g transform="translate(-1.12 -2.2)"><path d="m10.67 22.06c2 .34 2.13.34 3.08 2.27"/><path d="m19 22.06c-2 .34-2.13.34-3.08 2.27"/></g></g><g fill="#dae4ee"><ellipse cx="5.12" cy="8.33" rx="4.94" ry="4.74"/><ellipse cx="22.33" cy="8.33" rx="4.94" ry="4.74"/><ellipse cx="13.73" cy="6.46" rx="6.74" ry="6.46"/></g></svg>