<svg viewBox="0 0 28.12 36" xmlns="http://www.w3.org/2000/svg"><g fill="#728084" transform="translate(-3.94 -1.08)"><path d="m20.11 14.4h10.09a22.37 22.37 0 0 0 -1.87-8.26 19.31 19.31 0 0 1 -5.36 0 9.61 9.61 0 0 1 -2.86-1.14z"/><path d="m15.89 14.4v-9.4a9.66 9.66 0 0 1 -2.89 1.14 19.37 19.37 0 0 1 -5.37 0 22.37 22.37 0 0 0 -1.83 8.26z"/><path d="m15.89 18.57h-9.89c0 .21.06.43.1.64 1 6.36 6.67 11.64 9.81 14.14v-14.78z"/><path d="m20.11 18.57v14.78c3.14-2.5 8.78-7.78 9.81-14.13 0-.22.07-.44.1-.65z"/></g><g fill="#afbdc6" opacity=".3" transform="translate(-3.94 -1.08)"><path d="m20.55 13.86h10.1a22.5 22.5 0 0 0 -1.88-8.27 19.31 19.31 0 0 1 -5.36 0 9.72 9.72 0 0 1 -2.86-1.16z"/><path d="m15.45 13.86v-9.43a9.72 9.72 0 0 1 -2.86 1.16 19.31 19.31 0 0 1 -5.36 0 22.5 22.5 0 0 0 -1.88 8.27z"/><path d="m15.45 18.94h-9.91l.09.65c1 6.35 6.68 11.64 9.82 14.14z"/><path d="m20.55 18.94v14.79c3.14-2.5 8.78-7.79 9.82-14.14l.09-.65z"/></g><path d="m11.81 2.13h4.5v32.2h-4.5z" fill="#89969b"/><path d="m12.37 2.13h3.38v32.2h-3.38z" fill="#afbdc6"/><path d="m1.02 13.08h26.08v4.5h-26.08z" fill="#89969b"/><path d="m1.02 13.64h26.08v3.38h-26.08z" fill="#afbdc6"/><g transform="translate(-3.94 -1.08)"><path d="m8.66 7.37a22.69 22.69 0 0 0 -1.2 11.56c1.14 7.07 8.54 12.83 10.54 14.28 2-1.45 9.4-7.22 10.54-14.28a22.69 22.69 0 0 0 -1.2-11.56c-.56 0-1.39.12-2.29.12a12.79 12.79 0 0 1 -2.47-.21 12.6 12.6 0 0 1 -4.58-2.28 12.6 12.6 0 0 1 -4.58 2.28 12.79 12.79 0 0 1 -2.42.21c-.95 0-1.79-.07-2.34-.12zm9.34 27.91a.91.91 0 0 1 -.5-.15c-.43-.28-10.41-6.94-11.85-15.9a23.85 23.85 0 0 1 1.61-13.29.93.93 0 0 1 1-.5 22.49 22.49 0 0 0 2.74.18 11.34 11.34 0 0 0 2.1-.17 11.7 11.7 0 0 0 4.3-2.35.92.92 0 0 1 1.2 0 11.72 11.72 0 0 0 4.34 2.35 11.53 11.53 0 0 0 2.11.17 22.49 22.49 0 0 0 2.73-.18.91.91 0 0 1 .95.5 23.7 23.7 0 0 1 1.62 13.29c-1.44 9-11.43 15.62-11.85 15.9a.91.91 0 0 1 -.5.15z" opacity=".2"/><path d="m7.62 6.07a25.28 25.28 0 0 0 -1.33 12.84c1.26 7.84 9.48 14.26 11.71 15.87 2.23-1.61 10.45-8 11.71-15.87a25.28 25.28 0 0 0 -1.33-12.84c-.62.06-1.54.13-2.54.13a14.46 14.46 0 0 1 -2.74-.2 14 14 0 0 1 -5.1-2.57 13.87 13.87 0 0 1 -5.09 2.57 13.72 13.72 0 0 1 -2.75.24c-1-.04-1.92-.11-2.54-.17zm10.38 31.01a1 1 0 0 1 -.56-.17c-.44-.31-11.56-7.71-13.16-17.66a26.4 26.4 0 0 1 1.79-14.76 1 1 0 0 1 1.06-.57 23.91 23.91 0 0 0 3 .21 11.86 11.86 0 0 0 2.34-.2 13.14 13.14 0 0 0 4.84-2.6 1 1 0 0 1 1.32 0 13 13 0 0 0 4.84 2.6 11.86 11.86 0 0 0 2.34.2 21.92 21.92 0 0 0 3-.21 1 1 0 0 1 1.06.57 26.4 26.4 0 0 1 1.79 14.76c-1.54 9.95-12.66 17.35-13.1 17.66a1 1 0 0 1 -.56.17z" fill="#afbdc6"/><path d="m8.38 7a23.25 23.25 0 0 0 -1.23 11.92c1.16 7.27 8.78 13.23 10.85 14.72 2.07-1.49 9.69-7.45 10.85-14.72a23.37 23.37 0 0 0 -1.23-11.92 23.08 23.08 0 0 1 -2.36.13 13.34 13.34 0 0 1 -2.54-.22 12.73 12.73 0 0 1 -4.72-2.34 12.81 12.81 0 0 1 -4.72 2.35 13.45 13.45 0 0 1 -2.55.22 23 23 0 0 1 -2.35-.14zm9.62 28.77a.91.91 0 0 1 -.52-.16c-.43-.28-10.72-7.15-12.2-16.38a24.4 24.4 0 0 1 1.66-13.68.94.94 0 0 1 1-.52 22.62 22.62 0 0 0 2.81.19 11.15 11.15 0 0 0 2.15-.22 12.2 12.2 0 0 0 4.48-2.42.93.93 0 0 1 1.23 0 12.4 12.4 0 0 0 4.48 2.42 12.07 12.07 0 0 0 2.17.18 22.89 22.89 0 0 0 2.82-.18.94.94 0 0 1 1 .52 24.4 24.4 0 0 1 1.66 13.68c-1.5 9.26-11.74 16.13-12.23 16.41a.86.86 0 0 1 -.51.16z" fill="#afbdc6"/><path d="m8 6.5a24.42 24.42 0 0 0 -1.32 12.42c1.22 7.58 9.16 13.79 11.32 15.35 2.15-1.56 10.1-7.77 11.32-15.35a24.42 24.42 0 0 0 -1.32-12.42c-.6.06-1.5.13-2.46.13a13.54 13.54 0 0 1 -2.65-.23 13.55 13.55 0 0 1 -4.89-2.4 13.47 13.47 0 0 1 -4.93 2.4 13.54 13.54 0 0 1 -2.65.23c-.96 0-1.86-.07-2.42-.13zm10 30a1 1 0 0 1 -.54-.17c-.46-.33-11.18-7.47-12.73-17.09a25.4 25.4 0 0 1 1.74-14.24 1 1 0 0 1 1-.55 21.39 21.39 0 0 0 2.93.2 11.15 11.15 0 0 0 2.26-.19 12.69 12.69 0 0 0 4.68-2.52 1 1 0 0 1 1.28 0 12.61 12.61 0 0 0 4.67 2.52 11.32 11.32 0 0 0 2.27.19 21.39 21.39 0 0 0 2.93-.2 1 1 0 0 1 1 .55 25.5 25.5 0 0 1 1.74 14.27c-1.51 9.59-12.23 16.73-12.69 17.05a1 1 0 0 1 -.54.17z" fill="#e0eaf0"/><path d="m18 2.05a.79.79 0 1 1 -.78.79.78.78 0 0 1 .78-.79z" fill="#afbdc6"/><path d="m18 2.24a.6.6 0 1 1 -.59.6.59.59 0 0 1 .59-.6z" fill="#e0eaf0"/><path d="m18 3.14a.81.81 0 0 1 -.6-.26.6.6 0 0 0 1.2 0 .81.81 0 0 1 -.6.26z" fill="#89969b"/></g><ellipse cx="24.67" cy="4.52" fill="#afbdc6" rx=".78" ry=".79"/><g transform="translate(-3.94 -1.08)"><path d="m28.61 5a.6.6 0 1 1 0 1.2.6.6 0 0 1 0-1.2z" fill="#e0eaf0"/><path d="m28.61 5.9a.83.83 0 0 1 -.6-.26.62.62 0 0 0 .6.56.61.61 0 0 0 .6-.56.81.81 0 0 1 -.6.26z" fill="#89969b"/><path d="m30.55 12.23a.79.79 0 1 1 -.77.79.77.77 0 0 1 .77-.79z" fill="#afbdc6"/><path d="m30.55 12.42a.6.6 0 0 1 .6.6.6.6 0 1 1 -1.15-.02.59.59 0 0 1 .55-.58z" fill="#e0eaf0"/><path d="m30.55 13.32a.83.83 0 0 1 -.6-.26.62.62 0 0 0 .6.56.61.61 0 0 0 .6-.56.81.81 0 0 1 -.6.26z" fill="#89969b"/><path d="m29.41 21.47a.79.79 0 1 1 -.78.79.78.78 0 0 1 .78-.79z" fill="#afbdc6"/><path d="m29.41 21.66a.6.6 0 1 1 -.59.6.59.59 0 0 1 .59-.6z" fill="#e0eaf0"/><path d="m29.41 22.56a.81.81 0 0 1 -.6-.26.6.6 0 0 0 1.2 0 .81.81 0 0 1 -.6.26z" fill="#89969b"/><path d="m24.74 28.69a.79.79 0 1 1 -.78.79.79.79 0 0 1 .78-.79z" fill="#afbdc6"/></g><ellipse cx="20.8" cy="28.4" fill="#e0eaf0" rx=".59" ry=".6"/><path d="m24.74 29.79a.82.82 0 0 1 -.6-.27.6.6 0 0 0 .6.56.61.61 0 0 0 .6-.56.82.82 0 0 1 -.6.27z" fill="#89969b" transform="translate(-3.94 -1.08)"/><ellipse cx="14.06" cy="34.16" fill="#afbdc6" rx=".78" ry=".79"/><ellipse cx="14.06" cy="34.16" fill="#e0eaf0" rx=".59" ry=".6"/><path d="m18 35.55a.81.81 0 0 1 -.6-.26.6.6 0 0 0 1.2 0 .83.83 0 0 1 -.6.26z" fill="#89969b" transform="translate(-3.94 -1.08)"/><path d="m11.26 28.69a.79.79 0 1 1 -.78.79.79.79 0 0 1 .78-.79z" fill="#afbdc6" transform="translate(-3.94 -1.08)"/><ellipse cx="7.32" cy="28.4" fill="#e0eaf0" rx=".59" ry=".6"/><g transform="translate(-3.94 -1.08)"><path d="m11.26 29.79a.84.84 0 0 1 -.6-.27.61.61 0 0 0 .6.56.6.6 0 0 0 .6-.56.79.79 0 0 1 -.6.27z" fill="#89969b"/><path d="m6.59 21.47a.79.79 0 0 1 0 1.58.79.79 0 0 1 0-1.58z" fill="#afbdc6"/><path d="m6.59 21.66a.6.6 0 1 1 -.6.6.6.6 0 0 1 .6-.6z" fill="#e0eaf0"/><path d="m6.59 22.56a.81.81 0 0 1 -.59-.26.61.61 0 0 0 .6.56.62.62 0 0 0 .6-.56.83.83 0 0 1 -.61.26z" fill="#89969b"/><path d="m5.45 12.23a.79.79 0 0 1 0 1.58.79.79 0 0 1 0-1.58z" fill="#afbdc6"/><path d="m5.45 12.42a.59.59 0 0 1 .55.58.6.6 0 1 1 -.59-.6z" fill="#e0eaf0"/><path d="m5.45 13.32a.81.81 0 0 1 -.6-.26.6.6 0 0 0 1.19 0 .81.81 0 0 1 -.59.26z" fill="#89969b"/></g><ellipse cx="3.42" cy="4.52" fill="#afbdc6" rx=".78" ry=".79"/><g transform="translate(-3.94 -1.08)"><path d="m7.35 5a.6.6 0 1 1 -.59.6.6.6 0 0 1 .59-.6z" fill="#e0eaf0"/><path d="m7.35 5.9a.83.83 0 0 1 -.6-.26.62.62 0 0 0 .6.56.61.61 0 0 0 .65-.56.81.81 0 0 1 -.65.26z" fill="#89969b"/></g></svg>