<svg viewBox="0 0 33.75 33.75" xmlns="http://www.w3.org/2000/svg"><g transform="translate(-1.12 -2.21)"><path d="m23.27 2.21a2.09 2.09 0 0 0 -1.05.29 2.1 2.1 0 0 0 -1.06-.29 1.93 1.93 0 0 0 -2.11 1.49 1.58 1.58 0 1 0 1.26 2.53 2 2 0 0 0 .85.19 2.11 2.11 0 0 0 1.06-.3 2.1 2.1 0 1 0 1.05-3.91z" fill="#e8e8e8"/><path d="m29.07 7.77a2.1 2.1 0 0 0 -1.05.3 2.11 2.11 0 0 0 -1.02-.3 1.92 1.92 0 0 0 -2.1 1.5 1.58 1.58 0 1 0 1.25 2.53 2 2 0 0 0 .85.2 2.1 2.1 0 0 0 1-.31 2.1 2.1 0 1 0 1.05-3.92z" fill="#e8e8e8"/><path d="m22.75 11.47v17h4.25v-17a3 3 0 0 0 -4.25 0z" fill="#fff"/><path d="m16.42 5.68v17.05h4.22v-17a3.06 3.06 0 0 0 -4.22-.05z" fill="#fff"/><path d="m16.42 6.74v17h4.22v-17a3 3 0 0 0 -4.22 0z" fill="#e94d5c"/><path d="m16.42 7.79v17h4.22v-17a3.06 3.06 0 0 0 -4.22 0z" fill="#fff"/><path d="m22.75 12.52v17.05h4.25v-17a3 3 0 0 0 -4.25-.05z" fill="#e94d5c"/><path d="m22.75 13.58v17h4.25v-17a3 3 0 0 0 -4.25 0z" fill="#fff"/></g><path d="m31.9 25.78h-26.89v-13.68l1.05-1.05v-1.52l1.06-.58v-1.16l4.22-1.89 8.43 1.47 12.13 11.3z" fill="#95989b"/><path d="m18.69 7.37v2.1l-1.02.19v1.92l-1.06-.1v2.19l-1.05.01v2.46l16.34 8.51v-5.98l-12.13-11.3z" fill="#95989b"/><path d="m4.82 14.83a6.43 6.43 0 0 0 -3.7 3.69 28.23 28.23 0 0 0 3.43 7.1 37.19 37.19 0 0 1 4 9.21v-15.9z" fill="#fff" transform="translate(-1.12 -2.21)"/><g fill="#3e4347"><path d="m14.77 14.21v1.14l-2.77-1.15z"/><path d="m15.82 12.1v.96l-7.65-.96z"/><path d="m16.88 10v.95l-7.65-.95z"/><path d="m17.93 7.89v.96l-7.65-.96z"/></g><path d="m7.12 6.84v1.05l4.22-1.05v-1.05z" fill="#fff"/><path d="m11.34 5.79v1.05l8.43 1.05v-1.05z" fill="#e8e8e8"/><path d="m19.77 7.89v-1.05l12.13 11.83v.27z" fill="#d0cfd0"/><path d="m6.06 8.95v1.05l4.22-1.05v-1.06z" fill="#fff"/><path d="m10.28 7.89v1.06l8.44 1.05v-1.05z" fill="#e8e8e8"/><path d="m18.72 10v-1.05l13.18 11.3v.27z" fill="#d0cfd0"/><path d="m5.01 11.05v1.05l4.22-1.05v-1.05z" fill="#fff"/><path d="m9.23 10v1.05l8.44 1.05v-1.05z" fill="#e8e8e8"/><path d="m17.67 12.1v-1.05l14.23 10.78v.27z" fill="#d0cfd0"/><path d="m3.96 13.15v1.06l4.21-1.06v-1.05z" fill="#fff"/><path d="m8.17 12.1v1.05l8.44 1.06v-1.06z" fill="#e8e8e8"/><path d="m16.61 14.21v-1.06l15.29 10.26v.27z" fill="#d0cfd0"/><g fill="#3e4347"><path d="m31.38 19.64v-.53l-12.13-10.72v.82z"/><path d="m31.35 21.17v-.51l-13.16-10.23v.78z"/><path d="m31.37 22.85v-.49l-14.23-9.91v.75z"/><path d="m16.08 14.79v.69l15.3 8.77v-.45z"/></g><path d="m4.82 14.83a22.34 22.34 0 0 0 1.18 9.58c2.51 7.09 2.38 10.42 2.38 10.42h23.46a8.08 8.08 0 0 1 1.58-3.61 6.38 6.38 0 0 0 1.45-3.22s-23-14.87-30.05-13.17z" fill="#d0cfd0" transform="translate(-1.12 -2.21)"/><path d="m31.67 25.17-17.41-8.49.01 1.56 17.4 7.86z" fill="#3e4347"/><g fill="#e8e8e8"><path d="m30.72 23.94h.26v1.4h-.26z"/><path d="m27.03 21.79h.26v1.73h-.26z"/><path d="m23.07 19.45h.26v2.49h-.26z"/><path d="m18.54 17.24h.26v3.02h-.26z"/></g><g fill="#e94d5c" transform="translate(-1.12 -2.21)"><path d="m32.18 27.57c.21.32-.27.41-1.08.21a3.84 3.84 0 0 1 -1.86-1c-.22-.31.26-.41 1.07-.21a3.92 3.92 0 0 1 1.87 1z"/><path d="m28.51 25.89c.23.39-.29.53-1.17.32a3.83 3.83 0 0 1 -2-1.1c-.24-.38.29-.52 1.17-.31a3.94 3.94 0 0 1 2 1.09z"/><path d="m24.51 24.06c.27.38-.28.53-1.24.34a4.28 4.28 0 0 1 -2.22-1c-.27-.38.29-.54 1.24-.34a4.21 4.21 0 0 1 2.22 1z"/><path d="m20.12 22.22c.32.45-.31.66-1.41.47a4.89 4.89 0 0 1 -2.58-1.14c-.32-.45.31-.66 1.41-.47a4.82 4.82 0 0 1 2.58 1.14z"/></g><g fill="#e8e8e8"><path d="m15.16 15.51h.26v3.63h-.26z"/><path d="m19.94 17.98h.26v2.96h-.26z"/><path d="m24.35 20.22h.26v2.5h-.26z"/><path d="m28.26 22.5h.26v1.93h-.26z"/></g><path d="m3 10s0-.73 1-1a1.49 1.49 0 0 1 1.6-.84s-1.3.48-1.2 1.29a1.28 1.28 0 0 0 -1.4.55z" fill="#95989b" transform="translate(-1.12 -2.21)"/><path d="m3.23 4.94s.36-.64 1.38-.28a1.49 1.49 0 0 1 1.79.16s-1.35-.31-1.71.41a1.3 1.3 0 0 0 -1.46-.29z" fill="#95989b" transform="translate(-1.12 -2.21)"/><path d="m0 30.38h33.75v3.38h-33.75z" fill="#7ecef5"/></svg>