<svg viewBox="0 0 33.75 33.75" xmlns="http://www.w3.org/2000/svg"><circle cx="16.82" cy="24.19" fill="#d0cfd0" r="9.56"/><circle cx="16.82" cy="24.19" fill="#fff" r="8.44"/><circle cx="16.82" cy="13.24" fill="#d0cfd0" r="7.31"/><path d="m18 9.25a6.19 6.19 0 1 0 6.19 6.19 6.2 6.2 0 0 0 -6.19-6.19z" fill="#fff" transform="translate(-1.13 -2.2)"/><circle cx="16.82" cy="13.75" fill="#f1853b" r="1.41"/><circle cx="13.78" cy="11.15" fill="#3e4347" r="1.13"/><circle cx="19.87" cy="11.15" fill="#3e4347" r="1.13"/><g transform="translate(-1.13 -2.2)"><path d="m20.94 8c2.84 1.32 4.87 3 4.53 3.7s-2.9.22-5.74-1.1-4.86-3-4.53-3.69 2.91-.28 5.74 1.09z" fill="#95989b"/><path d="m23.12 3.27c2.13 1 3.65 2.24 3.4 2.78s-2.18.17-4.31-.82-3.65-2.23-3.39-2.78 2.18-.17 4.3.82z" fill="#95989b"/><path d="m22.21 5.22c-2-.93-3.45-2.08-3.42-2.66l-1.27 5.19c-.19.41.95 1.34 2.54 2.08s3.05 1 3.23.62l3.16-4.31c-.45.4-2.24.02-4.24-.92z" fill="#3e4347"/><g fill="#8a674d"><path d="m34.88 19.85-3.27-1 1.71-1.81a.52.52 0 0 0 -.73-.73l-2.32 2.46v-4.7h-1v5.84l-2.84 3a.52.52 0 0 0 0 .73.53.53 0 0 0 .73 0l3.17-3.36.52-.56 3.78 1.1z"/><path d="m6.77 19.91v-5.84h-1v4.75l-2.36-2.46a.52.52 0 0 0 -.73.73l1.71 1.81-3.27 1 .29 1 3.78-1.1.66.71 3 3.21a.52.52 0 1 0 .73-.73c-.92-1.07-1.87-2.07-2.81-3.08z"/></g></g><g fill="#3e4347"><path d="m15.89 24.93-.59-1.82 1.55-1.12 1.54 1.12-.59 1.82z"/><path d="m15.89 30.43-.59-1.81 1.55-1.12 1.54 1.12-.59 1.81z"/><path d="m18 20.18a6.26 6.26 0 0 1 -4.58-2 .56.56 0 1 1 .83-.76 5.09 5.09 0 0 0 7.5 0 .57.57 0 0 1 .8 0 .58.58 0 0 1 0 .8 6.26 6.26 0 0 1 -4.55 1.96z" transform="translate(-1.13 -2.2)"/></g></svg>