<svg viewBox="0 0 33.75 33.75" xmlns="http://www.w3.org/2000/svg"><g transform="translate(-1.12 -2.2)"><path d="m23.58 22.68c-1.86-1.87-3.14-3.14-5.86-5.86-1.72-1.77-.24-6.19-4.83-10.82-3.26-3.23-8.61-5-10.8-2.83s-.4 7.54 2.91 10.83c4.6 4.59 9 3.07 10.79 4.83l5.86 5.86c2.35 2.41 2.54 3.21 6.35 8.31 1.86 2.52 3.64 4.12 5.87 1.9s.62-4-1.9-5.87c-5.14-3.76-5.97-3.91-8.39-6.35z" fill="#d0cfd0"/><path d="m8.79 4.4c3 3.9 4 8.39 2.46 11.3l.31.08a3.66 3.66 0 0 0 2.69-1 3.23 3.23 0 0 0 1-2.71 9.08 9.08 0 0 0 -2.92-5.24 12.23 12.23 0 0 0 -3.54-2.43z" fill="#fff"/><path d="m7.4 14.43c-3.88-3.88-5.17-8.91-3.05-11.5a2.81 2.81 0 0 0 -1.77.73c-1.75 1.75-.33 6.61 2.87 9.81a11.45 11.45 0 0 0 3.77 2.53.16.16 0 0 0 0-.07 16.9 16.9 0 0 1 -1.82-1.5z" fill="#95989b"/></g></svg>