<svg viewBox="0 0 36 30.38" xmlns="http://www.w3.org/2000/svg"><path d="m0 13.55s1.06-3.05 2.61-4c3.61-2.16 2.15 5.77 7.58 2.82 2.13-1.16 2.65 2.6 3.88 2.88 2.67.62 9.74.31 9.74.31s1.33-2.19 2.63-2.43c2.39-.43 2-3.39 3.88-4.25 1.31-.6 2.39.73 4.11 0 .75-.23 1.57-2.17 1.57-2.17v10.34l-36 .84z" fill="#c5d659" transform="translate(0 -6.71)"/><path d="m20.81 8.29h-5.62l-15.19 16.57v5.52h36v-5.52z" fill="#676766"/><g fill="#594640"><path d="m14.81 9.97h6.37v.18h-6.37z"/><path d="m15.41 9.22h5.18v.14h-5.18z"/><path d="m15.92 8.58h4.15v.14h-4.15z"/><path d="m13.06 12.16h9.88v.28h-9.88z"/><path d="m14.07 10.9h7.86v.28h-7.86z"/></g><g fill="#dbb470"><path d="m20.59 9.22-.29-.36h-4.6l-.29.36z"/><path d="m21.18 9.97-.36-.47h-5.63l-.38.47z"/><path d="m20.08 8.58-.23-.29h-3.7l-.23.29z"/><path d="m22.94 12.16-.56-.7h-8.76l-.56.7z"/><path d="m21.93 10.9-.45-.56h-6.96l-.45.56z"/></g><g fill="#594640"><path d="m8.61 17.72h18.77v.53h-18.77z"/><path d="m10.37 15.52h15.26v.42h-15.26z"/><path d="m11.88 13.63h12.24v.42h-12.24z"/><path d="m0 28.52h36v1.03h-36z"/><path d="m3.44 24.19h29.11v.82h-29.11z"/><path d="m6.42 20.48h23.17v.83h-23.17z"/></g><g fill="#dbb470"><path d="m25.63 15.52-.86-1.05h-13.54l-.86 1.05z"/><path d="m27.39 17.73-1.1-1.37h-16.58l-1.1 1.37z"/><path d="m24.12 13.63-.68-.84h-10.88l-.68.84z"/><path d="m32.55 24.19-1.65-2.06h-25.8l-1.66 2.06z"/><path d="m33.86 25.84h-31.72l-2.14 2.68h36z"/><path d="m29.59 20.48-1.32-1.65h-20.53l-1.32 1.65z"/></g><path d="m6.21 30.38 10.75-22.09h-.09l-10.66 20.44z" fill="#676766"/><path d="m3.95 28.73h2.27v1.65h-2.27z" fill="#3e4347"/><path d="m16.65 8.29-12.71 20.44h2.27l10.66-20.44z" fill="#e6e6e6"/><path d="m29.79 30.38-10.75-22.09h.08l10.67 20.44z" fill="#676766"/><path d="m19.35 8.29 12.71 20.44h-2.27l-10.67-20.44z" fill="#e6e6e6"/><path d="m29.78 28.73h2.27v1.65h-2.27z" fill="#3e4347"/><g fill="#85be4f" transform="translate(0 -6.71)"><path d="m15.19 15s-2.67-1-3.79-.44c-1.79.9-1.57-2-3-2.61s-3.43 1.83-5 1.66c-1.93-.22-3.4-3.51-3.4-3.51v21.46z"/><path d="m20.81 15s2.19-.36 2.79-1 1.59-2.34 2.76-2.43c1.44-.12 3.05 1.59 3.91 1.61s.61-2.55 2.89-3c1.78-.38 2.84 2 2.84 2v19.38z"/></g></svg>